<?xml version="1.0" encoding="utf-8"?>
<!-- Generator: Adobe Illustrator 18.0.0, SVG Export Plug-In . SVG Version: 6.00 Build 0)  -->
<!DOCTYPE svg PUBLIC "-//W3C//DTD SVG 1.1//EN" "http://www.w3.org/Graphics/SVG/1.1/DTD/svg11.dtd">
<svg version="1.1" id="angry_moon_xA0_Image_1_" xmlns="http://www.w3.org/2000/svg" xmlns:xlink="http://www.w3.org/1999/xlink"
	 x="0px" y="0px" viewBox="0 0 77.8 77.8" enable-background="new 0 0 77.8 77.8" xml:space="preserve">
<g>
	<path fill="#FFFFFF" d="M64.8,28.3c2.5,1.7,1.9,6.5,2.4,10.1c-1.9-1.4-0.8-5.1-1.4-7.7C65.5,29.8,64.7,29.3,64.8,28.3z"/>
	<path fill="#FFFFFF" d="M62.4,29.3c1.4,0.7,2.1,2.1,2.9,3.4C64.2,33.6,63,30.4,62.4,29.3z"/>
	<path fill="#FFFFFF" d="M17.8,34.1c-0.7-1.5,1.7-4.1,3.8-4.3C21.2,32.1,18.4,32,17.8,34.1z"/>
	<path fill="#FFFFFF" d="M60.5,32.2c0.5-1.5,1.3,0.6,1.9,0.5C61.9,34.1,61.1,32.1,60.5,32.2z"/>
	<path fill="#FFFFFF" d="M61,32.6c0.7,1.5-2.8,0.7-2.4-0.5C59.7,32,59.6,33,61,32.6z"/>
	<path fill="#FFFFFF" d="M61,36c1.8,0.6,1.9,2.9,2.4,4.8C61.5,40.2,62.1,37.3,61,36z"/>
	<path fill="#FFFFFF" d="M29.3,47c0.3-1.4,0.6,1.1,0.5,1.4C29.5,49.4,28.9,48.9,29.3,47z"/>
	<path fill="#FFFFFF" d="M59,47.5c2.1-0.1,0,1.2,0.5,2.4C58.5,50,59.3,48.2,59,47.5z"/>
	<path fill="#FFFFFF" d="M28.3,64.8c1.2-0.8-1.9-1.3-1.4-2.9c1.5,1.7,4,2.5,4.3,5.3c-1.6-1.5-4.3-1.8-4.8-4.3
		C27.2,63.3,27.9,64,28.3,64.8z"/>
	<path fill="#FFFFFF" d="M9.1,15.8C15.9,6.7,26.9,0.6,39.8,1c25.5,0.7,43.3,26.5,33.6,52.3C67.6,68.9,45.7,83.7,24,73.9
		c-3.6-1.6-9.6-6.1-12.5-9.1C-1.2,51.5-2.1,31,9.1,15.8z M57.1,6.7C31-8.1,4,11.7,1.9,35.5C0.1,56.5,16,73.6,34.6,75.4
		c14.1,1.3,23.9-3.6,30.7-10.6c5.4-5.4,10.7-14.6,10.6-26.4c-0.2-13.7-8.7-25.9-17.3-31.2C58.1,6.9,57.5,6.9,57.1,6.7z"/>
	<path fill="#FFFFFF" d="M22.6,32.2c-1.7,0.4-2.2,2-4.3,1.9c4.4-2.2,4.4-8.7,9.1-10.6c-2.9-1.9,0.2-4.2-5.8-4.8
		c-2,2.9-4,3.9-5.8,7.7c-3-4.2,3.6-6.5,4.8-9.6c1.4,0,2.9,0,4.3,0c-0.1,0.6-0.9,0.4-1.4,0.5c2.7,2.4,7.5,3,7.7,9.1
		c1.9,1.1,2.2-0.6,4.3-0.5c-0.4,0.7-0.7,1.5-1.9,1.4c1.2,1.9,1.4-0.2,3.4,0c0.2,0.8-0.4,0.9-1,1c-1.6,0.7-1.5,3-4.3,2.4
		c-1.7-7.1-7.5-4.8-9.1,1c1.4-0.3,2.9,1.8,5.3,1.9c-0.1-0.9-1.6-0.3-1.9-1c0-1,0-1.9,0-2.9c2.2-0.6,4.1,1.5,2.9-1
		c2.7,0.9,0.6,3.7-0.5,4.8c1.7-0.3,1.5-2.6,3.8-2.4c-1.1,3-2.2,6.2-6.7,5.8c0.2-2.2,3.7-0.2,4.3-2.9C26.8,36.3,24.3,33.8,22.6,32.2z
		 M33.6,29.3c-1,0.2-1.1-2.6-1.9-1C32.1,28.6,33.3,30.5,33.6,29.3z"/>
	<path fill="#FFFFFF" d="M54.7,27.4c1.8,0.6,5.5,0,8.6-0.5c-1.6,3.8-7,1.1-8.2,3.4c1.7,1.2,4.5-0.6,6.7-0.5
		C58,32.9,51.7,31.1,48,33.6c-1.3-2.6,5.2-1.5,7.2-2.4c-4.1-0.8-10.4-0.7-11,4.3c-0.8,0.2-0.9-0.4-1-1c-1.8,1,1.4,1.1,1,2.4
		c-4.1-1.2-1.2-7.8,1-8.6c-0.2-1.1-0.5-2.1-1.4-2.4c0.9-1.4,2.4,2,1.4-1c1.2,0,0.7,1.9,1.9,1.9c0.8-0.7,0-2-1-2.4
		c1.6-1.6,2.6,1.6,3.4,2.4c5.8,1.1,5.3-4,10.1-3.8c0.4,0.4,0.9,0.7,1.4,1c-0.3,0.4-0.5,0.8-0.5,1.4c-1.7,0.4-1.8-0.7-3.4-0.5
		c-0.6,0.2-0.8,0.8-1.4,1c0.2,1.6,1.9-1.3,1.4,1C56,26.7,56.1,27.8,54.7,27.4z M42.7,33.1c0.4,1.2,0.8-1.4,1-1.9
		c0-0.3-0.4-0.5-0.5,0C43.3,32.1,42.7,32.3,42.7,33.1z M49.9,28.3c-2.4,0.3-0.1-2.3-1.9-1c0-0.3-0.4-0.5-0.5,0
		C47.9,27.9,50.7,29.7,49.9,28.3z"/>
	<path fill="#FFFFFF" d="M43.2,31.2c0.1-0.5,0.5-0.3,0.5,0c-0.2,0.6-0.6,3.2-1,1.9C42.7,32.3,43.3,32.1,43.2,31.2z"/>
	<path fill="#FFFFFF" d="M41.3,26.4c0.8,0.6,1.3,1.6,1.4,2.9c-0.6-0.5-1.4-0.8-1.9-1.4c-1.5-0.2-1.3,1.7-2.4,0.5
		C35.3,30.5,39.2,26.2,41.3,26.4z"/>
	<path fill="#FFFFFF" d="M47.5,27.4c0.1-0.5,0.5-0.3,0.5,0c1.8-1.3-0.5,1.2,1.9,1C50.7,29.7,47.9,27.9,47.5,27.4z"/>
	<path fill="#FFFFFF" d="M31.7,28.3c0.8-1.7,1,1.2,1.9,1C33.3,30.5,32.1,28.6,31.7,28.3z"/>
	<path fill="#FFFFFF" d="M61.9,30.7C64.2,31.9,62.5,33.7,61.9,30.7L61.9,30.7z"/>
	<path fill="#FFFFFF" d="M57.6,49c0.6-1.6-1.1-5-3.4-5.3c2.6-0.9,4.7,2.9,4.3,6.7c-1.4-0.4-1.2,0.7-2.4,0.5c0.2-5.6-8.7-2.2-8.6-7.7
		c-3.2,0.2-4,1.1-5.3,3.8c-6,0.8-5.8-4.4-10.6-2.4c-0.4-0.4-0.5-1.1-0.5-1.9c-1.2,4.5-0.4,11.1-4.3,13c-0.2,2.6-0.8,4,0.5,5.8
		c-1.6,0.6-0.4-1.6-1.9-1c-0.2-2.9,0.4-5.1,2.4-5.8c-1.5-2-0.6-1.2-1.4-2.9c0.5-1.6,0.9,0.5,1.4,0.5c1-0.3-0.9-1.6-1.4-1.9
		c0.6-0.6,1.5-1,0-1.4c0.5-1.5,1.3,0.6,1.9,0.5c-0.3-0.7-0.7-1.2-1.4-1.4c1.4-2.3,1.4-3,1.4-5.3c1.5,0.7,2.7-5.1,5.8-5.8
		c1.1,0.1,0.2,2,0.5,2.9c-2.5-1.8-1.9,2-1.4,3.8c1.6,0,1.6-1.6,3.4-1.4c0.9,0.7,0.9,2.3,1.4,3.4c1.7-0.7,3.2-1.6,4.3-2.9
		c-0.5-1.7-2.3,3.2-2.4,0.5c1.9-1.9,1.8-1.3,2.9-3.8c1.6-0.6,2,2.4,1,2.9c0.7,0.6,1.1-0.8,2.9,0c0.4-1.8-0.8-2.6,0-3.4
		c-0.1-0.8-0.8-1.1-1.9-1c0.4-1.7,1.4-0.3,2.4,0c0.1-1.3-1.9-0.4-1.4-1.9c3.8,1.1,1.6,5.3,3.8,7.7C53.4,44.2,56.6,45.5,57.6,49z
		 M49.4,44.2c-1.1,0.1-0.5-1.4-1.4-1.4C47.8,43.7,49.3,45.2,49.4,44.2z M39.8,45.6C43.8,44.5,41.9,43.2,39.8,45.6L39.8,45.6z
		 M55.7,46.6c-0.7-0.3-3.8-2.1-2.9-1C53.7,45.7,55.3,47.5,55.7,46.6z M29.8,48.5c0.1-0.3-0.2-2.8-0.5-1.4
		C28.9,48.9,29.5,49.4,29.8,48.5z M56.6,49c-0.2-0.6-0.5-1.1-1-1.4C55.6,48.2,56.4,50.2,56.6,49z"/>
	<path fill="#FFFFFF" d="M48,42.7c0.9,0.1,0.3,1.6,1.4,1.4C49.3,45.2,47.8,43.7,48,42.7z"/>
	<path fill="#FFFFFF" d="M39.8,45.6C41.9,43.2,43.8,44.5,39.8,45.6L39.8,45.6z"/>
	<path fill="#FFFFFF" d="M52.8,45.6c-0.9-1.1,2.2,0.6,2.9,1C55.3,47.5,53.7,45.7,52.8,45.6z"/>
	<path fill="#FFFFFF" d="M55.7,47.5c0.4,0.4,0.7,0.9,1,1.4C56.4,50.2,55.6,48.2,55.7,47.5z"/>
	<path fill="#FFFFFF" d="M52.8,57.1c-1.9-1-2.3-2.5-4.3-2.9c-3.2-0.6-6.7,2.1-10.6,1.4c-2.8,1.1-3.3,4.4-6.2,5.3
		c-2.2-0.3-0.4-1.7-2.9-1.9c1.7-2.6,4-4.6,6.7-6.2C39,52.6,44.9,53,48,51.4c1.7-0.9,6-2.4,6.7,1.4C55,54.4,53.8,55.8,52.8,57.1z
		 M32.6,57.6C31.8,60.1,33.9,58.9,32.6,57.6L32.6,57.6z"/>
	<path fill="#FFFFFF" d="M32.6,57.6C33.9,58.9,31.8,60.1,32.6,57.6L32.6,57.6z"/>
	<path fill="#FFFFFF" d="M53.8,21.1c-0.9,2.2-1.9,4.2-4.8,4.3c0-0.8-0.4-1.2-1-1.4C49.8,24.6,51.1,23,53.8,21.1z"/>
	<path fill="#FFFFFF" d="M45.6,58.6c1.1,1.3,0.3,1.8,1.4,3.4c-1.7-2.1-4.9-0.8-7.2-1.4C40.9,59,43.3,58.9,45.6,58.6z"/>
</g>
</svg>
