<?xml version="1.0" encoding="utf-8"?>
<!-- Generator: Adobe Illustrator 18.0.0, SVG Export Plug-In . SVG Version: 6.00 Build 0)  -->
<!DOCTYPE svg PUBLIC "-//W3C//DTD SVG 1.1//EN" "http://www.w3.org/Graphics/SVG/1.1/DTD/svg11.dtd">
<svg version="1.1" id="Layer_1" xmlns="http://www.w3.org/2000/svg" xmlns:xlink="http://www.w3.org/1999/xlink" x="0px" y="0px"
	 viewBox="0 0 200 200" enable-background="new 0 0 200 200" xml:space="preserve">
<path fill="#FFFFFF" d="M176.5,101.7c-0.2-0.3-0.3-0.9-0.3-1.3c0-0.6,0.1-1.3,0.1-1.9c0.1-0.9,0.1-1.7,0.2-2.6
	c0.1-0.4,0.4-0.9,0.4-1.3c0-1,0-1.9,0-2.9c0-0.2,0-0.5-0.2-0.6c-0.7-0.4-0.6-1.2-0.7-1.8c-0.2-0.9-0.3-1.8-0.4-2.7
	c-0.4-2.4-0.9-4.6-1.3-7c-0.7-3.4-1.1-6.7-2.7-10c-0.7-1.5-1.2-3.1-1.9-4.6c-0.2-0.5-0.7-1.1-1.1-1.6c-0.2-0.3-0.4-0.7-0.7-1.1
	c-0.3-0.6-0.6-1.5-0.9-2.1c-1-1.5-2-2.9-3-4.3c-2.7-3.4-5.3-6.7-8-10.2c-0.7-0.9-1.2-1.9-2-2.7c-1-1.1-2.2-2-3.3-2.9
	c-1.3-1-2.7-1.8-4-2.8c-0.1-0.1-0.3-0.2-0.3-0.4c-0.2-0.7-0.7-1.2-1.4-1.1c-0.1,0-0.3-0.1-0.4-0.2c-0.4-0.7-1.3-1.1-2.1-1.5
	c-4.1-1.9-8.3-3.9-12.5-5.8c-0.8-0.4-1.6-0.9-2.4-1.3c-0.4-0.2-0.9-0.6-1.4-0.9c-0.6-0.3-1.2-0.4-1.8-0.7c-4.1-1.9-8.5-2.9-13-3.7
	c-1-0.2-2.1-0.1-3.2-0.7c-0.6-0.3-1.4-0.3-2.2-0.7c-0.2-0.1-0.6,0-0.9,0.1c-1,0.1-1.9,0.4-2.8-0.5c-0.4-0.5-1.4-0.3-2.1,0
	c-0.2,0.1-0.6,0.3-0.9,0.3c-1.6,0-3.1,0-4.7,0h-0.1c-2.8-1.2-5.5-0.4-8.3-0.2c-1.1,0.1-2.1,0.3-3.2,0.4c-0.4,0.1-1,0.3-1.4,0.5
	c-0.6,0.2-1.1,0.4-1.7,0.5c-0.6,0-1.2-0.3-1.7,0.4c-0.1,0.1-0.4,0-0.7,0c-0.1,0-0.3-0.2-0.4-0.1c-0.8,0.2-1.7,0.4-2.2,0.9
	c-0.8,0.7-1.6,0.4-2.3,0.3c-0.9-0.1-1.9,0.2-2.8,0.4c-0.2,0-0.3,0.4-0.6,0.6c-0.1,0.1-0.3,0.2-0.6,0.3c-0.2,0.1-0.6,0.1-0.8,0.2
	c-0.6,0.2-1,0.4-1.6,0.6c-0.6,0.2-1.1,0.3-1.7,0.4c-1,0.3-1.9,0.6-2.9,0.9c-0.8,0.2-1.7,0.1-2,1.2c0,0.1-0.3,0.2-0.4,0.3
	c-0.4,0.2-1,0.4-1.4,0.5c-0.6,0.2-1.2,0.4-0.9,1.2c0,0.1-0.1,0.3-0.2,0.4c-0.4,0.3-0.9,0.6-1.3,1c-1.3,1-2.8,1.9-4.1,3
	c-0.8,0.5-1.3,1.4-2,2c-0.2,0.2-0.6,0.4-0.8,0.5c-0.2,0.1-0.6,0.1-0.7,0.2c-0.7,0.6-1.3,1.4-2.3,1.6c-0.1,0-0.2,0.3-0.3,0.5
	c-0.9,2.2-2.2,4.3-4,6c-1.4,1.4-1.7,3.3-2.6,4.9c-0.3,0.6,0.1,1,0.9,0.9c1.6-0.2,2.7-1.3,4.2-1.3c0.1,0,0.3-0.1,0.4-0.2
	c1.3-1.2,2.8-2.1,4.4-2.8c0.7-0.2,1.2-0.7,2-1.1c1.1-0.4,2.2-1.3,3.5-1.2c0.6,0,1.2,0,1.3-0.9c0-0.1,0.3-0.3,0.6-0.4
	c0.7,0,1.3,0.1,1.9-0.1c0.7-0.2,1.2-0.7,2-0.5c0.4,0.1,0.9,0.1,1.3-0.3c0.1-0.1,0.4-0.2,0.7-0.2c1.4,0.1,2.7-0.5,4-0.9
	c0.8-0.2,1.6-0.2,2.3-0.1c0.4,0.1,0.8,0.1,1.2-0.1c0.4-0.2,1-0.3,1.4-0.1c0.4,0.2,0.9,0.1,1.3,0.1c0.6-0.1,1.1,0,1.7,0
	c0.1,0,0.3,0.1,0.3,0c0.6-0.7,1.2-0.2,1.9,0c0.3,0.1,0.7-0.1,1-0.1c0.4,0,1-0.1,1.3,0.1c1,0.6,2.1,0.2,3.1,0.4
	c0.6,0.1,1.2,0,1.8,0.1c0.4,0.1,0.8,0.3,1.3,0.1c0.4-0.2,0.8,0,0.6,0.5c-0.2,0.4,0,0.5,0.4,0.4c0.3-0.1,0.6-0.2,0.9-0.3
	c0.6-0.3,1.1-0.4,1.8-0.1c0.7,0.3,1.4,0.4,2.2,0.5c1,0.2,2,0.3,2.9,0.5c1.3,0.3,2.7,0.6,4.1,1c2.3,0.5,4.4,1.6,6.5,2.6
	c0.3,0.2,0.7,0.5,1,0.7c1.1,0.9,2.3,1.7,3.4,2.6c1.3,1,2.7,1.9,4,3c0.9,0.6,1.8,1.4,2.7,2.1c0.7,0.5,1.2,1.1,1.8,1.7
	c0.6,0.5,0.9,1.3,1.4,1.8c0.3,0.4,0.9,0.5,1.1,0.2c0.3-0.4,0.1-1.7-0.2-2.1c-1.3-1.6-2.7-3.2-4.1-4.8c-0.2-0.3-0.4-0.6-0.7-1
	c-1.3-1.2-2.7-2.4-4-3.5c-0.1-0.1-0.1-0.5-0.1-0.9c0.2,0.1,0.6,0.1,0.8,0.2c0.7,0.4,1.3,0.9,1.9,1.4c0.7,0.6,1.7,1,2,1.9
	c0,0.1,0.3,0.3,0.6,0.3c1.3,0.1,2.6,0.7,3.4,1.7c0.3,0.3,0.8,0.7,1.2,0.9c1.3,0.3,2.2,1.2,2.9,2.5c0.2,0.4,0.6,0.6,0.9,1
	c0.3,0.3,0.8,0.6,1.1,1.1c0.3,0.3,0.4,0.6,0.8,0.9c2.7,1.5,3.9,4.1,5.5,6.3c0.3,0.4,0.3,1,0.7,1.5c0.4,0.7,0.9,1.5,1.3,2.1
	c0.2,0.4,0.6,0.7,1,1.2s0.9,0.6,0.9,1.3c0,1.1,0.1,2.1-0.1,3.1c-0.2,1.1-0.2,2.1,0.1,3.2c0.1,0.2,0,0.6-0.2,0.7
	c-0.2,0.2-0.7,0.2-1,0.2c-0.3-0.1-0.6-0.3-0.9-0.5c-1.2-0.9-2.3-1.9-3.9-2.5c-1-0.3-2-0.9-3.1-1.3c-0.4-0.2-1-0.3-1.4-0.2
	c-0.9,0.1-1.9,0.3-2.8,0.6c-1.2,0.3-2.3,1.3-1,2.6c0.3,0.3,0.7,0.6,1.1,0.9c0.4,0.2,0.6,0.4,0.1,0.9c-1.2,1.3-1.3,2.8-1,4.3
	c0.1,0.4,0.2,1,0.1,1.4c-0.2,1.1-0.1,2,0,3.1c0,0.3,0,0.6-0.2,0.9c-0.6,1.3-0.4,1.9,0.8,2.2c2,0.6,3.5,2.6,5.9,1.9
	c0.2,0,0.3,0.1,0.6,0.1c0.3,0,0.8,0.1,1.1,0c0.7-0.2,1.2-0.1,1.9,0.1c0.2,0.1,0.4,0.2,0.7,0.2c1.8-0.1,3.7-0.2,5.3-1.2
	c1.4-0.9,3.2-1.1,4.7-2c0.1-0.1,0.4,0,0.6,0.1c0.1,0.1,0.1,0.4,0,0.6c0,0.1-0.2,0.2-0.3,0.3c-0.4,0.3-0.8,0.6-0.1,1
	c0.1,0,0.1,0.4,0,0.5c-0.4,0.3-1,0.6-1.6,0.9c-0.1,0.1-0.3,0-0.6,0c0.1-0.1,0.1-0.3,0.2-0.4c0.2-0.2,0.6-0.3,0.8-0.5
	c0.1-0.1,0.1-0.3,0.2-0.4c-0.2,0-0.3-0.1-0.6-0.1c-1.2,0.3-2.3,0.7-3.5,1.1c-0.3,0.1-0.7,0.2-1,0.3c-0.1,0.1-0.2,0.3-0.1,0.5
	c0,0.1,0.2,0.2,0.3,0.2c0.3,0,0.7-0.1,1-0.1c0.2,0,0.3,0.1,0.6,0.1c-0.1,0.2-0.2,0.4-0.3,0.5c-0.4,0.2-1,0.4-1.6,0.6
	c-0.2,0.1-0.4,0.5-0.4,0.9c0,0.4,0.4,0.5,0.8,0.4c0.8-0.2,1.6-0.4,2.2-0.7c0.4-0.2,1-0.3,1.4-0.2c0.1,0,0.1,0.3,0.1,0.3
	c-0.1,0.1-0.2,0.2-0.3,0.2c-1.7,0.6-3.4,1.3-5.1,1.8c-0.2,0.1-0.6,0.2-0.8,0.3c-0.1,0.1-0.2,0.3-0.2,0.3c0.1,0.1,0.2,0.3,0.4,0.3
	c0.2,0,0.4,0,0.6-0.1c0.6-0.1,1.1-0.2,1.8-0.3c0.4-0.1,0.9-0.1,1,0.3c0.1,0.5-0.4,0.6-0.7,0.7c-0.7,0.2-1.4,0.4-2.2,0.5
	c-0.6,0.1-1.2,0.2-1.1,0.7c0.1,0.6,0.8,0.6,1.2,0.5c0.4-0.1,0.9-0.2,1.3-0.2c0.4-0.1,0.8-0.1,1.2-0.1c0.9,0,1.7,0,2.3-0.5
	c0.7-0.4,1.6-0.4,2.3-0.2c0.6,0.1,0.6,0.4,0.1,0.6c-0.6,0.4-1.2,0.7-1.8,1.1c-0.3,0.2-0.6,0.4-0.2,0.7c0.1,0.1-0.1,0.4-0.2,0.5
	c-0.7,0.3-1.2,0.6-1.9,0.9c-0.2,0.1-0.6,0.2-0.8,0.2c-1.2-0.1-2.2,0.3-3.1,1c-0.2,0.1-0.3,0.4-0.4,0.5c0.2,0.1,0.4,0.3,0.7,0.3
	c0.8-0.1,1.6-0.3,2.3-0.4c0.9-0.2,1.9-0.4,2.8-0.5c0.3,0,0.9,0.3,1,0.5c0.2,0.3-0.3,1-0.8,1.1s-0.9,0.2-1.3,0.3
	c-1.1,0.2-2.2,0.6-3.3,0.6c-0.9,0-1.7,0.3-2.4,0.6c-0.2,0.1-0.3,0.4-0.6,0.6c0.2,0.1,0.6,0.3,0.8,0.3c0.7-0.1,1.3-0.2,2-0.3
	c1.4-0.2,3-0.5,4.4-0.7c0.2,0,0.7,0.1,0.7,0.2c0.1,0.2,0,0.6-0.2,0.7c-0.2,0.2-0.4,0.4-0.8,0.5c-0.9,0.3-1.8,0.6-2.7,0.9
	c-0.9,0.2-1.7,0.2-2.6,0.2c-0.8,0-1.6,0-2.2,0.1c-0.4,0-0.7,0.3-0.6,0.7c0.1,0.5,0.9,0.9,1.4,0.7c1.4-0.4,3-0.9,4.4-1.3
	c0.3-0.1,0.8,0,1.1,0c-0.3,0.2-0.6,0.5-0.9,0.6c-1.6,0.7-3.2,1.3-4.9,1.7c-0.4,0.1-1,0.2-0.9,0.9c0,0.4,0.6,0.6,1.3,0.5
	c0.6-0.1,1.1-0.3,1.6-0.4c0.3-0.1,0.7-0.3,1-0.3c0.2,0,0.4,0.1,0.7,0.1c-0.1,0.2-0.2,0.4-0.3,0.5c-1,0.4-2,0.9-3,1.2
	c-0.6,0.2-1.1,0.3-1.6,0.5c-0.6,0.2-0.7,0.6-0.3,0.9c0.8,0.7,0.9,0.9,0.7,1.8c0,0.1,0,0.1,0,0.2c-0.1,1.1-0.3,1.3-1.4,1.5
	c-0.8,0.1-1.6,0.3-2.2,0.5c-0.3,0.1-0.4,0.5-0.8,0.7c0.3,0.1,0.6,0.4,0.9,0.3c1.1-0.1,2.2-0.2,3.3-0.3c0.2,0,0.6-0.1,0.8-0.3
	c0.4-0.3,0.9-0.5,0.7-1.2c-0.1-0.4,0.1-0.5,0.6-0.5c0.6,0,1,0.1,1.6,0.1c0.4,0.1,0.8-0.1,0.8-0.6c0-0.3,0.2-0.7,0.4-0.9
	c1.1-0.4,1.8-1.4,2.2-2.4c0.1-0.2,0.4-0.4,0.6-0.4c0.2,0,0.4,0.3,0.6,0.5c0.1,0.3,0.1,0.6,0.2,0.9c0.8,0.9,0.2,1.7,0.1,2.7
	c0,0.1-0.3,0.2-0.6,0.1c-0.8-0.3-1.2-0.3-1.7,0.2s-0.9,1.1-1.6,1.3c-0.2,0.1-0.4,0.5-0.3,0.6c0.1,0.2,0.4,0.4,0.8,0.4
	c0.2,0,0.4-0.1,0.7-0.2c0.1,0,0.2-0.1,0.4-0.1c0,0.2,0.1,0.4,0,0.5c-0.2,0.4-0.6,0.7-0.8,1.1c-0.8,1.1-1.6,2.2-2.6,3.1
	c-0.7,0.5-1.3,1.1-1.8,1.7c-0.7,1-1.3,1.8-2.4,2.2c-0.1,0-0.2,0.1-0.3,0.2c-1.3,1.1-2.7,2.2-4.1,3.3c-0.8,0.6-1.7,1.1-2.1,1.9
	c-0.1,0.1-0.2,0.2-0.3,0.2c-0.4,0.2-1,0.4-1.4,0.7c-0.8,0.4-1.6,1-2.3,1.4c-0.9,0.5-1.9,1-2.9,1.4c-0.9,0.4-1.6,1.4-2.8,1.3
	c-0.9,0-1.7-0.1-2.4,0.5c-0.4,0.3-1,0.4-1.6,0.5c-0.8,0.3-1.6,0.6-2.4,0.9c-2.2,0.5-4.4,0.9-6.8,1.3c-1.2,0.2-2.3,0.3-3.5,0.5
	c-0.1,0-0.3-0.1-0.4-0.1c-0.6,0-1.1-0.1-1.7-0.1c-3,0.4-5.9,0.2-8.9,0.1c-1.6-0.1-3.1-0.3-4.8-0.4c-1.6-0.2-3.1-1.1-4.8-0.7
	c-0.1,0-0.1,0-0.2-0.1c-1.8-0.5-3.7-1.2-5.4-1.7c-1.2-0.4-2.3-0.7-3.4-1.3c-1.7-0.7-3.3-1.6-5-2.4c-0.9-0.4-1.8-1.1-2.8-1.4
	c-1.6-0.4-2.9-1.2-4.2-2c-0.3-0.2-0.6-0.6-0.9-1c0.4,0.1,1,0.1,1.3,0.3c1.1,1,2.4,1.5,3.8,1.8c0.8,0.2,1.6,0.4,2.3,0.9
	c1.4,0.9,3.2,1.2,4.8,1.7c0.6,0.2,1.1,0.4,1.7,0.5c0.9,0.2,1.9,0.4,2.8,0.6c0.3,0.1,0.7,0.3,1,0.3c3.5,0.4,7,1.1,10.6,1.2
	c0.9,0,1.8,0,2.7,0c1.9,0,3.8,0.1,5.5,0c2.2-0.2,4.4-0.1,6.5-0.9c0.3-0.1,0.7-0.1,1-0.2c1.7-0.2,3.3-0.4,4.9-0.6h0.1
	c1.1-0.7,2.4-0.6,3.5-1.2c1.6-0.7,3.3-1.1,5-1.6c0.2-0.1,0.4,0,0.7,0.1c-0.1,0.2-0.1,0.5-0.3,0.6c-1.2,1-2.6,1.7-4.1,2
	c-0.9,0.2-1.8,0.3-2.7,0.5c-1.7,0.4-3.3,1-5,1.4c-0.7,0.2-1.3,0.4-2.1,0.5c-1.7,0.2-3.3,0.3-5,0.4c-0.8,0.1-1.6-0.1-2.3,0
	c-2.6,0.4-5.2,0.6-7.8,0.4c-0.1,0-0.3,0-0.4,0c-0.2,0.1-0.3,0.2-0.6,0.3c0.1,0.2,0.2,0.4,0.4,0.5c0.3,0.1,0.7,0.2,1,0.2
	c0.8,0,1.7,0,2.4,0c0.4,0,0.9-0.1,1.2,0.1c0.9,0.4,1.8,0.3,2.7,0.2c1.4-0.1,2.8-0.1,4.2-0.3c1.7-0.2,3.3,0.1,4.9-0.5h0.1
	c1.8-0.3,3.7-0.5,5.3-1c2.1-0.5,4.1-1.5,6.2-2c0.2-0.1,0.4-0.2,0.7-0.3c1.7-0.7,3.2-1.5,4.9-2.2c1.1-0.5,2.2-1.1,3.2-1.7
	c1.7-1.1,3.2-2.2,4.8-3.4c0.7-0.5,1.3-1.1,2-1.6c1.1-0.9,2.3-1.6,3.3-2.6c1-0.9,2-1.8,2.9-2.8c0.1-0.1,0.1-0.4,0.2-0.5
	c-0.2,0-0.4-0.1-0.7-0.1c-0.3,0.1-0.7,0.3-1,0.4c-0.3,0.2-0.7,0.3-0.8-0.2c-0.1-0.5-0.4-0.5-0.9-0.3c-0.4,0.2-0.6,0.5-0.1,0.9
	c0.4,0.3,0.2,0.4-0.1,0.6c-1.1,0.6-2.1,1.3-3.2,1.9c-0.6,0.3-1.1,0.5-1.4,1c-0.9,0.9-1.8,1.5-3,1.7c-0.3,0.1-0.6,0.4-0.8,0.6
	s-0.3,0.4-0.6,0.6c-0.1,0.1-0.4,0.1-0.6,0.1c0-0.2,0-0.4,0.1-0.5c0.7-0.7,1.4-1.4,2.1-2.1c0.1-0.1,0.4-0.2,0.6-0.1
	c0.8,0.3,1-0.2,1.2-0.7c0.2-0.5,0.6-1.1,0.9-1.6c0.1-0.2,0.4-0.6,0.3-0.7c-0.2-0.2-0.6-0.4-0.9-0.4c-0.6,0-1.1,0.2-1.7,0.2
	c-1.8-0.2-3.2,0.9-4.9,0.9c-0.1,0-0.3,0.2-0.3,0.3c0,0.1,0.1,0.4,0.3,0.4c0.3,0.1,0.7,0.2,1,0.1c0.7,0,1.3-0.2,2-0.2
	c0.2,0,0.4,0.1,0.6,0.2c-0.1,0.1-0.2,0.3-0.3,0.4s-0.3,0.1-0.6,0.2c-0.4,0.2-0.4,0.4-0.3,0.9c0.3,0.9,0.2,0.9-0.7,1.1
	c-1.7,0.4-3.2,0.9-4.7,1.9c-1.2,1-2.8,1.8-4.4,2c-0.4,0-0.8,0.3-1.1,0.5c-0.4,0.3-0.9,0.6-1.4,0.9c-1.2,0.6-2.6,1.1-3.8,1.8
	c-0.8,0.5-1.9,0.9-2.8,0.7c-1.2-0.2-2.3,0-3.4,0.2c-2,0.3-3.9,1.1-5.9,1c-0.9,0-1.9,0-2.8,0.1c-2.2,0.4-4.4,0.2-6.8,0.2
	c-0.9,0-1.9-0.3-2.8-0.1c-1.6,0.2-3.1,0-4.5-0.2c-1.1-0.2-2.2-0.4-3.1-1c-1.6-0.9-3.2-1.3-4.8-1.7c-3-0.6-5.9-1.6-8.4-3.2
	c-0.4-0.3-1-0.5-1.6-0.7c-1.6-0.6-3-1.3-4.1-2.6c-0.2-0.2-0.4-0.3-0.7-0.4c-1.3-0.7-2.7-1.6-3.9-2.5c-0.9-0.5-1.7-1.2-2.4-1.8
	c-0.7-0.4-1.2-1-1.9-1.4c-0.3-0.3-0.8-0.6-1.1-0.7c-1.3-0.4-2.1-1.4-2.8-2.4c-0.2-0.3-0.4-0.6-0.7-1c-0.7-0.9-1.4-1.6-2.1-2.5
	c-1.4-1.9-2.8-3.9-4.2-5.9c-0.4-0.6-0.9-1.3-1.1-2c-0.2-0.6-0.6-1.3-1.2-1.7c-0.2-0.1-0.3-0.4-0.4-0.7c-0.2-0.5-0.4-1.1-0.6-1.6
	c-0.2-0.9-0.4-1.7-0.7-2.6c-0.1-0.4-0.2-1-0.4-1.4c-0.1-0.4-0.3-0.7-0.3-1.2c-0.2-0.9-0.2-1.7-0.4-2.6c-0.1-0.5-0.2-1.1-0.6-1.5
	c-0.1-0.2-0.7-0.3-1-0.4c0,0.2-0.1,0.5-0.1,0.7c0.1,1.7,0.2,3.4,1,5c0,0.1,0,0.2,0,0.3c0.1,1,0.2,1.9,0.4,2.8c0.2,1,0.7,1.9,1,2.9
	c0.2,0.5,0.4,1,0.6,1.5c0.3,1.2,0.7,2.2,1.3,3.3c0.6,0.7,1,1.6,1.4,2.4c0.1,0.2,0.3,0.5,0.6,0.7c1,1.4,2.1,2.7,3.1,4.1
	c1.8,2.1,3.4,4.4,5.3,6.5c0.4,0.5,1,1.1,1.7,1.5c1.6,1.2,3.2,2.2,4.7,3.6c2.2,2,4.9,3.5,7.3,5.2c0.7,0.4,1.2,1,2,1.3
	c1.6,0.6,3,1.4,4.3,2.4c0.1,0.1,0.3,0.1,0.6,0.2c1.3,0.3,2.7,0.6,3.4,1.8c0.2,0.2,0.7,0.3,1.1,0.4c1.1,0.3,2.2,0.3,3.1,0.9
	c1.1,0.6,2.4,0.7,3.5,1.3c0.6,0.3,1.2,0.4,1.9,0.5c1.1,0.2,2.2,0.2,3.4,0.4c2,0.3,4,0.7,6,1.1c2.4,0.3,4.9,0.6,7.3,0
	c0.6-0.1,1.1-0.2,1.7,0c1.1,0.4,2.1,0.2,3.1,0c1-0.2,2.1-0.3,3.2-0.2c1,0.1,2,0.1,3-0.1c0.6-0.1,1.1-0.3,1.8-0.3
	c2.1-0.1,4.1,0,6.1-1c0.1-0.1,0.3,0,0.4-0.1c1.7-0.2,3.3-0.4,5-0.6c0.3,0,0.7-0.2,0.8-0.4c0.6-1.3,1.9-1.7,3-2.2
	c1.2-0.6,2.6-1.1,3.5-2c0.1-0.1,0.6-0.2,0.8-0.2c0.7,0.3,0.9,0.1,1-0.5c0-0.1,0.2-0.2,0.3-0.4c0.1,0.1,0.2,0.2,0.2,0.3
	c0.1,0.7,0.6,0.5,1,0.3c0.1,0,0.2-0.2,0.2-0.2c2.6-1.5,4.7-3.5,6.9-5.5c0.2-0.1,0.1-0.5,0.2-0.7c-0.2,0-0.6-0.1-0.8,0
	c-0.2,0-0.4,0.2-0.7,0.3c-0.1,0-0.3-0.1-0.4-0.1c0-0.1,0-0.3,0.1-0.4c0.4-0.4,1-1,1.4-1.3c0.1-0.1,0.6-0.1,0.7,0
	c1,0.7,1,0.7,1.9-0.1c0.8-0.9,1.7-1.7,2.4-2.6c0.3-0.3,0.6-0.6,0.1-1c-0.1-0.1-0.6,0.1-0.8,0.2c-0.3,0.1-0.7,0.2-0.9,0.3
	c0.1-0.3,0.1-0.6,0.2-1c0-0.1,0.1-0.2,0.2-0.3c1.1-1.5,2.2-2.9,3.2-4.4c0.2-0.2,0.3-0.5,0.6-0.7c0.8-1.6,1.4-3.2,2.6-4.6
	c0.3-0.5,0.7-1.2,0.9-1.7c0.3-1.2,0.6-2.4,1.3-3.3c0.2-0.3,0.2-0.7,0.3-1.2c0.1-0.5,0-1.1,0.2-1.6c0.8-1.9,0.8-4.1,1.7-5.9
	c0-0.1,0-0.1,0-0.2c0.2-1.9,0.6-3.7,0.7-5.7c0.1-1.5,0.9-3.1,0.3-4.7c-0.1-0.2,0-0.4,0.1-0.5c0.4-1.5,0.2-3,0.2-4.4
	c0-1.5-0.1-3-0.3-4.5c-0.1-1.4-0.3-2.9-0.6-4.3c0-0.2,0.1-0.3,0.2-0.5c0.1,0.1,0.4,0.3,0.4,0.4c0.2,1.4,0.2,2.7,0.8,4
	c0,0.1,0,0.2,0,0.3c0.1,2.2,0.2,4.6,0.2,6.9c0,2.5-0.3,4.8-0.4,7.3c0,1.1-0.4,2.1,0.1,3.3c0.2,0.4,0,1.2-0.2,1.7
	c-0.3,1.2-1,2.4-1.2,3.6c-0.2,1-0.3,1.9-1,2.8c-0.3,0.4-0.7,1.1-0.7,1.6c0,1.4-0.7,2.6-0.9,3.7c-0.3,1.3-0.8,2.6-1.8,3.7
	c-0.6,0.6-0.9,1.5-1.2,2.4c-0.1,0.1,0,0.4,0.2,0.6c0.1,0.1,0.4,0.1,0.7,0.1c0.2-0.1,0.3-0.3,0.6-0.4c0.8-0.6,1.1-1.6,1.4-2.6
	c0.6-1.4,1.2-2.7,1.8-4c0.7-1.8,1.3-3.6,2-5.6c0.3-1,0.8-2,1.3-3c0.4-0.7,0.6-1.4,0.4-2.2c-0.1-0.7-0.1-1.6,0-2.4
	c0.2-1.4,0.1-2.9,0.6-4.3c0.3-1.2,0-2.5,0-3.6c0-1.3-0.1-2.6,0-3.9c0.1-2,0.2-4.2-0.4-6.1c0-0.1,0-0.3,0-0.4
	c-0.1-0.5-0.1-1.2-0.2-1.7c-0.1-1-0.3-1.9-0.4-2.9c-0.1-0.9-0.2-1.8-0.6-2.7c-0.9-2.6-1.8-5-2.7-7.6c-0.3-0.9-0.8-1.7-1.2-2.6
	c-0.3-0.6-0.8-1.3-1.1-2c-1.1-2.2-2-4.6-3.4-6.6c-1.8-2.5-3.4-5-5.5-7.2c-0.8-0.7-1.7-1.5-2.2-2.4c-1-1.4-2.4-2.2-3.8-3.3
	c-0.2-0.2-0.6-0.3-0.8-0.4c-0.7-0.4-1.4-0.7-2-1.2s-1.1-0.6-1.8-0.5c-0.3,0-0.6,0.2-0.9,0.3c0.2,0.3,0.3,0.7,0.6,0.7
	c1.6,0.5,2.7,1.7,3.9,2.7c1.7,1.4,3.2,2.9,4.9,4.4c0.6,0.5,1.3,1.1,1.8,1.6c1.2,1.4,2.3,2.9,3.5,4.3c0.8,1,1.8,1.7,1.9,3
	c0,0.3,0.2,0.5,0.4,0.9c0.7,1,1.3,2,2,3c0.6,0.9,0.9,1.7,1.3,2.6c0.2,0.4,0.4,0.9,0.6,1.4c0.3,1.2,0.6,2.4,1.1,3.5
	c0.8,1.5,1.2,3.1,1.3,4.7c0,0.3-0.1,0.5-0.1,0.9c-0.1-0.2-0.4-0.4-0.4-0.6c-0.4-2.8-1.6-5.4-2.8-7.8c-1-2-1.7-4.3-3.3-5.9
	c-0.4-0.4-0.6-1.1-1-1.6c-1.1-1.4-2.2-2.7-3.2-4c-0.7-0.7-1.2-1.6-1.9-2.4c-0.8-0.9-1.8-1.6-2.6-2.4c-0.8-0.7-1.6-1.5-2.3-2.1
	c-0.8-0.6-1.4-1.5-2.3-1.9c-1.1-0.6-2.2-1.2-3.1-2.1c-1.1-1.1-2.6-1.7-3.9-2.6c-0.1-0.1-0.3-0.2-0.6-0.2c-0.6-0.2-1.1-0.5-1.7-0.7
	c-1.3-0.6-2.7-1.4-4-2c-1.3-0.6-2.8-1.2-4-2c-0.7-0.4-1.1-1.3-2.1-0.7c-0.1,0-0.2,0-0.3-0.1c-1-0.3-2-0.6-2.9-1.1
	c-0.4-0.2-0.8-0.4-1.1-0.9c-0.3-0.4-0.7-0.6-1.2-0.4c-0.1,0-0.2,0.1-0.3,0c-0.2-0.1-0.3-0.2-0.6-0.3c0.1-0.1,0.2-0.3,0.4-0.4
	c0.3-0.1,0.7-0.1,1.1,0c0.7,0.2,1.4,0.1,2.1,0.3c1.2,0.4,2.6,1,3.8,1.5c2,1,4,1.9,6,2.7c0.6,0.2,1.1,0.3,1.7,0.3
	c0.2,0,0.4-0.2,0.7-0.4c0-0.1-0.1-0.4-0.3-0.5c-1.2-0.6-2.3-1.5-3.7-1.9c-1.2-0.5-2.6-0.7-3.9-1.1c-0.4-0.1-1-0.2-1.3-0.4
	c-1.6-0.9-3.2-1.5-5.1-1.8c-0.4-0.1-0.9-0.2-1.2-0.5c-0.7-0.5-1.2-1-2.1-0.5c-0.1,0.1-0.4,0-0.7,0c-1.9-0.3-3.9-0.9-5.8-1
	c-1.8-0.1-3.4-0.2-5.2-0.2c-1.6,0-3,0-4.5,0c-1.8,0-3.4,0-5.2,0.1c-1.2,0.1-2.6,0.2-3.8,0.3c-1.2,0.1-2.4,0.2-3.7,0.3
	c-0.8,0.1-1.7,0.2-2.4,0.3c-0.2,0-0.6-0.2-0.8-0.3c0.2-0.1,0.3-0.3,0.6-0.4c0.1-0.1,0.3-0.1,0.4-0.1c1.3-0.3,2.7-0.5,4-0.9
	c1.7-0.3,3.4-0.6,5.2-0.7c1.4-0.1,2.9,0,4.4,0c0.9,0,1.8,0,2.6-0.1c0.2,0,0.6-0.1,0.8-0.2c0.4-0.2,0.8-0.4,0.2-0.9
	c-0.3-0.2-0.1-0.4,0.2-0.5c0.1,0,0.3,0,0.4-0.1c0.2-0.1,0.3-0.3,0.6-0.4c-0.2-0.2-0.4-0.5-0.7-0.5c-0.7-0.1-1.2,0-1.9-0.1
	c-0.2,0-0.6-0.1-0.8-0.2c0.2-0.1,0.6-0.2,0.8-0.3c0.2,0,0.4,0,0.6,0c1.4,0.2,3-0.6,4.4-0.1c0.1,0.1,0.3-0.1,0.6-0.1
	c1.2,0,2.4-0.2,3.5,0c2.6,0.5,5.1,0.6,7.7,0.6c0.7,0,1.3,0.1,2,0.3c0.4,0.2,1,0.3,1.6,0.4c0.7,0.1,1.3,0,2,0.1
	c0.8,0.1,1.4,0.3,2.1,0.5c0.3,0.1,0.4,0.5,0.7,0.7c-0.3,0.2-0.6,0.4-0.9,0.4c-0.3,0.1-0.7,0-1.1-0.1c-1.7-0.3-3.2-0.6-4.9-1
	c-1.1-0.2-2.2-0.3-3.3-0.4c-1.2-0.1-2.4-0.3-3.7-0.4c-0.6-0.1-1-0.1-1.6,0c-0.2,0-0.4,0.3-0.6,0.4c0.1,0.1,0.3,0.3,0.4,0.4
	c0.9,0.2,1.7,0.4,2.6,0.4c1.9,0.1,3.7,0.4,5.5,0.7c1.2,0.1,2.4,0.2,3.7,0.4c1.7,0.4,3.2,1,4.9,1.5c0.6,0.2,1.1,0.5,1.8,0.5
	c0.6,0,1.1,0.3,1.7,0.5c0.7,0.3,1.3,0.6,2,1c1.1,0.4,2.2,0.7,3.2,1.3c2.3,1.1,4.3,2.8,7,3.3c0.2,0,0.3,0.2,0.4,0.3
	c1.6,1.2,3.1,2.2,4.9,3.1c0.2,0.1,0.3,0.3,0.6,0.4c1.1,1.1,2.2,2.2,3.7,3.1c1.1,0.7,2.3,1.4,3.1,2.5s1.6,2,2.4,3
	c1.8,1.9,3.8,3.7,5,6.1c0.1,0.1,0.1,0.2,0.2,0.3c1,0.9,1.8,2,2.2,3.2c0.2,0.6,0.4,1.2,0.8,1.8c0.2,0.5,0.6,1.1,1,1.6
	c0.1,0.1,0.6,0.3,0.7,0.2c0.1-0.1,0.2-0.4,0.2-0.6c0-0.3-0.2-0.7-0.3-1.1c-0.8-1.5-1.6-3-2.4-4.5c-0.4-0.7-0.8-1.4-1.3-2
	c-1-1.3-2.2-2.6-2.9-4.1c-0.2-0.5-0.7-1.1-1.1-1.6c-0.6-0.7-1.4-1.3-1.6-2.2c0-0.1-0.2-0.2-0.3-0.3c-2.4-1.9-4.8-3.7-7.2-5.7
	c-0.2-0.1-0.2-0.4-0.4-0.6c0.3,0,0.7-0.2,0.9-0.1c1.4,0.7,2.9,1.5,4,2.7c0.1,0.2,0.3,0.3,0.6,0.4c1.4,0.5,2.3,1.8,3.7,2.6
	c1.3,2,3.4,3.2,4.7,5.4c1.1,1.8,2.6,3.4,3.4,5.4c0.4,1.1,1.3,1.9,1.7,3c0.7,2.4,1.9,4.4,3.4,6.3c1.3,1.6,2,3.5,2.6,5.4
	c0.4,1.4,0.6,2.9,1,4.3c0.3,1.2,0.8,2.5,1.1,3.6c0.1,0.5,0.2,1.2,0,1.7c-0.3,0.9-0.2,1.8,0.1,2.6c0.6,1.4,0.7,2.9,1.1,4.3
	c0.6,2.2,0.4,4.6,0.6,6.9c0,0.7-0.1,1.4-0.2,2.1c0,0.2,0,0.5,0,0.7c0.1,1.2,0.8,2.5,0,3.6c-0.1,0.1,0,0.2,0,0.3
	c-0.3,2.7-0.6,5.4-0.9,8c-0.1,0.9-0.2,1.6-0.4,2.5c-0.2,1.1-0.7,2.1-1,3.2c-0.2,0.9-0.4,1.8-0.7,2.7c-0.1,0.5,0.1,1,0.7,1.2
	c0.3,0.1,0.7,0.1,0.8-0.3c0.3-1,0.6-1.8,0.8-2.8c0.1-0.3,0-0.6,0.2-0.9c0.8-1.3,0.8-2.8,0.9-4.1c0.2-1.6,0.8-3.1,0.7-4.8
	c-0.1-1.8,0.1-3.6,0.3-5.5c0.1-1.2,0.4-2.5,0.8-3.5c0.2-0.6,0.3-1.3,0.2-2c-0.3-2.1-0.7-4.4-0.8-6.5c0-1.7-0.2-3.2-0.7-4.8
	c-0.1-0.4-0.2-0.9-0.2-1.4c-0.1-1.4-0.2-2.9-0.4-4.3c-0.4-2.2-0.9-4.6-1.9-6.7c-0.1-0.2-0.1-0.3-0.1-0.5c-0.3-1.6-1.1-3.1-1.9-4.6
	c-0.9-1.7-1.9-3.3-2.9-5c-0.9-1.5-1.8-2.9-2.7-4.3c-0.3-0.5-0.8-1.1-1.1-1.6c-0.8-1.2-1.4-2.5-2.3-3.6c-1.1-1.4-2.3-2.8-3.7-4.2
	c-1.1-1.2-2.2-2.6-3.9-3.2c-0.7-0.3-1.2-0.7-1.6-1.4c-0.6-1-1.4-1.6-2.2-2.4c-0.6-0.4-1.1-0.9-1.6-1.4c-0.2-0.2-0.7-0.3-0.3-0.9
	c0.2,0.1,0.4,0.3,0.7,0.4c0,0,0.1,0,0.1,0.1c1.6,1,3,2.1,4,3.6c0.2,0.3,0.6,0.4,0.8,0.6c0.7,0.4,1.4,0.7,2.1,1.3
	c2.1,1.7,3.8,3.7,5.4,5.8c0.8,0.9,1.6,1.7,2,2.8c0.3,0.7,0.8,1.6,1.4,2c0.8,0.6,1,1.4,1.4,2.1c0.6,1,0.8,2.1,2,2.7
	c0.2,0.1,0.3,0.5,0.3,0.6c-0.2,1.1,0.4,1.6,1.1,2.2c0.6,0.4,1.1,1.1,1.2,1.6c0.6,1.6,1.1,3.2,2.1,4.6c0.1,0.1,0,0.4,0.1,0.6
	c0.1,0.4,0.3,1,0.6,1.4c0.1,0.1,0.4,0.1,0.7,0.2c0-0.2,0.1-0.4,0-0.6c-0.2-0.5-0.6-1-0.7-1.5c-0.7-1.9-1.3-3.9-2.1-5.8
	c-0.1-0.3-0.3-0.6-0.6-0.9c-0.8-0.9-1.1-1.9-1.1-3.1c0-0.4,0-0.6-0.3-0.9c-0.6-0.2-0.7-0.6-0.7-1.1l0.1-0.1c0.3,0.2,0.8,0.4,1.1,0.7
	c0.1,0,0.1,0.1,0.1,0.2c0.4,0.7,0.8,1.4,1.2,2.1c0.1,0.3,0.2,0.6,0.1,1c-0.2,0.7-0.2,0.7,0.6,0.6c0.7-0.1,0.9,0.2,1.1,0.7
	c0.6,1.2,1.3,2.2,1.4,3.6c0,0.1,0.1,0.2,0.2,0.3c1,1,0.7,2.6,1.9,3.5v0.1c0.1,1.2,0.1,2.2,0.2,3.4c0.2,1.8,0.2,3.6,1,5.2
	c0.1,0.2,0.3,0.3,0.6,0.5c0.1-0.2,0.2-0.4,0.3-0.5s0.1-0.2,0.2-0.3c0.1,0.1,0.2,0.2,0.3,0.3c0.1,0.2,0.2,0.4,0.2,0.6
	c0.1,1.3,0.9,2.5,0.2,3.7c0,0.1,0,0.2,0,0.2c0.8,1.1,0.4,2.2,0.7,3.3c0.3,1.9,0.6,3.7,1,5.7c0.3,1.5,0.2,2.9,0.1,4.4
	c-0.1,1.6-0.2,3.2-0.3,4.8c-0.1,1.2-0.2,2.5-0.3,3.6c-0.1,0.6-0.2,1.2-0.1,1.8c0.1,0.5,0.1,1.1-0.2,1.5c-0.1,0.1-0.1,0.3-0.2,0.5
	c-0.1,0.4-0.3,1,0.4,1.2c0.7,0.1,0.7-0.4,0.8-0.7c0.1-0.5,0-1.1,0.2-1.5c0.8-1.3,0.6-2.7,0.8-4c0.3-1.9,0.2-3.9,0.3-5.9
	c0.1-1.7,0.2-3.3,0.4-5c0.1-1.3,0-2.6-0.2-3.9c-0.2-1-0.4-1.9,0.2-2.8c0.3-0.4,0.2-0.7,0-1.2c-0.4-1.1-1-2.2-1.2-3.4
	c-0.2-1.4-0.4-2.9-0.7-4.3c0-0.3-0.1-0.6-0.2-0.9c-0.4-1.2-1-2.4-1.4-3.4c-0.3-0.6-0.2-1.6-1.1-2c-0.1,0-0.2-0.4-0.1-0.5
	c0.4-0.6,0-1.1-0.4-1.5c-0.1-0.1-0.3-0.3-0.3-0.5c-0.1-0.9-0.6-1.7-0.3-2.5c0.2-1-0.3-1.2-0.9-1.5c-0.3-0.2-0.7-0.3-0.8-0.9
	c-0.1-0.9-0.4-1.7-0.7-2.6c0-0.2,0-0.3,0-0.5c0.2,0.1,0.4,0.1,0.6,0.2c1.2,1.2,1.8,2.8,2.3,4.3c0.6,1.4,0.8,2.9,1.6,4.3
	c0.9,1.8,1.9,3.5,2.3,5.6c0.2,0.9,0.7,1.7,0.8,2.6c0.3,1.5,0.4,3,0.7,4.5c0.1,0.6,0.1,1.4,0.3,2c0.9,2.5,0.7,5,1.1,7.5
	c0,0.1,0,0.2,0,0.3c-0.7,1.7-0.6,3.4-0.7,5.2c-0.1,1.8,0,3.6-0.1,5.5c-0.1,1.4-0.8,2.8-0.6,4.3c0,0.2-0.2,0.4-0.2,0.6
	c-0.6,1.8-1.2,3.6-1.4,5.5c-0.2,1.9-0.8,3.9-1.3,5.7c-0.2,1.1-0.4,2.1-0.8,3.2c0,0.2-0.1,0.4-0.2,0.6c-0.6,1-1,1.9-1.6,2.8
	c-0.6,1-0.6,2.1-1.4,3c-0.1,0.1-0.1,0.2-0.1,0.3c0,1.2-0.9,1.9-1.2,3c0,0.1-0.2,0.3-0.4,0.4c-1.2,1-2.1,2.1-2.6,3.5
	c-0.6,1.8-1.8,3.1-2.9,4.5c-0.6,0.6-1.1,1.3-1.4,2c-1,2-2.4,3.5-4.5,4.6c-0.2,0.1-0.4,0.3-0.7,0.5c-1.2,1.1-2.3,2-3.5,3.1
	c-0.6,0.5-1.1,1-1.7,1.5c-0.7,0.6-1.3,1.2-2,1.7c-1.4,1.1-3,2-4.3,3.2c-0.8,0.6-1.6,1.1-2.3,1.5c-0.4,0.2-0.9,0.3-1.2,0.5
	c-1.6,1.2-3.4,1.6-5.4,2c-0.9,0.2-1.8,0.3-2.7,0.6c-2.1,0.7-4.2,1.6-6.3,2.4c-0.7,0.2-1.3,0.5-2.2,0.4c-0.2-0.1-0.7,0-0.9,0.1
	c-1,0.5-2,0.9-3.1,1c-2.3,0.2-4.5,0.3-6.8,1.1c-0.4,0.1-1,0.1-1.4,0c-0.6-0.1-1-0.2-1.4,0.3c-0.1,0.1-0.6,0-0.8,0
	c-1.7-0.3-3.2-0.6-4.9-0.4c-0.6,0.1-1.1,0.1-1.7,0.1c-1.4,0-2.9-0.1-4.3,0c-2.4,0.2-4.8-0.2-7-0.7c-1-0.2-2-0.3-3-0.5
	c-0.4-0.1-0.9-0.2-1.3-0.3c-1.1-0.3-2.2-0.7-3.4-1c-1.4-0.3-2.9-0.6-4.2-1.1c-2.7-0.9-5.1-2-7.9-2.5c-0.3,0-0.6-0.3-0.8-0.4
	c-0.3-0.2-0.7-0.4-1-0.6c-1.3-0.6-2.7-1.3-3.9-1.9c-1.3-0.6-2.8-1.2-3.8-2.1c-2.4-2.1-5.8-3.3-7.9-5.8l-0.1-0.1
	c-1.2-0.5-2-1.7-2.9-2.6c-1.2-1.2-2.3-2.6-3.5-3.9c-1.1-1.2-2.3-2.5-3.4-3.6c-0.4-0.5-0.9-1.2-1.3-1.7c-0.1-0.1-0.1-0.4,0-0.5
	c0.7-0.6,0.7-0.7-0.1-1c-1.6-0.4-2.2-1.5-2.9-2.7c-0.8-1.4-1.6-2.9-2.4-4.2c-1.1-1.8-2.4-3.5-3.5-5.5c-1-1.6-1.8-3.4-2.6-5.1
	c-0.3-0.6-0.7-1.3-1-1.9c-0.7-1.3-1.3-2.6-1.9-3.9c-0.1-0.2-0.2-0.6-0.1-0.9c0.3-0.7,0-1.5-0.2-2.2c-0.2-1.3-1-2.5-0.4-3.7
	c0-0.1,0-0.2,0-0.3c0.1-1.7-0.6-3.3-0.3-5c0.1-0.9-0.2-1.7-0.1-2.5c0.1-1.3,0.3-2.5,0.6-3.7h-0.1c0-0.9-0.1-1.8,0-2.7
	c0.3-1.7,0.6-3.4,1.6-4.9c0.1-0.2,0.3-0.3,0.6-0.5c0.1,0.2,0.4,0.4,0.4,0.5c0.1,1.5,0.1,3.1,0.1,4.6c0,0.7,0,1.6,0.8,2
	c0.6,0.3,0.9,0.7,1,1.3c0.3,0.7,0.7,1.6,0.9,2.4c0.7,2.1,1.8,4.2,2.8,6.2c0.8,1.6,1.2,3.4,2.7,4.7c0.1,0.1,0.1,0.4,0.2,0.6
	c0.7,1.2,1.1,2.5,2.1,3.6c0.9,1,1.6,2,2.7,2.8c0.2,0.1,0.2,0.5,0.4,0.6c0.9,1.2,1.7,2.4,2.7,3.3c1.2,1.1,1.9,2.6,3.5,3.2
	c0,0,0,0.1,0.1,0.1c0.9,1.2,2,2.1,3.2,2.8c0.6,0.3,1.1,0.7,1.7,1.1c1.1,0.7,2.1,1.6,3.3,2.1c1.1,0.5,2.2,1.1,3.2,1.7
	c0.7,0.4,1.4,0.6,2,1.2c0.6,0.5,1.2,0.7,2,0.9c0.3,0.1,0.7,0.2,1,0.2c1.6,0.4,3,1.1,4.5,1.3c2.9,0.5,5.7,1.6,8.6,1.3
	c0.1,0,0.2,0,0.3,0.1c1.4,0.2,2.9,0.5,4.3,0.7c3.3,0.4,6.7,0,10,0c0.4,0,0.9-0.2,1.3-0.2c1.2-0.2,2.3-0.4,3.5-0.5
	c0.6,0,1.1,0.1,1.6,0.4c0.4,0.4,0,0.9-0.2,1.3c-0.3,0.5-0.1,1.2,0.3,1.5c0.4,0.3,1.2,0.2,1.6-0.1c0.4-0.4,0.2-1-0.1-1.4
	c-0.3-0.4-0.6-0.9-0.9-1.4c-0.3-0.4-0.1-0.6,0.3-0.7c1-0.2,1.9-0.5,2.9-0.7c0.9-0.1,1.7-0.3,2.2-1c0.1-0.1,0.4-0.3,0.7-0.3
	c0.9,0,1.9,0,2.8,0c0.1,0,0.4,0.2,0.4,0.3c0,0.1-0.2,0.3-0.3,0.4c-0.4,0.3-0.9,0.5-1.3,0.7s-0.9,0.4-1.2,0.5
	c-1.1,0.1-2.1,0.6-3.1,1.1c-0.7,0.3-1,1.2-0.7,1.6c0.3,0.5,0.8,0.6,1.7,0.3c1-0.3,1.9-0.6,2.9-1.1c0.1,0,0.1,0,0.2-0.1
	c1.3-1,3.1-1.2,4.7-1.6c1-0.3,2-0.9,3-1.3c0.2-0.1,0.4-0.4,0.4-0.6c-0.1-0.2-0.3-0.5-0.7-0.6c-0.7-0.1-1.4-0.3-2.1-0.3
	c-0.8,0-1.4,0.1-1.8-0.7c-0.1-0.2-0.4-0.4-0.7-0.6c-2.3-1.5-2.9-3.6-2.3-6.1c0-0.2,0.2-0.4,0.3-0.5c0.9-0.5,1.9-1,2.9-1.4
	c1.3-0.4,2.7-0.9,4.1-0.6c0.6,0.1,0.9-0.2,1.1-0.7c0.1-0.3,0.1-0.6,0.2-0.9c0.4-1.6,2.3-2.1,3.7-1.1c0.4,0.4,1,0.7,1.6,1.1
	c0.6,0.2,1-0.1,0.9-0.7c-0.1-0.3-0.2-0.7-0.3-1.1c-0.3-1-0.8-1.6-2-1.6c-1.3,0-2.6-0.3-3.3-1.4c-0.4-0.6-0.9-1.2-1.2-1.8
	s0-1.5,0.7-1.7c0.9-0.3,2-0.5,2.9,0c0.8,0.5,1.6,1.1,2.1,1.8c0.6,0.7,1.2,1.2,2.2,1c0.3,0,0.8,0.1,0.9,0.3c0.3,0.4,0.7,1,0.7,1.4
	c0,1.1,0.4,2.1,0,3.2c-0.2,0.5,0.2,0.9,0.7,1.1c0.4,0.1,0.9,0.2,1.2-0.2c0.3-0.4,0-0.7-0.2-1.2c-0.1-0.2-0.2-0.4-0.2-0.7
	c0.1-0.6,0.2-1.2,0.3-1.8c0.1-1.5,0.2-3,0.2-4.5c0-1.2-0.9-1.6-2-1.1c-0.3,0.2-0.6,0.2-0.9-0.1c-0.2-0.2-0.4-0.3-0.8-0.4
	c-1.3-0.3-2.3-1.1-3.3-1.9c-0.6-0.4-1.3-0.7-2-1c-0.3-0.1-0.7,0.1-1,0.1c0.2,0.3,0.3,0.6,0.6,0.9c0.1,0.1,0.2,0.2,0.3,0.3
	c0.1,0.1,0.1,0.2,0.2,0.4c-0.1,0.1-0.3,0.2-0.4,0.2c-0.6-0.1-1.2-0.2-1.7-0.4c-0.6-0.3-0.7-1.1-0.1-1.5c0.6-0.4,0.8-1.1,1-1.6
	c0.1-0.5,0.4-0.9,1-0.9c1.2,0,2.4,0,3.5,0.7c0.7,0.5,1.7,0.6,2.1,0.1c0.9-1.1,1.6-0.9,2.6-0.3c0.4,0.3,1-0.1,0.8-0.5
	c-0.4-1.2,0.1-2.2,0.6-3.2s-0.1-3.1-1.1-3.9c-0.6-0.4-1.4-0.2-1.7,0.4c-0.1,0.2-0.1,0.4-0.1,0.6S122,98.9,122,99
	c-0.2-0.1-0.4-0.2-0.6-0.3c-0.2-0.4-0.2-1-0.4-1.4c-0.1-0.2-0.6-0.4-0.8-0.5c-0.1,0-0.4,0.3-0.6,0.5c-0.1,0.2-0.1,0.5-0.3,0.7
	c-0.8,0.5-1.4,1-2.2,1.4c-0.1,0.1-0.2,0.2-0.3,0.3c0.1,0.1,0.2,0.2,0.3,0.2c1.2,0.2,2.4,0.3,3.7,0.5c0.2,0,0.4,0.4,0.7,0.6
	c0,0-0.3,0.4-0.6,0.4c-0.7,0.2-1.4,0.4-2.2,0.5c-0.4,0.1-1,0-1.3-0.2c-1.2-0.7-2.3-1.5-3.8-1.7c-1.1-0.2-2.1-0.3-3.1,0
	c-0.7,0.2-1.2,0.1-1.7-0.5c-0.6-0.9-1.2-1.6-1.7-2.6c-0.2-0.4-0.3-1.1-0.2-1.5c0.3-1.2,1-2.4,1.9-3.2c1.2-1.2,2.6-2.4,3-4.1
	c0-0.1,0.2-0.2,0.3-0.3c0.7-0.6,1.2-1.4,1.9-2c1-1.1,2.1-2.1,3.1-3.3c1.7-1.8,2.1-3.9,1.1-6.1c-0.1-0.3-0.3-0.7-0.3-1.1
	c-0.2-1.2-0.3-2.5-0.9-3.5c-0.2-0.4-0.1-0.7,0.2-1.2c1.3-1.5,1.9-3.4,2.3-5.4c0.2-0.9,0.2-1.7,0.2-2.5c0-0.6-0.4-1.2-0.2-1.9
	c0-0.1-0.3-0.5-0.6-0.6c-0.2,0-0.7,0.3-0.7,0.4c0.1,0.7-0.3,1.3-0.6,1.9c-0.6,1.3-1,2.7-1.6,4c0,0.1-0.1,0.2-0.2,0.3
	c-0.6,0.2-0.3,0.6-0.3,1.1c0,0.3-0.1,0.7-0.2,1.1c-0.1,0.3-0.3,0.6-0.2,0.9c0.3,1-0.1,1.9-0.1,2.9c0,1.6,0.3,3.3,0.7,4.9
	c0.1,0.6,0.2,1.2-0.2,1.8c-0.4,0.6-0.8,1.4-1.1,2c-0.3,0.5-0.4,1.2-0.9,1.6c-0.6,0.5-1.3,1-1.2,1.9c0,0.1-0.1,0.1-0.2,0.2
	c-0.3,0.3-0.8,0.6-1,1.1c-2.1,2.7-4.2,5.5-6.4,8c-0.7,0.7-0.9,1.5-0.6,2.2c0.4,1.2,0.9,2.4,1.4,3.4c0.9,1.5,2.3,2.1,4.1,1.7
	c0.6-0.1,1.1-0.2,1.7-0.4c0.7-0.2,1.3-0.1,1.8,0.4c0.4,0.7,1.1,1.5,0.7,2.5c-0.1,0.2-0.2,0.4-0.4,0.5c-1.1,0.5-1.3,1.5-1.2,2.6
	c0,0.4,0.1,0.9,0.2,1.3c0.1,0.5-0.1,0.9-0.6,1.2c-0.3,0.3-0.7,0.6-0.9,1.1c-0.4,0.9-0.9,1.7-0.4,2.8c0,0.1,0,0.3-0.1,0.4
	c-0.3,1.2-0.9,2.5-1,3.6c-0.1,1.3-0.9,1.8-2,2.1c-1.2,0.3-2.1,1.1-2.9,2.1c-0.3,0.4-0.7,0.7-1,1.1c-0.3,0.4-0.9,1-1,1.5
	c-0.3,1.4-1.2,2.8-0.6,4.4c0.1,0.3,0,0.9-0.6,0.6c-0.8-0.3-1.2,0.1-1.6,0.6c-0.3,0.4-0.7,0.4-1.1,0.5c-1.6,0.4-3.2,0.1-4.8,0.3
	c-1.6,0.2-3.1,0.5-4.7,0.9c-1.4,0.2-2.9,0.5-4.3,0.5c-1.9,0-3.8,0-5.7-0.3c-0.7-0.1-1.7-0.3-2.2,0.1c-1,0.6-1.3-0.7-2.1-0.4
	c-0.2,0.1-0.4,0.1-0.7,0.1c-1.3,0-2.6,0.1-3.9-0.3c-0.6-0.2-1.1-0.4-1.8-0.4c-2,0-3.8-0.5-5.5-1.4c-1.9-1-3.8-1.9-5.8-2.9
	c-1.1-0.5-2.3-0.9-3.1-1.9c-0.1-0.1-0.3-0.2-0.4-0.3c-1-0.5-2-1.2-3-1.6c-0.8-0.3-1.2-0.9-1.6-1.5c-0.3-0.7-0.9-1.3-1.7-1.6
	c-1.3-0.4-2.1-1.5-3-2.5c-0.8-0.7-1.4-1.7-2.2-2.6c-1.1-1.2-2.2-2.2-3-3.6c-0.8-1.3-1.7-2.6-2.4-4c-0.3-0.7-0.8-1.3-1.3-1.9
	c-0.7-0.7-2.1-1.3-1.4-2.8c0-0.1-0.1-0.3-0.2-0.4c-0.4-0.5-0.7-1.1-1.4-1.2c-0.7-0.1-0.7-0.5-0.4-1.1c0.1-0.2,0.1-0.6,0.1-1
	c-0.1-0.4-0.3-0.4-0.7-0.2c-0.6,0.4-0.7,0.4-0.8-0.2c-0.1-0.4-0.2-0.9-0.1-1.3c0.1-1-0.2-1.9-0.4-2.8c-0.2-0.9-1-1.6-0.7-2.7
	c0-0.2-0.1-0.4-0.3-0.6c-0.8-0.6-0.8-1.6-0.4-2.4c0.4-1.1,0-2,0.1-3.1c0-0.4-0.1-0.9-0.6-1.1c-0.2-0.1-0.4-0.5-0.4-0.9
	c0.1-1,0.1-1.9-0.8-2.8c-0.2-0.2-0.1-0.6-0.1-1s0.1-0.6,0.1-1c0-0.5-0.7-1.2-1.3-1.2c-0.3,0.1-0.9,0.4-1,0.7c-0.8,2-1.4,4.2-2.2,6.2
	c-0.1,0.3-0.2,0.7-0.3,1.1c-0.2,0.9-0.4,1.6-0.7,2.5c-0.2,1-0.6,1.8-0.8,2.8c-0.1,0.2-0.1,0.6,0.1,0.7c0.7,0.4,0.4,1.1,0.3,1.7
	c0,0.3-0.1,0.6-0.1,0.9c-0.2,1.6-0.4,3.2-0.6,4.9c0,1-0.8,1.9,0.1,2.8c0,0,0,0.2-0.1,0.3c-0.7,1-0.4,2-0.6,3c0,1-0.2,1.8,0.3,2.7
	c-0.6,1.2,0,2.5-0.1,3.6c0,0.5,0,1,0.4,1.5c0.4,0.5,0.7,1.2,0.8,1.8c0.4,1.9,1.1,3.9,1.7,5.8c0.1,0.2,0.1,0.4,0.3,0.6
	c0.6,0.5,0.7,1.1,0.2,1.8c-0.2,0.4-0.3,1.2,0.7,0.9c0.1,0,0.3,0.2,0.4,0.3c1,1.5,1.9,3.1,2.2,4.9c0,0.2,0.2,0.4,0.4,0.6
	c0.9,1.3,1.9,2.5,2.6,3.9c0.6,1.1,1.1,2,1.9,2.9c0.2,0.2,0.3,0.5,0.6,0.7c1.2,1.5,2.4,3.1,3.7,4.6c0.7,0.9,1.4,1.5,2.2,2.2
	c0.7,0.7,1.2,1.5,2,2c1.9,1.6,3.8,3.2,5.7,4.8c0.4,0.3,1,0.5,1.4,1c1.9,1.9,3.9,3.4,6.3,4.6c0.3,0.2,0.7,0.5,0.8,1
	c0.2,0.4,0.2,0.4,0.7,0.2c0.4-0.2,1.1-0.2,1.2,0.4s0.6,0.7,1.1,0.9c1.1,0.2,2.1,1,3.3,1c0.1,0,0.2,0.1,0.2,0.2
	c0.6,0.4,1.1,0.7,1.7,1.2c1.4,1,3.1,1.6,4.5,2.8c0.2,0.2,0.6,0.3,0.9,0.4c0.8,0.2,1.6,0.4,2.3,0.6c1.1,0.3,2.1,0.6,3.2,1
	c0.4,0.1,0.9,0,1.2,0.1c1.7,0.6,3.2,1.2,5,1.3c0.1,0,0.3,0,0.4,0.1c0.4,0.4,1,0.3,1.6,0.1c0.9-0.2,1.8-0.2,2.6,0.2
	c1.6,0.9,3.2,1.1,4.9,1c0.8,0,1.6,0.1,2.3,0.1c1.2,0.1,2.4,0.5,3.7,0c0.1-0.1,0.4,0.1,0.7,0.1c0.2,0.1,0.3,0.2,0.6,0.2
	c0.7-0.1,1.4-0.1,2.1-0.3c1-0.3,2-0.3,2.9,0.1c0.3,0.1,0.7,0.2,1,0.1c1-0.3,1.9,0.1,2.8,0.4c1,0.3,1,0.4,1.7-0.5
	c0.6-0.9,0.8-0.9,1.8-0.4c0.2,0.1,0.3,0.1,0.6,0.1c1,0,2.1,0,3.1-0.1c0.4,0,1-0.5,1.4-0.5c1.6,0.1,3-0.7,4.5-0.4
	c0.1,0,0.1,0,0.2-0.1c0.6-0.5,1.3-0.3,1.9-0.3c1,0.1,2.4-0.6,3-1.5c0.1-0.1,0.2-0.3,0.3-0.2c0.9,0.3,1.4-0.3,2.2-0.5
	c0.4-0.1,1-0.3,1.4-0.3c0.8,0,1.3-0.1,2-0.4c2.3-1.2,5-1.5,7-3.3c0,0,0.1-0.1,0.2-0.1c1.3-0.2,2.3-1,3.3-1.8
	c0.3-0.3,0.9-0.5,1.2-0.9c0.6-0.3,1.1-0.6,1.6-1.1c0.7-0.7,1.4-1.2,2.4-1.5c0.4-0.1,0.9-0.4,1.3-0.7c0.3-0.3,0.7-0.7,1-1.1
	c0.6-0.5,1.1-1.2,1.7-1.7c0.3-0.4,0.7-0.9,1.1-1.2c1.1-1.1,2.6-1.9,3.1-3.4c0-0.1,0.2-0.2,0.3-0.3c1-1.1,2.4-1.9,3-3.4
	c0,0,0-0.1,0.1-0.1c1.7-1.8,3.4-3.7,5.1-5.6c0.6-0.6,1.1-1.4,1-2.4c0-0.1,0-0.3,0.1-0.4c0.4-0.6,0.9-1.4,1.3-2
	c0.1-0.1,0.4-0.3,0.4-0.3c0.8,0.7,1.2-0.2,1.7-0.4c0.4-0.2,0.7-0.7,0.9-1.2c0.1-0.1-0.3-0.4-0.4-0.7c-0.1-0.2-0.1-0.5,0-0.7
	c0.1-0.4,0.3-0.7,0.6-1.1c0.1-0.2,0.3-0.5,0.6-0.6c0.4-0.2,0.8-0.3,0.6-0.9c0-0.1,0.1-0.3,0.3-0.4c0.6-0.2,0.4-0.6,0.4-1.1
	c0-1,0.3-1.9,1.2-2.5c0.8-0.4,1.2-1,1.4-1.6c0.9-2.6,1.9-5.2,2.4-7.9c0.4-2.2,1-4.6,0.2-7c0-0.1,0.1-0.3,0.1-0.5
	c0.2-0.7,0.3-1.6,0.6-2.4c0.2-0.7,0.1-1.5,0.8-2C177.1,103,177,102.6,176.5,101.7z M141.1,97.7c-0.7,0.3-1.4,0.6-2.1,1
	c-0.1,0-0.2,0-0.3-0.1c0-0.1,0-0.3,0-0.3c0.8-0.3,1.6-0.6,2.3-1c0.1,0,0.2,0.1,0.3,0.2C141.2,97.4,141.2,97.5,141.1,97.7z
	 M113.6,136.3c0.4-0.3,0.9-0.5,1.4-0.7c0.2-0.1,0.4-0.1,0.7-0.1c0.2-0.1,0.6-0.1,0.8-0.2c-0.1,0.2-0.1,0.6-0.2,0.7
	c-0.7,0.5-1.4,1-2.2,1.4c-0.2-0.2-0.6-0.3-0.6-0.4C113.4,136.7,113.5,136.4,113.6,136.3z M132.3,88.9c-0.7,0.2-1.4,0.4-1.2,1.4
	c0,0.1-0.4,0.4-0.7,0.4c-0.9-0.1-1.8-0.1-2.6-0.4c-1.2-0.5-1.3-1.3-0.3-2.1c0.4-0.4,0.9-0.7,0.7-1.6c0-0.1,0.1-0.3,0.2-0.5
	c0.2,0.1,0.4,0.2,0.6,0.3c0.9,0.5,1.9,1.1,2.8,1.6c0.2,0.1,0.4,0.2,0.7,0.3C132.9,88.4,132.9,88.8,132.3,88.9z M137.2,86.1
	c-0.9,0.2-1.1,0.1-1.6-0.6c-0.1-0.2-0.2-0.4-0.3-0.4c-0.7-0.2-1.1-0.6-1.3-1.3c-0.1-0.2-0.6-0.3-0.8-0.2c-0.6,0.1-1,0.3-1.6,0.4
	c-0.1,0-0.2,0.3-0.1,0.4c0.6,0.6,1.1,1.2,1.7,1.7c0.2,0.2,0.6,0.5,0.8,0.9c0,0-0.1,0.2-0.2,0.2c-0.3-0.1-0.8-0.2-1-0.4
	c-0.8-0.6-1.6-1.5-2.3-2.1c-0.3-0.2-0.7-0.5-1-0.5c-1.4-0.1-2.6-0.9-3.8-1.3c-0.2,0-0.3-0.2-0.6-0.3c-0.7-0.4-0.9-1.1-0.6-1.4
	c0.2-0.3,1.3-0.3,1.8,0c0.2,0.1,0.3,0.3,0.4,0.5c0.6,0.9,1.3,1.3,2.3,1.4c0.3,0.1,0.7,0.3,0.9,0.4c0.2,0.1,0.4,0.3,0.7,0.3
	c0.3,0.1,0.7-0.1,0.4-0.5c-0.1-0.2-0.3-0.5-0.6-0.5c-0.9-0.3-1.2-1-1.6-1.7c-0.2-0.5-0.7-0.9-1.3-0.5c-0.2,0.1-0.7,0-0.7-0.1
	c-0.1-0.4-0.2-0.9-0.1-1.2c0-0.1,0.4-0.1,0.7-0.2c0.1,0,0.1,0,0.3,0.1c1.3-0.5,2.2,0.4,3.3,1c2.1,1.1,3.8,2.8,5.7,4.1
	c0.3,0.2,0.6,0.5,0.8,0.9C138.2,85.6,138.2,85.8,137.2,86.1z M137.8,78.1c-0.2,0.3-0.1,1-0.2,1.3c-0.1,0.3-0.4,0.7-0.8,0.9
	c-0.2,0.1-0.7-0.2-1-0.4c-0.1-0.1-0.2-0.3-0.1-0.5c0.2-0.5,0.6-1.2,0.9-1.7c0.1-0.3,0.3-0.5,0.4-0.9c0.1-1.2,0.1-2.2,0.2-3.4
	c0-0.2-0.1-0.4-0.1-0.5c0.1-0.2,0.2-0.4,0.4-0.5c0.3-0.1,0.7,0.1,0.7,0.4c0.1,0.6,0.2,1.3,0.2,1.9c0,0.2,0,0.5-0.1,0.7
	C138.3,76.2,138.4,77.2,137.8,78.1z M143.2,81.8c0.1,0.1,0.2,0.3,0.2,0.5c0,0.7,0.4,1.4,0.7,2c0.3,0.7,0.6,1.4,1.2,1.9
	c0.3,0.2,0.3,0.5,0.1,0.9c-0.2,0.3-0.3,0.7-0.2,1.2c0.2,1.5,0.4,3,0.7,4.5c0.2,1.1,0.3,2.1,0,3.3c-0.1,0.2,0,0.5,0.1,0.7
	c0.3,0.6,0.2,1.3,0.1,2c-0.2,1.2-0.4,2.4-0.7,3.4c0,0.2-0.1,0.4,0,0.6c0.6,1.7,0.2,3.2-0.9,4.7c-0.2,0.2-0.3,0.5-0.4,0.9
	c-0.3,1-0.6,1.9-0.8,3c0,0.1-0.2,0.2-0.3,0.3c0-0.1-0.1-0.2-0.1-0.4c0-0.3-0.1-0.7-0.1-1.1c0-0.1,0-0.3,0-0.4c0.6-1.3,1-2.5,1.6-3.7
	c0.1-0.2,0.1-0.6,0-0.9c-0.2-1-0.1-1.9,0.1-2.9c0.3-1.5,0.4-3,0.6-4.6c0-0.2,0-0.5-0.1-0.6c-0.6-1.1-0.4-2.4-0.6-3.5
	c-0.1-1.1-0.1-2.1-0.2-3.2c-0.1-0.9-0.1-1.8-0.3-2.7c-0.1-0.5-0.2-1.1-0.4-1.5c0-0.1-0.4-0.2-0.7-0.1c-0.3,0-0.7,0.2-1,0.2
	c-0.2,0-0.6-0.2-0.7-0.4c-0.1-0.1,0.2-0.4,0.3-0.6h0.1c1.3-0.7,1.4-1.4,0.6-2.7c-0.3-0.5-0.7-1-0.6-1.6c0-0.3-0.1-0.6-0.2-0.9
	c-0.1-0.5-0.3-0.7-1-0.4c-0.7,0.3-0.7,0.3-0.8-0.3c0-0.5,0-1,0-1.5l0,0c0-0.5,0-1.1,0-1.6c0-0.2,0.2-0.4,0.3-0.6
	c0.2,0.1,0.4,0.2,0.7,0.4c0.1,0.1,0.2,0.4,0.1,0.5c-0.2,1,0.3,1.5,0.9,2.1c0.3,0.4,0.6,0.7,0.7,1.3
	C142.5,80.7,142.5,81.5,143.2,81.8z M103.2,37.7c0.1,0,0.3,0,0.4,0v-0.1c0.9,0.2,1.8,0.3,2.7,0.6c1.7,0.5,3.4,1.1,5.1,1.7
	c1,0.4,1.9,1.1,2.8,1.7c0.4,0.2,0.9,0.5,1.3,0.7c1.4,0.9,2.9,1.7,4.3,2.7c2.9,1.8,5.5,4,8.1,6.2c2,1.8,4.1,3.7,5.7,6.1
	c0.4,0.7,1.1,1.3,1.6,2c1.6,2.1,2.7,4.5,4.1,6.7c1.4,2.2,2.2,4.7,2.6,7.2c0.1,0.4,0.2,0.9,0.3,1.3c0,0.2-0.1,0.4-0.1,0.6
	c-0.2-0.1-0.6-0.1-0.7-0.3c-0.7-1.2-1.2-2.4-1.8-3.6c-0.3-0.7-0.3-1.6-0.6-2.4c-0.6-1.3-1.1-2.7-1.8-3.9c-1-1.6-2.1-3.1-2.9-4.9
	c-0.6-1.3-1.7-2.4-2.6-3.4s-1.8-2-2.7-3.1c-1.3-1.6-2.9-3-4.8-4.1c-0.8-0.5-1.6-1.2-2.2-1.8c-1.1-1.1-2.4-1.6-3.7-2.4
	c-1.2-0.6-2.4-1.5-3.4-2.4c-0.9-0.7-1.9-1.1-2.9-1.4c-1.1-0.3-2.1-1.1-3.4-0.9c-0.2,0-0.6-0.2-0.9-0.3c-0.7-0.2-1.4-0.3-2-0.5
	c-1-0.3-1.9-0.7-2.8-1.3c-0.2-0.1-0.3-0.4-0.6-0.7C102.6,37.9,102.9,37.8,103.2,37.7z M105.8,41.1c2.6,1,5.2,1.8,7.5,3.2
	c1.7,1,3.2,1.9,4.9,2.8c1.8,0.9,3.4,2,4.9,3.2c1.4,1.2,3,2.4,4,4.1c0.7,1.3,1.9,2.2,2.9,3.3c2,2.4,4.2,4.5,5.3,7.4
	c0.6,1.4,1.2,2.6,2.2,3.7c0.2,0.3,0.3,0.5,0,0.7c-0.3,0.2-0.8,0.3-1.1,0.5c0,0-0.2-0.3-0.3-0.5c-0.2-0.4-0.3-0.9-0.6-1.3
	c-0.9-1.7-2-3.3-2.6-5.4c-0.2-0.9-1.1-1.5-1.8-2.2c-1-1.1-2.1-2-2.9-3.3c-0.6-0.9-1.4-1.6-2.3-2.4c-1.4-1.2-3-2.2-4.1-3.7
	c-0.3-0.4-0.9-0.7-1.4-1c-1-0.6-2-1.2-3.1-1.7c-1.2-0.6-2.4-1.1-3.7-1.6c-0.2-0.1-0.6-0.2-0.8-0.3c-1.4-1.4-3.1-2.2-5.1-2.9
	c-1.1-0.3-2.2-0.6-3.4-1c-0.1,0-0.2,0-0.2,0c-1.7-1-3.7-1-5.4-1.5c-1.2-0.3-2.3-1-3.5-1.3c-1.6-0.4-3.2-0.6-4.9-1
	c-1.6-0.3-3.1-0.5-4.7-0.9c-0.2,0-0.3-0.3-0.4-0.4c0.1-0.1,0.3-0.3,0.4-0.4c1.2-0.1,2.4-0.2,3.7-0.3c1.6,0.2,3,0.2,4.4,0.5
	c1.7,0.3,3.3,0.9,5,1.3C101.3,39.6,103.6,40.3,105.8,41.1z M73.2,32.2c0.3-0.2,0.8-0.5,1.2-0.6c0.6-0.1,1.2-0.1,1.8-0.2l0,0
	c2.2-0.1,4.4-0.3,6.7-0.4c1.8-0.1,3.4-0.2,5.2-0.1c1.8,0.1,3.7,0.3,5.4,0.5c0.4,0.1,0.9,0.3,1.4,0.5c1.3,0.3,2.8,0.6,4.1,1
	c0.2,0.1,0.4,0.3,0.6,0.4c-0.2,0.1-0.4,0.2-0.8,0.2c-1-0.1-2-0.1-3-0.4c-1.9-0.6-3.9-0.5-5.8-1c-0.1,0-0.1,0-0.2,0
	c-1.8,0.5-3.5-0.1-5.4,0c-1.4,0.1-2.9,0.2-4.2,0.1c-1.2-0.1-2.4,0.2-3.7,0c-0.7-0.1-1.3,0.3-2.1,0.4c-0.4,0.1-0.9,0-1.3,0
	C73.2,32.7,73.1,32.2,73.2,32.2z M70.3,32.3c0.2-0.1,0.6-0.1,0.8-0.1l0,0c0.1,0,0.2-0.1,0.3,0c0.2,0.1,0.4,0.2,0.6,0.2
	c-0.1,0.1-0.3,0.3-0.6,0.4c-1.4,0.5-2.9,0.7-4.3,1c-0.6,0.1-1.1,0.2-1.8,0.3c-0.1,0-0.2-0.1-0.4-0.1c0.1-0.1,0.1-0.3,0.3-0.4
	c0.3-0.1,0.8-0.2,1.1-0.3C67.8,33,69,32.7,70.3,32.3z M77.4,26.6c-0.2,0.2-0.4,0.4-0.7,0.6c-0.3,0.3-0.7,0.1-0.8-0.2
	c-0.1-0.2,0-0.5,0.2-0.6c0.3-0.2,0.7-0.2,1-0.4c0.1,0.1,0.3,0.2,0.4,0.3C77.7,26.2,77.5,26.4,77.4,26.6z M88.9,22.6
	c-0.2,0-0.6-0.3-0.8-0.5c0.3-0.1,0.6-0.3,0.9-0.4c0.2,0,0.6,0.1,0.8,0.1c0,0.1,0,0.2,0,0.3C89.4,22.3,89.1,22.6,88.9,22.6z
	 M126.6,35.4c-2.1-1-4.2-1.9-6.3-2.9c-0.6-0.3-1.2-0.6-1.8-0.9c-1.6-0.7-3.2-1.1-4.8-1.6c-0.9-0.3-1.9-0.4-2.8-0.9
	c-0.3-0.1-0.4-0.4-0.8-0.6c0.3-0.1,0.7-0.3,1-0.4c0.1,0,0.2,0,0.3,0.1c1.9,0.3,3.7,0.6,5.2,1.8c0.8,0.5,1.8,0.7,2.8,1.1
	c0.1,0,0.2,0,0.2,0c1.7,1,3.7,1.1,5.2,2.4c0.4,0.3,1.1,0.5,1.6,0.7c0.2,0.1,0.7,0.2,0.8,0.5c0.1,0.2,0.1,0.6,0.1,1
	C127.1,35.5,126.8,35.5,126.6,35.4z M130,33c0-0.1,0.4-0.2,0.4-0.1c0.4,0.2,0.8,0.5,1.3,1c-0.4,0.2-0.7,0.3-0.9,0.3
	c-0.1,0-0.2-0.2-0.3-0.3C130.3,33.7,129.9,33.5,130,33z M133.2,39c-0.1,0.1-0.3,0.1-0.6,0.1c-0.7-0.3-1.3-0.6-2-1
	c-0.4-0.2-0.9-0.4-1.3-0.5c-0.1-0.1-0.3-0.1-0.4-0.1c-0.3-0.2-1-0.4-0.8-1c0.1-0.6,0.7-0.5,1.1-0.5c0.1,0,0.1,0,0.2,0
	c0.6,0,1,0,1.2,0.6c0.1,0.4,0.8,0.6,1.2,0.9c0.7,0.3,1.1,0.6,1.3,1.4C133.2,38.7,133.3,39,133.2,39z M144,57.8
	c0.2,0,0.4,0.1,0.7,0.1c-0.1-0.2-0.1-0.5-0.2-0.7c-0.4-1.1-1-1.9-2-2.7c-0.6-0.3-1-1-1.3-1.6c-1-1.8-2.7-3.1-4.2-4.5
	c-1.4-1.4-3.1-2.6-5-3.5c-0.2-0.1-0.4-0.3-0.6-0.5c-0.2-0.2-0.3-0.4-0.6-0.6c-1.8-1.5-3.7-2.7-5.7-3.6c-1-0.4-2-0.6-2.8-1.5
	c-0.1-0.2-0.4-0.2-0.8-0.3c-1.9-0.9-3.8-1.6-5.4-2.9c-0.6-0.4-1.4-0.5-2.2-0.9c-0.2-0.1-0.3-0.2-0.6-0.3c0.2-0.2,0.6-0.5,0.8-0.5
	c0.6,0.1,1.1,0.2,1.6,0.5c0.6,0.4,1.1,0.7,1.9,0.9c1.6,0.1,2.7,1.2,4.1,1.8c1,0.4,1.8,1.3,2.9,1.4c0.1,0,0.2,0.1,0.3,0.1
	c0.8,1.1,2.1,1.3,3.2,1.9c1.6,1.1,3.1,2.1,4.5,3.2c0.9,0.6,1.7,1.5,2.6,2.1c0.8,0.5,1.6,1.3,2.7,1.3c0.2,0,0.7,0.2,0.8,0.4
	c1,1.2,1.9,2.5,2.8,3.7c0.6,0.6,1,1.4,1.7,1.9c1.3,1.2,1.9,2.9,2.9,4.3c0.6,0.9,1.1,1.8,1.7,2.8c0.1,0.2,0.4,0.4,0.6,0.7
	c0.2,0.4,0.6,0.9,0.6,1.2c-0.1,1.1,0.6,1.7,1,2.5c0.2,0.3,0.2,0.9,0.3,1.3c0.1,0.5,0.2,1.1,0.4,1.5c0.7,1.5,1.4,3,2.2,4.4
	c0.1,0.3,0.1,0.7,0.2,1.2c0.3,1.9,0.7,3.7,1.1,5.7c0,0.2,0.1,0.5,0.2,0.6c0.9,0.7,0.6,1.7,0.7,2.7c0,0.9,0.1,1.7,0.2,2.6
	c0,0.1,0.1,0.2,0,0.2c-0.8,1.2,0.1,2.5,0.1,3.6c0,1.3,0.2,2.6,0.3,3.7c0,0.2,0.1,0.4,0,0.5c-0.6,2.4,0,4.8-0.4,7.2
	c-0.4,2.6-0.2,5.2-0.7,7.8c-0.1,0.9-0.7,1.6-0.3,2.5c0,0.1-0.1,0.3-0.2,0.3c-0.2,0-0.6,0-0.7-0.1c-0.2-0.3-0.4-0.7-0.6-1.2
	c-0.1-0.3,0-0.6,0-0.7c0.3-2.5,0.7-4.6,0.9-6.9c0.2-1.6,0.2-3.3,0.2-4.9c0-0.6,0-1.3,0.1-1.8c0.2-1.4,0.1-2.8-0.2-4.1
	c-0.1-0.3,0-0.6-0.1-1c-0.1-0.7-0.1-1.5-0.2-2.2c-0.1-1.1-0.3-2.1-0.6-3.2c-0.2-1.8-0.4-3.7-0.8-5.6c-0.2-1-0.2-1.9-0.3-2.8
	c-0.1-1.2-0.6-2.4-1-3.4c-0.6-1.3-1-2.7-1.9-3.9c-0.6-0.7-0.9-1.7-1.1-2.7c-0.4-1.4-1.3-2.5-2.1-3.6c-0.3-0.5-0.7-1-0.9-1.5
	c-0.3-0.7-0.6-1.6-1.3-2.1c-0.1-0.1-0.2-0.3-0.2-0.5C143.2,57.9,143.3,57.7,144,57.8z M158.4,81.7L158.4,81.7
	c0.2,2.1,0.6,4.3,0.9,6.4c0.1,1.3,0.1,2.7,0.1,4c0,0.4,0,0.9-0.6,0.9c-0.4,0-0.8-0.3-0.8-0.9c-0.1-1.1-0.2-2.2-0.4-3.3
	c-0.4-2.1-0.9-4.4-1.3-6.5c-0.2-1-0.8-1.9-1.1-2.9c-0.1-0.3-0.1-0.6-0.1-1c0.3-1.4,0.3-2.7-0.2-4c-0.4-1.2-0.8-2.4-1.1-3.6
	c0-0.1-0.1-0.1-0.1-0.2c0.2-1.8-1-3.1-1.8-4.6c-0.3-0.6-0.4-1.5-0.6-2.1c0-0.1,0.2-0.3,0.3-0.4c0.2,0,0.7,0,0.8,0.1
	c0.3,0.5,0.7,1.1,0.9,1.6c0.6,1.4,0.9,3,1.6,4.3c1.1,2,1.7,4.3,2.2,6.5c0.3,1.5,0.8,2.9,1.1,4.4C158.5,80.7,158.4,81.2,158.4,81.7z
	 M165.7,85.1c0-0.3,0-0.6,0-1c0.1-0.2,0.2-0.5,0.4-0.7c0.1,0.2,0.3,0.3,0.4,0.5c0.1,0.2,0,0.5,0,0.7c0,0.5,0,1,0.7,1.2
	c0.2,0,0.4,0.3,0.4,0.5c0.2,1.4,0.4,2.9,0.7,4.3h-0.1c0,1.4,0.1,2.8,0.1,4.1c0,1.1-0.2,2.1-0.2,3.2c0,0.7,0,1.6,0,2.4
	c0,0.5-0.1,1.2-0.2,1.7c-0.4,1.6-0.4,3.3-1.1,4.9c-0.2,0.4-0.2,1-0.2,1.4c0.1,0.4,0,0.7-0.4,0.9c-0.3,0.1-0.8-0.3-0.8-0.9
	c0-0.1,0-0.1,0-0.2c0.4-2.4,0.4-4.8,1.1-7.2c0.2-1,0.2-1.9,0.2-3c0-1.3,0.3-2.6-0.2-4c-0.4-1.1-0.2-2.4-0.3-3.5c0-0.2,0-0.4-0.1-0.5
	c-0.7-1.1-0.6-2.4-0.7-3.5C165.4,86.2,165.6,85.7,165.7,85.1z M63.8,134.6c0.1,0.1,0.1,0.3,0.1,0.5c-0.2,0-0.3,0.1-0.6,0.1
	c-1.7-0.5-3.3-1.1-4.9-1.7c-1.3-0.6-2.6-1.6-4.1-2c-0.2-0.1-0.4-0.5-0.7-0.7c0-0.1,0.1-0.2,0.2-0.3c0.6,0.1,0.9,0.1,1.3,0.2
	c2.4,1,4.8,1.9,7.2,3C62.9,133.7,63.4,134.3,63.8,134.6z M134,74.2c0,0.2,0,0.3,0,0.4c0,0.3,0,0.7-0.4,0.9c-0.3,0-0.8-0.2-1-0.4
	c-0.2-0.3-0.3-0.7-0.3-1.2c-0.1-0.4-0.1-1-0.2-1.4c-0.2-0.7-0.2-0.7-1.1-0.4c-0.2,0.1-0.7,0-0.8-0.2c-0.3-0.4-0.7-1-0.9-1.5
	c-0.1-0.3,0-0.9,0.2-1.2c0.3-0.4,0.9-0.2,1.3,0c0.2,0.1,0.3,0.4,0.6,0.4c2.3,0.4,2.2,2.4,2.7,4C134,73.9,134,74.1,134,74.2z
	 M101.2,157.6c1.7-0.1,3.2-0.2,4.9-0.3c1.1-0.1,2.3-0.1,3.4-0.2c0.4,0,1-0.2,1.2,0.4c0.1,0.4-0.4,0.7-1.2,0.7
	c-0.8-0.4-1.7,0.1-2.4,0.2c-1,0.1-2,0.1-3,0.1c-0.7,0-1.2,0.1-1.9,0.2c-0.2,0-0.6,0.2-0.8,0.2c-0.4-0.1-1.1-0.1-1.1-0.6
	C100.2,157.6,100.7,157.6,101.2,157.6z M90.3,153.5c-0.1,0-0.4-0.3-0.3-0.5c0-0.1,0.3-0.4,0.6-0.4c1.1,0,2.2,0,3.3,0
	c1.1,0.1,2.1,0.2,3.1-0.2c0.9-0.4,1.9-0.2,2.8,0.2c0.2,0.1,0.3,0.3,0.3,0.5c0,0.1-0.2,0.3-0.4,0.3c-0.7,0.2-1.4,0.3-2.1,0.4v-0.1
	c-1.3-0.1-2.7-0.1-4-0.2c-0.3,0-0.7,0.1-1.1,0.1C91.7,153.8,91,153.7,90.3,153.5z M107.1,152.9c-0.9,0.1-1.9,0.2-2.8,0.3
	c-0.2,0-0.4-0.2-0.8-0.3c0.2-0.1,0.4-0.4,0.7-0.4c1.4,0.1,2.8-0.4,4.1-0.7c1.1-0.2,2.2-0.4,3.2-0.5c0.2,0,0.6,0.2,0.8,0.3
	c-0.2,0.2-0.3,0.6-0.6,0.7c-1.6,0.3-3.1,0.6-4.7,1C107.1,153,107.1,153,107.1,152.9z M73.9,136.6c0.3,0,0.7,0.2,0.9,0.3
	c0.3,0.2,0.4,0.6,0.8,1c-0.4,0.2-0.8,0.5-1.2,0.9c-1.1-0.7-2.4-0.3-3.3-1.3c-0.2-0.2-0.3-0.6-0.4-1c0.3-0.1,0.7-0.2,1-0.2
	C72.2,136.4,73,136.5,73.9,136.6z M145.2,131c-0.7-0.1-0.9-0.5-0.4-1.1c0.7-1,1.7-1.6,2.9-1.7c0.6,0,0.9,0.2,0.8,0.7
	c-0.1,1.1-1.4,2.1-2.7,2C145.5,131,145.3,131,145.2,131z M111.4,32.4c0.2,0.2,0.4,0.4,0.4,0.6c0,0.2-0.4,0.3-0.7,0.5
	c-1.2-0.4-2.3-0.7-3.3-1.2c-0.7-0.3-1.3-0.6-2.1-0.6c-0.3,0-0.7,0-0.9-0.2c-0.2-0.1-0.2-0.3-0.4-0.4c0.2-0.1,0.4-0.4,0.6-0.4
	c0.4,0,0.9,0.1,1.4,0.2c1.6,0.4,3,1,4.5,1.4C111,32.3,111.3,32.3,111.4,32.4z M157.8,111.9c-0.2-0.4-0.3-1-0.6-1.3
	c0.1-0.6,0.2-1.2,0.4-1.7c0.2-0.6,0.8-0.9,1.3-0.7c0.6,0.2,0.7,0.6,0.6,1.3c-0.1,0.5-0.2,1.1-0.3,1.6c-0.1,0.3-0.2,0.6-0.4,1
	C158.4,112.3,158,112.3,157.8,111.9z M124.2,124.4c1.4-0.4,2.9-0.6,4.3-1c0.1,0,0.3,0.1,0.6,0.1c-0.3,0.6-0.7,1.2-1,1.6
	c-0.3,0.3-0.7,0-1-0.2c-0.6-0.4-1.1,0-1.6,0.3c-0.3,0.3-0.7,0.6-1.2,0.5c-0.4-0.1-0.9-0.2-0.8-0.6
	C123.6,125,123.9,124.5,124.2,124.4z M94.6,28.4c0.3,0.2,1,0.2,0.8,0.7c-0.1,0.5-0.7,0.2-1,0.2c-1.4-0.2-2.9-0.3-4.3-0.4
	c-0.1,0-0.3,0-0.4,0c-0.4-0.1-1-0.1-0.9-0.6c0-0.2,0.7-0.3,1-0.5c0,0.1,0.1,0.1,0.1,0.2c1.4,0.1,3,0.3,4.4,0.4
	C94.4,28.3,94.5,28.3,94.6,28.4z M151.3,117c0.1-0.7,0.4-1.4,1.2-1.7c0.8-0.3,1.3,0.1,1.2,0.9c0,0.4-0.1,0.9-0.2,1.3
	c-0.2,0.7-0.8,1.2-1.3,1.1C151.6,118.3,151.3,117.7,151.3,117z M144,140.6c0.3,0.3,0.6,0.6,0.8,1.1c0.1,0.3,0.2,0.9,0,1
	c-0.2,0.2-0.8,0.4-1.1,0.3c-0.7-0.1-1.6-1.2-1.7-1.8c0-0.5,0.4-0.9,1.4-0.9C143.5,140.4,143.7,140.5,144,140.6z M151.5,123.8
	c0,0.6-0.9,1.5-1.4,1.5s-1.3-0.7-1.3-1.4c0-0.9,0.4-1.3,1.4-1.3C150.9,122.6,151.5,123,151.5,123.8z M79.4,137.4
	c0.2,0.1,0.6,0.3,0.6,0.5c0,0.3-0.2,0.7-0.4,0.9c-0.3,0.2-0.8,0.2-1.3,0.4c-0.6-0.2-1.1-0.4-1.7-0.6c-0.2-0.1-0.3-0.4-0.3-0.6
	c0-0.1,0.3-0.3,0.6-0.4C77.7,137.2,78.5,136.8,79.4,137.4z M159.6,95.5c0.2,1,0.2,2,0.3,3.1c0,0.5-0.3,0.7-0.8,0.4
	c-0.6-0.3-0.9-0.9-0.9-1.5s0-1.3,0.1-1.9c0-0.2,0.2-0.4,0.3-0.6C159,95.1,159.5,95.3,159.6,95.5z M94.6,137.5c0.2,0.5,0,1.3-0.6,1.5
	c-0.4,0.1-0.9,0.2-1.3,0.3c-0.3,0-0.7,0-0.8-0.1c-0.2-0.2-0.6-0.5-0.7-1c0-0.1,0.3-0.4,0.6-0.5c0.4-0.2,1-0.2,1.4-0.4
	C94,136.9,94.4,136.9,94.6,137.5z M123.7,41.2c0.1,0.1,0.1,0.3,0.1,0.5l-0.2,0.1c-0.7-0.2-1.4-0.4-2-0.7c-0.8-0.3-1.4-0.9-2.1-1.3
	c-0.1-0.1-0.2-0.4-0.2-0.5c0-0.1,0.3-0.2,0.4-0.2C121.1,39.5,122.6,39.9,123.7,41.2z M159.8,105.3c-0.2,0.1-0.6,0.2-0.9,0.1
	c-0.4-0.1-1.1-1.2-1.1-1.6c0.1-0.5,0.1-1.1,0.8-1.2c0.6-0.1,1,0.3,1.1,1.1c0.1,0.3,0.2,0.5,0.2,0.9C160,104.8,160,105.1,159.8,105.3
	z M143.4,134.7c0.3,0.4-0.1,0.6-0.6,0.9c-0.4,0.2-1,0.3-1.6,0.6c-0.2-0.2-0.7-0.4-0.8-0.6c-0.2-0.4,0.1-0.7,0.6-0.9
	c0.4-0.2,0.9-0.4,1.3-0.4C142.7,134.1,143.2,134.4,143.4,134.7z M134.9,141.8c-0.6,0-1.1-0.5-1.1-1c0-0.4,0.7-1.1,1.2-1.1
	c0.7,0,1.3,0.6,1.3,1.2C136.2,141.2,135.5,141.8,134.9,141.8z M134.4,102.9c0-0.5,0.3-0.6,0.8-0.5c0.1,0,0.2,0,0.3,0
	c1.1,0.5,2.3,0.2,3.4-0.1c0.1,0,0.3,0,0.4,0.1c-0.1,0.1-0.1,0.3-0.2,0.3c-0.9,0.4-1.9,0.7-3,0.6c-0.3,0-0.7,0.1-1,0.1
	C134.8,103.4,134.4,103.3,134.4,102.9z M85.1,138.4c0.2,0.1,0.3,0.4,0.4,0.6c-0.2,0.1-0.4,0.3-0.7,0.4c-0.3,0.1-0.8,0.1-1.2,0.1
	c-0.3,0-0.9,0-1.3-0.1c-0.2-0.1-0.3-0.4-0.4-0.6c0.2-0.1,0.4-0.2,0.7-0.2c0.6-0.1,1.1-0.1,1.7-0.1C84.4,138.3,84.8,138.3,85.1,138.4
	z M158,116.1c-0.3,0.6-0.6,1.2-1,1.5c-0.1,0.1-0.7,0.1-1-0.1c-0.1-0.1-0.2-0.5-0.1-0.7c0-0.3,0.2-0.7,0.3-1.1c0.2-0.4,0.7-0.4,1-0.3
	C157.6,115.6,157.8,115.9,158,116.1z M89.5,138.6c0,0.3-0.3,0.6-0.6,0.9c-0.1,0.1-0.4,0.1-0.7,0.1s-0.4,0-0.6-0.1
	c-0.2-0.1-0.6-0.3-0.6-0.5s0.3-0.4,0.6-0.6c0.2-0.1,0.6-0.2,0.9-0.2C89.1,137.8,89.5,138,89.5,138.6z M138.5,138.8
	c-0.4-0.1-1-0.2-1-0.7c0-0.5,0.4-1,1.1-1c0.6,0,1.1,0.4,1.1,0.9C139.6,138.3,139.1,138.8,138.5,138.8z M154.6,121.4
	c0.6,0.1,0.7,0.4,0.8,0.9c0,0.5-0.4,1.2-0.9,1.2c-0.4,0-0.9-0.4-0.9-1.1C153.6,121.9,154.2,121.3,154.6,121.4z M68.8,135.8
	c0.4,0,0.9,0.1,0.9,0.7c0,0.5-0.6,0.5-0.9,0.5c-0.2,0-0.6-0.1-0.8-0.1c-0.3,0-0.9,0-0.8-0.4c0-0.3,0.4-0.5,0.8-0.7
	c0.1-0.1,0.3,0,0.4,0c0,0,0,0,0,0.1C68.5,135.8,68.6,135.8,68.8,135.8z M125.2,152.3c-0.1-0.4,0.3-0.9,1-0.9c0.6,0,1.1,0.3,1.1,0.9
	c0,0.5-0.4,0.6-0.9,0.6C125.9,152.9,125.3,152.9,125.2,152.3z M98.4,29.3c0.2,0.1,0.3,0.4,0.4,0.6c-0.2,0.1-0.4,0.2-0.7,0.3
	c-0.4-0.2-1-0.3-1.3-0.5c-0.1-0.1-0.2-0.3-0.2-0.4c0-0.1,0.3-0.3,0.4-0.3C97.5,29.1,97.9,29.1,98.4,29.3z M126.6,67.9
	c0.1-0.2,0.3-0.5,0.6-0.5c0.4-0.1,1,0.4,1.1,1.1c-0.1,0.1-0.3,0.4-0.6,0.5C127.2,69,126.4,68.3,126.6,67.9z M128.5,146.4
	c-0.3-0.1-0.7-0.4-1-0.5c0.2-0.2,0.4-0.5,0.7-0.5c0.3,0,0.6,0.3,1,0.6C128.9,146,128.7,146.4,128.5,146.4z M132,123.6
	c-0.1,0-0.4-0.3-0.4-0.4c0.2-0.3,0.4-0.6,0.7-1c0.2,0.2,0.4,0.4,0.7,0.5C132.8,123.2,132.4,123.7,132,123.6z M100.7,153.1
	c0-0.2,0.3-0.4,0.7-0.6c0.4,0.3,0.7,0.5,1,0.7c-0.2,0.2-0.6,0.4-0.8,0.5C101.1,153.8,100.7,153.5,100.7,153.1z M80.6,152
	c0-0.1,0.3-0.5,0.4-0.5c0.4,0.1,0.8,0.4,1.4,0.7c-0.4,0.3-0.7,0.4-0.9,0.5C81.1,152.8,80.8,152.6,80.6,152z"/>
</svg>
