<?xml version="1.0" encoding="utf-8"?>
<!-- Generator: Adobe Illustrator 18.0.0, SVG Export Plug-In . SVG Version: 6.00 Build 0)  -->
<!DOCTYPE svg PUBLIC "-//W3C//DTD SVG 1.1//EN" "http://www.w3.org/Graphics/SVG/1.1/DTD/svg11.dtd">
<svg version="1.1" id="Layer_1" xmlns="http://www.w3.org/2000/svg" xmlns:xlink="http://www.w3.org/1999/xlink" x="0px" y="0px"
	 viewBox="0 0 200 200" enable-background="new 0 0 200 200" xml:space="preserve">
<path fill="#010101" d="M188.1,126.1c-0.2-0.4-2-2-2.4-2.2c-1.5-0.9-3.5-1.8-5.5-2.4l-0.4-0.2c-0.7-0.2-1.3-0.4-2-0.7
	c-0.4,0-0.7-0.2-1.1-0.4c-0.4-0.2-0.9-0.2-1.3-0.4c-0.4-0.2-0.9-0.2-1.5-0.4c-0.2-0.2-0.7-0.2-0.9-0.4c-1.3-0.4-2.4-0.9-3.7-1.1
	c0.4-0.4,1.1-1.1,1.8-1.5c1.3-1.3,2.8-2.6,4.2-4.2c0.2-0.4,0.7-0.7,0.9-0.9c0.4-0.4,1.1-1.1,1.5-1.8c0.2-0.4,0.4-0.9,0.4-1.3
	c0.2-0.9-0.2-1.8-0.4-2.6c0-0.2-0.2-0.4-0.2-0.7c-0.2-0.7-0.9-1.3-1.8-1.3l0,0c-0.7,0-1.3,0.2-2,0.2c-0.2,0-0.4,0-0.9,0
	c-1.1,0.2-2.2,0.7-3.1,1.5c-0.7,0.7-1.1,1.1-1.8,1.8l-1.1,1.1c-0.2,0.2-0.4,0.4-0.4,0.7c0,0,0,0-0.2,0.2c-0.2,0-0.2,0.2-0.4,0.4
	l-0.2,0.2c0,0.2-0.2,0.2-0.2,0.4c-0.9,0.9-1.3,2-1.5,3.1c-0.2,0.7-0.2,1.5-0.2,2.2v0.2c-0.2,0-0.4,0-0.7-0.2l-1.3-0.4
	c-0.7-0.2-1.3-0.4-2-0.4l-1.1-0.2c-0.9-0.2-1.5-0.4-2.2-0.4l-1.1-0.2c-0.7-0.2-1.3-0.2-2-0.4c-0.7-0.2-1.5-0.4-2.2-0.4
	c-0.4-0.2-1.1-0.2-1.5-0.4c-0.9-0.2-1.5-0.4-2.4-0.4c-0.7,0-1.1-0.2-1.8-0.2l0,0c-0.2,0-0.7-0.2-1.1,0h-0.2h-0.2
	c0-0.2-0.2-0.7-0.2-0.9c-0.4-1.3-0.7-2.4-1.1-3.3c-0.2-0.7-0.4-1.3-0.7-2c-0.2-0.9-0.4-1.5-0.7-2.4c0.4,0.2,0.9,0.4,1.1,0.7
	c0.9,0.4,1.8,0.4,2.8,0.4h0.2c1.3,0,2.6-0.4,3.9-1.5c0.2-0.2,0.4-0.4,0.4-0.7c0,0,0-0.2,0.2-0.2c0.9-0.9,1.1-2.2,0.9-3.7
	c0-0.2-0.2-0.4-0.2-0.7c-0.2-0.4-0.4-0.9-0.7-1.1c0,0,0,0,0-0.2s-0.2-0.4-0.4-0.7c-0.4-0.4-0.9-0.9-1.5-1.5
	c-0.7-0.9-1.5-1.1-2.6-1.1c-0.9,0-2,0.2-2.8,0.2c-0.4,0-1.1,0.2-1.5,0.4c-0.4,0.4-0.9,0.9-1.3,1.1c-0.2,0.2-0.2,0.2-0.4,0.4
	c-0.2,0.2-0.2,0.2-0.2,0.4l0,0l-0.2,0.2c0,0.2-0.2,0.2-0.2,0.4c0,0,0,0.2-0.2,0.2c-0.4,0.7-1.3,0.9-2.2,0.9
	c-1.5,0.2-2.8,0.4-4.4,0.4h-1.8c-0.9,0-1.8,0-2.6,0.2c-1.3,0-2.6,0-3.9,0.2c-0.7,0-1.3,0-2,0h-0.9c-0.2,0-0.4,0-0.4,0
	c-0.2,0-0.4,0-0.7,0c-0.2,0-0.4,0-0.7,0h-1.5h-0.2c-0.2,0-0.2,0-0.4,0c0-0.4-0.2-0.9-0.2-1.1l-0.4-1.5c-0.2-0.7-0.2-1.1-0.4-1.8
	c0.2,0,0.4-0.2,0.7-0.2l0.9-0.4c0.7-0.4,1.1-0.7,1.8-1.1l0.2-0.2c0.9-0.4,1.8-0.9,2.6-1.5l0.4-0.2c0.2-0.2,0.7-0.4,0.9-0.4
	c0.4-0.2,1.1-0.4,1.5-0.7c0.2-0.2,0.4-0.2,0.7-0.4c0.7-0.2,1.1-0.7,1.8-0.9c0.4-0.2,0.7-0.4,1.1-0.7c0.4-0.2,0.7-0.4,1.1-0.4
	c0.4-0.2,0.7-0.4,1.1-0.4c0.7-0.4,1.5-0.9,2.2-1.3c0.2-0.2,0.7-0.2,0.9-0.4c0.4-0.2,0.9-0.4,1.3-0.7c0.2,0,0.4,0.2,0.7,0.2
	c0.4,0.2,0.9,0.4,1.3,0.7c0.2,0,0.4,0.2,0.4,0.2c0.4,0.2,1.1,0.4,1.5,0.7c0.7,0.2,1.3,0.2,1.8,0c0.4-0.2,0.9-0.4,1.1-0.7
	c0.2-0.2,0.4-0.4,0.7-0.7c0.2-0.2,0.4-0.4,0.9-0.7c0.4-0.2,0.7-0.7,0.9-0.9c0.2-0.2,0.4-0.4,0.7-0.7c0.2-0.2,0.2-0.4,0.2-0.4
	c0-0.2,0.2-0.2,0.2-0.4c0.2-0.4,0.4-0.7,0.7-1.1c0.4-0.9,0.7-1.8,1.1-2.6c0.2-0.2,0-0.7,0-0.9c0-0.2-0.2-0.4-0.7-0.4
	c-0.2,0-0.7-0.2-0.9-0.2s-0.4-0.2-0.7-0.2c-0.4-0.2-0.9-0.4-1.5-0.4c-0.9-0.2-1.8-0.7-2.6-0.9c-1.1-0.2-2,0-2.8,0.4
	c-0.2,0.2-0.4,0.2-0.4,0.4c-0.2,0.2-0.7,0.4-0.9,0.7c-0.2,0.2-0.4,0.4-0.7,0.7l-0.7,0.7c0,0,0,0-0.2,0.2c0-0.2-0.2-0.4,0-0.7
	c0-0.2,0-0.2,0-0.4c-0.2-0.7-0.4-1.1-0.4-1.8c0-0.4-0.2-0.7-0.2-1.1l-0.2-0.7c0.4,0.2,1.1,0.2,1.8,0c0.4-0.2,0.7-0.4,1.1-0.7
	c0.2-0.2,0.2-0.2,0.4-0.4c0.2-0.2,0.4-0.2,0.7-0.4c0.2-0.2,0.4-0.4,0.7-0.4l0.4-0.4c0.2-0.2,0.4-0.4,0.7-0.7c0,0,0,0,0.2-0.2
	c0.2-0.2,0.4-0.4,0.7-0.7l0.2-0.2c0.2,0,0.2,0,0.4-0.2c0.2-0.2,0.2-0.2,0.2-0.7c0,0,0,0,0.2-0.2l0.2-0.2c1.8-1.8,3.5-3.5,5.3-5
	l1.8-1.5l0,0l0.2,0.2c0.2,0.2,0.7,0.4,0.9,0.7c0.2,0.2,0.2,0.2,0.4,0.2c0.2,0.2,0.4,0.4,0.7,0.4l0,0c0.2,0.2,0.4,0.4,0.7,0.4
	c0.2,0,0.4,0.2,0.4,0.4c0.4,0.4,1.1,0.4,1.5,0.2c0.2-0.2,0.4-0.4,0.4-0.7c0-0.2,0-0.7-0.2-0.9c0,0,0,0,0-0.2s-0.2-0.4-0.4-0.7v-0.2
	c0-0.2-0.2-0.2-0.2-0.4c-0.2-0.2-0.4-0.4-0.4-0.7c-0.2-0.2-0.2-0.2-0.4-0.4c0-0.2-0.2-0.2-0.2-0.4c0.9,0,1.8,0.2,2.4,0.4h0.4
	c1.3,0.2,2.8,0.7,4.2,1.1c0.9,0.2,1.8,0.7,2.6,1.1l2.6,0.9c-0.2,0.2-0.4,0.2-0.7,0.2c-1.5,0.4-2.6,0.7-3.9,0.2
	c-1.3-0.2-2.6-0.7-3.9-1.1h-0.2c-0.2,0-0.7,0-0.7,0.2c-0.2,0.2-0.2,0.4,0,0.9c0,0,0.2,0.2,0.4,0.4c0.2,0.2,0.4,0.2,0.7,0.4
	c0.2,0,0.4,0.2,0.7,0.2c0.2,0,0.7,0.2,0.9,0.2c0.2,0.2,0.4,0.2,0.9,0.4c0.2,0,0.4,0.2,0.7,0.2c0.4,0.2,0.9,0.4,1.3,0.4
	c0.2,0,0.4,0.2,0.7,0.2c0.4,0.2,0.9,0.2,1.1,0.2s0.4,0,0.7,0c0.4,0,0.9,0,1.1,0h0.2h0.2c0.2,0,0.7,0,0.9-0.2
	c0.4-0.2,0.9-0.4,1.3-0.7l0.7-0.4c0.4-0.2,0.9-0.4,1.3-0.7c0.2-0.2,0.7-0.4,0.9-0.7h0.2c0.4-0.2,0.4-0.4,0.4-0.7
	c0-0.2,0-0.4-0.4-0.7c-0.4-0.2-0.7-0.4-1.1-0.4c-0.2-0.2-0.4-0.2-0.7-0.4c-0.7-0.4-1.5-0.9-2.2-1.1h-0.2c-0.7-0.4-1.3-0.7-2.2-1.1
	l-0.9-0.4c-0.7-0.2-1.5-0.7-2.4-0.9c-1.3-0.7-2.8-1.1-4.2-1.5l-1.1-0.4c0.7-0.7,1.3-1.3,2-1.8c0.2-0.2,0.4-0.4,0.7-0.7
	c0.4-0.4,1.1-1.1,1.8-1.3c0.7-0.4,1.1-0.9,1.5-1.3c0.2-0.2,0.4-0.4,0.7-0.7l0.9-0.9c0.7-0.7,1.3-1.1,2-1.8c0.2-0.2,0.7-0.4,0.9-0.9
	c0.7-0.7,1.1-1.1,2-1.5c0.4-0.2,0.7-0.7,1.1-0.9c0.2-0.2,0.2-0.2,0.4-0.4s0.7-0.7,0.2-1.3c0-0.2,0-0.2-0.2-0.4s-0.2-0.2-0.4-0.4
	s-0.4-0.4-0.7-0.9c-0.4-0.7-0.7-1.1-1.1-1.5c-0.2-0.2-0.2-0.4-0.4-0.4l-0.2-0.2c0-0.4-0.4-0.7-0.7-0.9c0,0-0.2,0-0.2-0.2
	c-0.2-0.4-0.7-0.4-0.9-0.4s-0.4,0-0.7,0.2l-0.2,0.2l-0.7,0.4c-0.4,0.4-0.7,0.7-1.1,1.1c-0.2,0.2-0.4,0.4-0.7,0.7
	c-0.2,0.2-0.4,0.4-0.7,0.7c-1.5,1.3-2.8,2.8-4.4,4.2l-6.8,6.6c0.2-0.4,0.2-1.1,0.2-1.8c0-0.4,0-1.1,0-1.5c0-0.2,0-0.7,0-0.9
	c0-1.3-0.4-2.4-0.7-3.5l-0.2-0.7c0-0.2-0.2-0.4-0.2-0.9c0-0.7-0.2-1.1-0.4-1.8c-0.2-0.9-0.4-1.5-0.7-2.2c-0.2-0.4-0.2-0.7-0.4-0.9
	s-0.2-0.4-0.2-0.4c0-0.2-0.4-0.7-0.7-0.7c0,0,0,0-0.2-0.2s-0.7-0.7-1.1-0.7c-0.2,0-0.2-0.2-0.4-0.2c-0.2-0.2-0.4-0.2-0.9-0.4
	c-0.2,0-0.4-0.2-0.7-0.2c-1.1,0-1.3,0.9-1.3,1.1c0,0,0,0.2,0,0.4l-0.7,2.8c0,0.4-0.2,1.1-0.2,1.5c0,0.2,0,0.4,0,0.7
	c0,0.2,0.2,0.4,0.4,0.4s0.4,0,0.7,0c0,0,0.2-0.2,0.4-0.4l0.2-0.4c0.2-0.4,0.7-1.1,0.9-1.5c0.2-0.2,0.2-0.4,0.4-0.9
	c0,0,0-0.2,0.2-0.2v0.2c0.2,0.7,0.4,1.3,0.7,2c0.2,0.7,0.4,1.1,0.4,1.8c0.4,1.5,1.1,3.3,1.3,4.8c0,0.4,0.2,1.1,0.4,1.5
	c0,0.2,0.2,0.7,0.2,0.9v0.2c0.2,0.7,0.2,1.3,0.2,2c-0.4-0.2-0.7-0.4-1.1-0.7c-0.7-0.4-1.1-0.7-1.8-0.9c0,0-0.2-0.2-0.4-0.2
	c-0.2-0.2-0.2-0.2-0.4-0.4c0-0.2,0-0.2,0-0.4c0-0.4,0-0.9-0.2-1.3c-0.2-1.3-0.4-2.4-0.4-3.7v-1.1c0-0.2,0-0.4,0-0.7v-0.2
	c0-0.2-0.2-0.4-0.2-0.4c-0.2-0.2-0.4-0.2-0.7,0c-0.7,0.2-0.9,0.9-0.9,1.1v0.2c-0.2,0.4-0.2,0.9-0.2,1.1s0,0.2,0,0.4
	c0,0.4,0.2,1.1,0.4,1.5c0,0.2,0.2,0.7,0.2,0.9c0.2,0.9,0.4,1.5,0.4,2.4l0,0l-0.2,0.2c0,0.2-0.2,0.7,0.2,0.9l2.6,2.8
	c0,0,0.2,0,0.2,0.2s0.2,0.2,0.2,0.4c0,0-0.2,0.2-0.2,0.4s-0.2,0.4-0.7,0.7c-0.2,0-0.2,0.2-0.2,0.2c-0.2,0.2-0.2,0.2-0.2,0.4
	c-0.2,0-0.4,0.2-0.7,0.7c0,0,0,0-0.2,0.2c-0.2,0-0.2,0.2-0.4,0.4l-0.2,0.2c0,0.2-0.2,0.2-0.2,0.4c-0.4,0.4-0.7,0.9-1.1,1.1l-0.4,0.4
	c0,0-0.4,0.2-0.4,0.7c0,0,0,0-0.2,0.2c0,0-0.2,0.2-0.4,0.4c0,0.2-0.2,0.2-0.2,0.4c-0.2,0.2-0.2,0.4-0.4,0.4
	c-0.2,0.2-0.2,0.2-0.4,0.4c-0.2,0.2-0.7,0.7-0.9,1.1c-0.4,0.4-0.9,0.9-1.3,1.3c-0.4,0.4-0.7,0.7-1.1,1.1c-0.2,0.2-0.4,0.4-0.9,0.9
	c-0.4,0.4-0.9,0.9-1.5,1.3c-0.2,0.2-0.4,0.4-0.7,0.7L131,67c-0.7,0.4-1.1,0.7-1.5,0.4c-0.2,0-0.4-0.2-0.9-0.2
	c-0.4,0-0.7-0.2-1.1-0.2c-1.1-0.4-2-0.7-3.1-1.1l-1.3-0.4c0-0.2,0.2-0.4,0.2-0.4c0.2-0.4,0.2-0.7,0.4-1.1v-0.2
	c0.2-0.2,0.2-0.4,0.4-0.9c0,0,0-0.2,0.2-0.2c0-0.2,0.2-0.2,0.2-0.4c0.4-0.9,0.4-1.8,0.4-2.6c0-0.7-0.4-1.1-0.7-1.8
	c0-0.2-0.2-0.2-0.2-0.4c-0.4-0.7-0.9-1.5-1.5-2c-0.2-0.2-0.4-0.4-1.1-0.4h-0.2c-0.9,0-1.8,0.2-2.6,0.4c-0.2,0-0.4,0-0.7,0.2
	c-0.2,0-0.4,0-0.7,0.2c-1.1,0.2-2.6,0.9-3.1,2.6c0,0.2-0.2,0.4-0.2,0.7c0,0.4-0.2,0.7-0.2,1.1c-0.2,0.9,0,1.5,0,2.2v0.2
	c0.2,0.9,0.7,1.8,0.9,2.6c0.2,0.4,0.2,1.1,0.2,1.5c-0.2,1.1-0.7,1.8-0.9,2.4c-0.2,0.2-0.2,0.7-0.4,0.9c-0.2,0.4-0.2,0.7-0.4,0.9
	c-0.2,0.2-0.4,0.7-0.4,1.1c-0.2,0.2-0.2,0.7-0.4,0.9c-0.9,1.5-1.8,3.1-2.4,4.8l-0.2,0.2c-0.9,1.8-1.8,3.5-2.6,5.3
	c-0.2,0-0.2,0-0.2,0h-0.2c-0.2,0-0.4-0.2-0.7-0.2c-0.4-0.2-0.9-0.4-1.5-0.4c-0.4,0-0.9-0.2-1.1-0.4c-0.2-0.2-0.7-0.2-0.9-0.2
	c-0.4-0.2-1.1-0.2-1.5-0.4c0.9,0,1.1-0.7,1.3-1.3c0-0.2,0.2-0.2,0.2-0.4c0-0.2,0-0.4,0-0.7c0-0.7,0.2-1.3,0.2-2c0-1.3,0-3.3,0-5
	c0-2,0-3.9,0-5.7c0-1.1,0-2.2,0-3.1c0-0.2,0-0.2,0.2-0.4c1.1-1.1,2.2-2,3.1-3.1c0.4-0.4,0.9-0.9,1.1-1.3v-0.2
	c0.2-0.2,0.4-0.7,0.4-1.3c0-0.9,0-1.8-0.2-2.8c0-0.2,0-0.4,0-0.7c0-0.4-0.2-0.9-0.4-1.3s-0.4-1.1-1.3-1.5c-0.7-0.2-1.1-0.4-1.8-0.7
	l-0.7-0.2c-0.4-0.2-0.9-0.2-1.3-0.2c-0.2,0-0.4,0-0.4,0h-0.2c-0.7,0-2.6,1.1-2.8,1.3c-0.4,0.2-0.7,0.4-1.1,0.7
	C96.2,52.1,96,53,96,53.6c0,0.2,0,0.4,0,0.7c0,0.4,0,0.9,0,1.3c0,0.7,0.2,1.1,0.2,1.8c0,0.4,0,0.9,0.2,1.3h-0.2
	c-0.2,0-0.7-0.2-0.9-0.2s-0.4,0-0.7-0.2c-0.2,0-0.2,0-0.2,0C94,58,93.8,58,93.3,57.8h-0.2c-0.4-0.2-1.1-0.2-1.5-0.4l-0.4-0.2
	c0.2-0.9,0.4-1.8,0.4-2.8c0-0.2,0-0.4,0-0.7c0-0.2,0-0.2,0-0.4c0-1.1-0.2-2-0.4-3.1c0-0.2-0.2-0.7-0.2-0.9s-0.2-0.7-0.2-0.9
	s-0.2-0.7-0.2-0.9c0-0.4-0.2-0.9-0.4-1.3s-0.2-0.9-0.2-1.1c0-0.4-0.2-0.9-0.4-1.3c-0.2-0.4-0.2-0.7-0.2-1.1c0-0.4-0.2-0.7-0.2-1.1
	c0-0.2,0-0.4-0.2-0.7v-0.4c-0.2-0.7-0.2-1.1-0.4-1.8c-0.2-0.2-0.2-0.7-0.2-0.9s-0.2-0.7-0.2-0.9v-0.2h0.2c0.4,0,0.9,0,1.3-0.2
	c1.3,0,2.4-0.7,3.5-1.5c0.4-0.4,0.9-0.9,1.3-1.3l0.7-0.4c0.2-0.2,0.4-0.4,0.7-0.7c0.4-0.4,0.9-0.9,1.3-1.1c0.4-0.4,0.7-0.7,1.1-1.1
	c0.2-0.2,0.4-0.7,0.7-0.9c0.2-0.2,0.4-0.7,0.4-0.9c0-0.4,0.2-0.7,0.7-0.9c0.2-0.2,0.4-0.4,0.7-0.4c0.4-0.4,1.1-0.9,1.3-1.5l0,0
	c0.2-0.2,0.7-1.1,0.4-1.5c0-0.2-0.2-0.2-0.2-0.4l-0.2-0.4c-0.4-0.4-0.7-0.9-1.1-1.1c-0.4-0.2-0.7-0.7-1.3-0.7
	c-0.7-0.2-1.1-0.4-2-0.2c-0.2,0-0.7,0-0.9,0c-0.4,0-0.7,0.4-0.9,0.7c0,0.2,0,0.4,0.2,0.7C96,23,96,23,96.2,23l0,0
	c0,0,0.2,0.2,0.4,0.2c0.7,0.2,1.1,0.7,1.8,1.1c0.4,0.2,0.7,0.4,1.1,0.7c-0.2,0.2-0.4,0.2-0.4,0.4c-0.7,0.4-1.1,0.9-1.3,1.3
	c-0.2,0.2-0.4,0.2-0.7,0.4c-0.2,0.2-0.4,0.2-0.7,0.4c-0.2,0.2-0.4,0.4-0.7,0.7c-0.4,0.4-0.9,0.9-1.3,1.1c-0.4,0.2-0.9,0.7-1.1,0.9
	c-0.4,0.4-0.7,0.7-1.1,0.9c0,0-0.2,0-0.2,0.2c-0.4,0.7-1.1,1.1-1.8,1.5c-0.7,0.4-1.1,0.9-1.5,1.3c0-0.2,0-0.4,0-0.9
	c0-0.4,0-0.7,0.2-1.1c0-0.7,0.2-1.1,0.7-1.5c0.7-0.7,1.5-1.3,2.2-2c0.2-0.2,0.7-0.4,0.9-0.7c0.4-0.4,0.9-0.7,1.5-1.3
	c0.4-0.2,0.9-0.4,1.1-0.9c0-0.2,0.2-0.2,0.4-0.4s0.2-0.4,0.2-0.7c0-0.2,0-0.4-0.2-0.7c-0.2-0.2-0.4-0.2-0.7-0.2
	c-0.2,0-0.4,0-0.4,0.2l-0.2,0.2l-0.2,0.2c-0.2,0.2-0.9,0.4-1.1,0.9h-0.2c-0.2,0-0.4,0.2-0.7,0.4c-0.2,0.2-0.4,0.4-0.7,0.4
	c-0.2,0.2-0.7,0.4-1.1,0.9c-0.4,0.2-0.7,0.4-0.9,0.4c0,0,0,0.2-0.2,0.2L89.2,28c-0.2,0.2-0.4,0.2-0.7,0.4l-0.2,0.2
	c-0.4,0.4-0.9,0.7-1.1,1.3L87,30.2c-0.2,0.4-0.4,0.9-0.7,1.5c0,0.2-0.2,0.4-0.2,0.7c-0.2-0.4-0.2-0.7,0-1.1c0-0.2,0.2-0.4,0.2-0.9
	c0-0.2,0-0.4,0-0.7c0-0.4,0-0.9,0-1.3c-0.2-1.5-0.4-2.8-0.7-4.2c-0.2-1.3-0.7-2.8-1.1-4.2c-0.2-0.7-0.4-1.5-0.7-2.2
	c-0.2-0.7-0.4-1.3-0.4-1.8c0-0.4-0.2-0.7-0.2-1.1c-0.2-0.9-0.4-1.5-0.9-2.2c-0.7-0.9-1.8-1.5-2.8-2c-0.9-0.2-1.5-0.2-2.2,0.2
	l-0.2,0.2c-0.4,0.2-1.1,0.7-1.5,1.3c-0.4,0.7-0.9,1.5-0.9,2.6c0.2,1.1,0.4,2.4,0.9,3.7c0.4,1.3,0.7,2.4,1.1,3.7
	c0.4,1.1,0.7,2.2,1.1,3.3c0.4,1.3,0.7,2.6,1.1,3.9c0.2,0.9,0.4,1.8,0.9,2.6l0,0h-0.2c0,0,0,0-0.2-0.2c-0.2,0-0.2-0.2-0.4-0.4
	c-1.1-0.7-2.6-1.3-3.9-1.5l-0.9-0.2c-1.1-0.2-2.4-0.7-3.5-0.9c-0.2,0-0.2,0-0.4,0s-0.4-0.2-0.7-0.2c-0.4,0-0.9,0-1.1,0
	c-0.4,0-1.1,0-1.5-0.2c-1.1-0.2-2,0.2-2.6,1.1l0,0c-0.2,0.2-0.7,0.7-0.4,1.5c0,0.2,0.2,0.7,0.4,1.1c0.2,0.4,1.1,1.1,2,1.8l0.4,0.2
	c0.2,0.2,0.7,0.4,0.9,0.4s0.2,0.2,0.4,0.2c0.7,0.4,1.3,0.7,2,0.9c0.4,0.2,0.9,0.2,1.3,0.4c0.4,0.2,1.1,0.4,1.5,0.4
	c0.7,0.2,1.3,0.2,2,0.4c0.4,0,0.9,0,1.1,0.2c0.4,0,0.7,0,1.1,0c0.2,0,0.2,0,0.7,0c0.9,0,1.5-0.2,2.4-0.4c0.2,0,0.2,0,0.4,0v0.2
	c0,0.7,0.2,1.3,0.4,1.8c0,0.2,0.2,0.4,0.2,0.9v0.2c0.2,1.1,0.4,2.2,0.9,3.3c0.2,0.7,0.4,1.3,0.4,2c0.2,0.9,0.4,2,0.9,2.8v0.2l0,0
	c0,0.7,0.2,1.1,0.2,1.5c0,0.2,0,0.2,0,0.4l0.2,0.4c0.4,1.8,1.1,3.3,1.8,5c0.4,0.7,0.9,1.5,1.5,2c0.2,0.2,0.2,0.2,0.4,0.4
	c-0.4,0.4-1.1,0.9-1.5,1.3l-1.3,1.1c-0.7,0.4-1.1,1.1-1.8,1.5c-0.2,0.2-0.4,0.4-0.7,0.7c-0.2,0.2-0.7,0.4-0.9,0.9
	c0-0.7,0-1.1-0.2-1.5c-0.2-0.7-0.4-1.1-0.9-1.5l0,0c-0.4-0.7-1.1-1.1-2-1.5c-1.1-0.7-2.2-0.9-3.3-0.9h-0.2c-0.4,0-0.9,0.2-1.3,0.2
	c-0.2,0-0.4,0.2-0.7,0.2c-0.2,0-0.4,0.2-0.7,0.2c-0.4,0-0.9,0.4-1.1,1.1c-0.2,0.4-0.2,0.7-0.4,1.1c-0.2,0.7-0.4,1.3-0.7,1.8
	c-0.2,0.9,0,2,0.7,2.6l0.2,0.2c1.1,1.1,2,2.4,3.5,3.1l0.2,0.2c0.7,0.4,1.3,0.7,2,0.9c0.7,0.2,1.1,0.2,1.5,0.4c0.2,0,0.2,0.2,0.4,0.2
	c0.4,0.2,0.4,0.4,0.7,0.4c0,0.2,0,0.2,0.2,0.4c0.2,0.2,0.7,0.7,0.9,1.1c0.2,0.2,0.4,0.7,0.7,0.9c0.2,0.2,0.4,0.4,0.4,0.7
	c0.2,0.4,0.4,0.7,0.7,1.1c0,0.4,0.2,0.7,0.4,0.9l0.2,0.2c0,0.4,0.4,0.7,0.7,0.9c0,0.2,0.2,0.2,0.2,0.4c0,0.2,0.2,0.4,0.4,0.4
	c0,0.2,0.2,0.2,0.2,0.2c0.2,0.7,0.7,1.1,0.9,1.5c0.2,0.2,0.2,0.4,0.4,0.4l0.2,0.4c0.2,0.4,0.7,0.9,0.9,1.5c0.2,0.2,0.2,0.4,0.4,0.7
	c0.2,0.2,0.2,0.4,0.4,0.7c0,0.2,0.2,0.2,0.2,0.4c0.2,0.2,0.2,0.4,0.4,0.7c-0.4,0.4-0.9,0.9-1.5,1.3c-0.7,0.4-1.3,0.9-1.8,1.5
	l-0.2-0.2c-0.2-0.2-0.4-0.2-0.7-0.4c-0.4-0.2-0.9-0.4-1.3-0.7c-0.4-0.2-0.9-0.7-1.3-0.9c-0.7-0.4-1.3-0.9-2.2-1.3
	c-0.4-0.2-0.7-0.4-1.1-0.7c-0.4-0.2-0.7-0.4-1.1-0.7L76,82.1c-0.4-0.2-1.1-0.7-1.5-0.9L74.3,81c-0.4-0.2-0.7-0.4-1.1-0.7
	c-0.2-0.2-0.4-0.2-0.9-0.4c-0.2-0.2-0.7-0.4-0.9-0.4c-0.2-0.2-0.4-0.2-0.7-0.4c-0.4-0.2-0.7-0.4-1.1-0.7c-0.2,0-0.2-0.2-0.4-0.7
	c0-0.2,0-0.2-0.2-0.4c-0.2-1.3-0.4-2.4-0.7-3.3c-0.2-1.1-0.7-1.8-1.5-2c-0.2-0.2-0.7-0.2-0.9-0.4c-0.9-0.4-1.5-0.9-2.6-1.1
	c-1.1-0.2-2.2-0.2-3.3,0.2c-0.2,0.2-0.4,0.2-0.7,0.4c-0.2,0.2-0.4,0.4-0.7,0.4c-0.2,0-0.2,0-0.4,0.2c0,0.2-0.2,0.2-0.4,0.4
	c-0.4,0.4-1.1,0.9-1.1,1.8c0,0.2,0,0.4,0,0.7v0.2c0,1.1,0.2,2,0.7,3.3c0.2,0.9,0.9,1.5,1.8,2c0.9,0.4,1.8,0.9,2.8,1.5l0.4,0.2
	c-1.1,1.1-2.2,2-3.1,3.1C59,85.4,59,85.4,59,85.4s-0.2,0-0.4-0.4c-0.7-0.7-1.3-1.3-2-1.8c-1.1-0.7-2-1.1-2.8-1.3l-0.9-0.2
	c-1.1-0.4-2.2-0.9-3.5-1.1c-0.4-0.2-1.1-0.2-1.5-0.4c-0.4-0.2-1.1-0.2-1.5-0.4c-0.4,0-0.9-0.2-1.3-0.4c-0.7-0.2-1.1-0.4-1.8-0.4
	c-0.4,0-0.9-0.2-1.3-0.4c-0.4-0.2-1.1-0.2-1.5-0.4c-0.2,0-0.4-0.2-0.9-0.2c-0.4-0.2-0.7-0.2-1.1-0.2c-0.2,0-0.7-0.2-0.9-0.2l0,0
	v-0.2c0.2-0.4,0.4-1.1,0.4-1.5c0-0.2,0.2-0.7,0.2-1.1c0.2-1.8,0-3.3-0.7-5c-0.2-0.4-0.2-1.1-0.4-1.5c-0.2-0.4-0.2-0.9-0.4-1.3
	s-0.2-0.7-0.4-1.1c-0.2-0.7-0.4-1.3-0.7-2c-0.2-0.7-0.4-1.3-0.7-2c-0.2-0.2-0.2-0.7-0.2-0.9c-0.2-0.7-0.7-1.1-1.3-1.1
	c-0.7,0-1.1-0.2-1.8-0.4l-0.4-0.2c-0.4,0-0.7-0.2-1.1-0.2c-0.7,0-1.3,0.2-1.8,0.9c-0.2,0.2-0.2,0.4-0.4,0.7
	c-0.4,1.3-0.4,1.8-0.4,3.3c0,1.1,0.2,2,0.4,2.8c0.2,0.7,0.4,1.5,0.7,2.2l1.8,5.9c0,0.2,0,0.2,0.2,0.4c-0.4,0-0.7-0.2-1.1-0.2
	s-0.7-0.2-1.1-0.2c-0.2,0-0.4-0.2-0.7-0.2c-0.4-0.2-0.9-0.4-1.3-0.4c-1.1-0.2-2.2-0.7-3.1-0.9c-0.4-0.2-0.7-0.2-1.1-0.4l-0.7-0.2
	c-1.5-0.4-2.8-0.9-4.4-1.3h-0.4c-0.7-0.2-1.5-0.4-2.4-0.2c-0.7,0-1.3,0.2-2,0.9c-0.2,0.2-0.4,0.4-0.4,0.4c-0.4,0.2-0.7,0.7-0.7,1.3
	c0,0.7-0.2,1.5,0.2,2.2c0,0.2,0.2,0.4,0.2,0.7v0.2c0.2,0.4,0.4,0.9,0.9,1.3c0.7,0.9,1.8,1.1,2.6,1.5c1.1,0.4,2.2,0.7,3.3,1.1
	c0,0,0,0,0.2,0s0.2,0.2,0.4,0.2c0.7,0.2,1.1,0.2,1.8,0.4c0.2,0,0.7,0.2,0.9,0.2s0.7,0.2,0.9,0.2c0.7,0.2,1.1,0.4,1.8,0.4
	c0.4,0,0.7,0.2,1.1,0.2c0.4,0.2,0.7,0.2,1.1,0.4c0.4,0,0.9,0.2,1.3,0.4c0.2,0,0.4,0.2,0.9,0.2l0,0l-0.2,0.2
	c-0.4,0.4-1.1,1.1-1.5,1.3c-0.4,0.2-0.9,0.7-1.1,0.9c-0.2,0.2-0.2,0.4-0.4,0.4c-0.2,0.2-0.7,0.4-0.9,0.7c-0.2,0.2-0.4,0.4-0.7,0.4
	c-0.4,0.2-0.7,0.7-1.1,0.9c-0.4,0.4-1.1,1.1-1.5,1.3c-0.2,0-0.4,0.2-0.7,0.7c0,0.2-0.2,0.2-0.4,0.4c-0.2,0-0.2,0.2-0.4,0.2
	c-0.7,0.7-0.9,1.3-0.9,2.2v0.4c0,0.4,0,1.1,0,1.5c0,0.2,0,0.4,0,0.7c0,0.2,0,0.2,0,0.4c0,0.2,0,0.4,0.2,0.4c0.2,0.2,0.4,0.2,0.7,0.2
	h0.4c0.2,0,0.4,0,0.9-0.2c0.2,0,0.2,0,0.4,0s0.4,0,0.7,0c0.9-0.2,1.8-0.4,2.4-0.7c1.1-0.4,2-1.3,2.6-1.8c1.1-1.1,2.2-2.2,3.3-3.1
	l0,0c0.4-0.4,0.7-0.7,1.1-0.9c0.9-0.7,1.5-1.5,2.2-2.4c0.2-0.2,0.2-0.4,0.4-0.4c0.2-0.4,0.7-0.7,0.9-1.3v-0.2h0.2c0.2,0,0.2,0,0.4,0
	c0.2,0,0.4,0,0.7,0h0.2c0.2,0,0.4,0,0.4,0c0.9,0.4,1.8,0.7,2.6,0.9h0.4c1.3,0.2,2.6,0.7,3.7,1.1l1.5,0.4c1.5,0.4,2.8,0.9,4.4,1.3
	c2,0.4,3.7,0.9,5.5,1.1c0.4,0,0.9,0,1.3,0c0.2,0.7,0.2,1.3,0.4,1.8c0.2,0.7,0.4,1.1,0.4,1.8c0.2,0.9,0.4,2,0.9,2.8
	c0,0-0.2,0-0.2-0.2l-0.2-0.2c-0.4-0.2-0.9-0.4-1.3-0.7c-1.5-0.4-3.1,0-4.8,1.1c-0.9,0.7-1.5,1.5-2.4,2.2l-0.2,0.2
	c-0.2,0.2-0.7,0.9-0.7,1.8c0,0.4,0.2,0.9,0.4,1.3c0.4,0.9,1.1,1.5,1.8,2.4l0,0c0.2,0.7,0.7,0.9,0.9,1.1l0.2,0.2
	c0.7,0.4,1.3,0.9,1.8,0.9h0.2c0.7,0,1.1,0,1.8,0c1.8-0.2,3.1-1.1,4.2-2c0,0,0.2-0.2,0.4-0.4c0.4-0.7,1.1-1.3,2.2-1.5
	c0.7-0.2,1.5-0.2,2.2-0.2c1.1,0,2,0,3.1-0.2h0.9c0.2,0,0.4,0,0.7,0h1.1c0.4,0,0.7,0,1.1,0c0.4,0,0.9,0,1.3,0c0.4,0,1.1,0,1.5,0
	c0.4,0,1.1,0,1.5,0c0.7,0,1.1,0,1.8,0c0.4,0,0.9,0,1.3,0c0.7,0,1.3,0,1.8,0c0,0,0,0,0.2,0v0.2l0.2,0.7c0,0.4,0.2,0.9,0.2,1.1
	c0.2,0.7,0.4,1.1,0.4,1.8l0.2,0.7c-0.2,0-0.4,0.2-0.4,0.4c-0.9,0.2-1.5,0.7-2.4,1.1c-0.2,0.2-0.7,0.4-0.9,0.4
	c-0.9,0.4-1.8,0.9-2.6,1.3h-0.2c-0.4,0.2-1.1,0.4-1.5,0.9c-0.4,0.2-0.9,0.4-1.3,0.7c-0.7,0.2-1.3,0.7-1.8,1.1h-0.2
	c-0.2,0-0.4,0.2-0.4,0.2c-0.7,0.4-1.3,0.7-1.8,0.9c-0.2,0.2-0.7,0.2-0.9,0.4c-0.2,0.2-0.4,0.2-0.9,0.4c-0.7,0.2-1.1,0.7-1.8,0.9
	l-0.2,0.2c-0.2,0-0.2-0.2-0.4-0.2c-0.4-0.2-0.7-0.4-1.1-0.7c-0.2,0-0.4-0.2-0.7-0.2c-0.4-0.2-0.7-0.4-1.1-0.4
	c-0.9-0.2-1.8-0.2-2.4,0c-0.7,0.2-1.1,0.7-1.5,1.1c-0.4,0.2-0.9,0.7-1.1,0.9l-0.4,0.4l0,0c-1.5,0.9-1.8,2.2-1.5,3.1
	c0.2,0.9,0.4,1.8,0.7,2.6c0.4,0.9,0.9,1.5,1.8,2c1.1,0.4,1.8,0.9,2.6,1.1c0.7,0.2,1.3,0.2,1.8,0.2c0.7,0,1.3-0.7,1.5-0.9
	c0.9-0.7,1.5-1.3,2.4-2l0.2-0.2v0.2v0.2c0.4,1.3,0.7,2.4,1.1,3.7l0.4,2c0.2,0.7,0.4,1.3,0.4,2c-0.2,0-0.4,0-0.7,0
	c-0.7,0-1.3,0.2-1.8,0.2c-0.7,0.2-1.1,0.7-1.8,1.1c-1.5,1.3-3.1,2.8-4.8,4.6c-0.4,0.4-1.1,0.9-1.5,1.3c-1.1,1.1-2.2,2-3.1,3.3
	c-0.4,0.7-1.1,1.3-1.8,1.8c-0.2,0.2-0.4,0.2-0.4,0.4c-0.4-0.4-0.9-0.9-1.1-1.3c-0.2-0.2-0.4-0.4-0.4-0.4c-0.7-0.7-3.3-1.5-3.9-1.8
	c-1.1-0.2-2.2-0.4-3.3-0.7c-1.3-0.4-2.8-0.7-4.4-0.7c-1.1,0-2.2,0.4-2.8,1.1c0,0-0.2,0-0.2,0.2l0,0c-0.4,0.2-0.7,0.7-1.1,0.9
	c-0.2,0.2-0.4,0.7-0.4,1.1c0,0.2,0.2,0.7,0.7,1.1c0.2,0.2,0.7,0.4,0.9,0.7c0.4,0.2,0.7,0.7,1.1,0.9c0.7,0.4,1.5,0.9,2.2,1.1
	c0.9,0.4,2,0.7,3.1,1.1c0.7,0.2,1.3,0.4,2,0.4l1.5,0.4c0.4,0,0.9,0.2,1.3,0.2c-0.4,0.4-0.9,0.9-1.3,1.1c-0.9,0.9-1.8,1.8-2.6,2.8
	c-0.7,0.7-1.3,1.3-2.2,2.2c-0.9,0.9-1.8,1.5-2.6,2.6c-0.2,0.2-0.7,0.7-0.9,0.9s-0.4,0.4-0.7,0.7c0,0,0,0-0.2,0
	c-0.2,0-0.7,0.2-0.7,0.7c0,0.2-0.4,0.4-0.7,0.7c-0.2,0.2-0.4,0.4-0.7,0.4c-0.4,0.4-0.7,0.7-1.1,1.1h-0.2c-0.2,0.2-0.7,0.7,0,1.3
	c0.2,0.2,0.4,0.4,0.7,0.4h0.2l0.2,0.2c0.2,0.2,0.4,0.4,0.9,0.7c0,0,0.2,0.2,0.4,0.2c0.2,0.2,0.4,0.4,0.7,0.4c0.2,0,0.4,0.2,0.4,0.4
	c0.2,0.2,0.4,0.4,0.9,0.7c0.2,0,0.4,0.2,0.4,0.4c0.2,0.2,0.4,0.4,0.9,0.7c0.4,0.2,0.9,0.2,1.3-0.2c0.4-0.4,0.7-0.7,1.1-1.1
	c0.7-0.4,1.1-1.1,1.8-1.8c0.4-0.4,0.9-0.9,1.3-1.3c0.4-0.4,0.9-0.9,1.3-1.3c0.4-0.4,0.9-0.9,1.3-1.5c0.7-0.7,1.3-1.1,1.8-2
	c0.2-0.4,0.7-0.7,1.1-1.1c0.4-0.2,0.7-0.7,0.9-1.1c0.2-0.2,0.4-0.7,0.7-0.9c0.4-0.4,0.7-0.9,1.1-1.3c0.2-0.2,0.2-0.2,0.2-0.4l0,0
	c0-0.2,0.2-0.2,0.4-0.4l0,0c0,1.1,0,2.4,0.2,3.5c0.2,1.8,0.7,3.5,1.1,5.3c0,0.2,0.2,0.4,0.4,0.7c0.2,0.2,0.4,0.2,0.4,0.2
	c0.2,0,0.4,0,0.7,0c0.2,0,0.2-0.2,0.4-0.4c0,0,0-0.2,0-0.4V160c0-0.7,0-1.3-0.2-1.8c-0.2-1.1-0.2-2.4-0.2-3.7v-0.4
	c0-0.4,0-0.9,0-1.3v-0.7c0-0.2,0-0.4,0.2-0.7v-0.2c0,0.2,0.2,0.4,0.4,0.7l0,0l0.2,0.2c0,0.2,0.2,0.2,0.2,0.4
	c0.4,0.7,0.7,1.1,0.9,1.8c0.4,1.5,0.9,2.8,1.1,4.4l0.2,0.4c0.2,1.1,0.4,2.2,0.2,3.3c0,0.2,0,0.7-0.7,0.9c-0.4,0.2-0.9,0.2-1.5,0.2
	c-0.2,0-0.2,0-0.4,0c-0.2-0.2-0.7-0.2-0.7-0.2h-0.2H55h-0.2c-0.2,0-0.4,0.2-0.4,0.2c-0.2,0-0.2,0.2-0.2,0.4c0,0.2,0,0.4,0.2,0.7v0.2
	c0,0,0.2,0.2,0.4,0.4c0.4,0.2,0.9,0.4,1.3,0.7c0.4,0.2,0.7,0.4,1.1,0.4c0.2,0,0.4,0.2,0.7,0.2c0.4,0.2,0.7,0.4,1.1,0.4
	c0,0,0.2,0,0.4,0c0.2,0,0.7,0,0.9-0.7l0.2-0.7c0.2-0.7,0.4-1.5,0.7-2.2c0.4-1.1,0.7-2.4,0.4-3.7c-0.2-0.9-0.2-2-0.7-3.1
	c-0.2-0.9-0.4-2-0.9-2.8c-0.2-0.9-0.7-2-1.1-2.8c-0.4-0.9-0.9-2-1.5-2.8c0.2-0.2,0.4-0.4,0.4-0.7c0.2-0.2,0.2-0.4,0.4-0.4
	c0.7-0.7,1.3-1.3,2-1.8c0.9-0.9,2-1.8,2.8-2.8c0.4-0.7,1.1-1.1,1.5-1.5c0.2-0.2,0.7-0.7,0.9-0.9l0.4-0.4c0.7-0.7,1.3-1.3,2-2.2
	c0.2-0.2,0.4-0.4,0.7-0.7c0.4-0.7,1.1-1.1,1.5-1.8c0.2-0.4,0.4-0.7,0.4-1.1c1.1,0.2,2,0.7,3.1,0.9l0.9,0.2c0.7,0.2,1.3,0.4,2,0.7
	c0.7,0.2,1.1,0.4,1.8,0.4c0.2,0,0.4,0,0.4,0.2c0.4,0.2,0.9,0.2,1.3,0.2v-0.7l0.2,0.7c0.2,0,0.2,0,0.4,0.4c0,0,0,0.2,0.2,0.2
	c0.4,0.9,0.9,1.8,1.1,2.6l0.2,0.7c0.2,0.4,0,0.9-0.2,1.3c-0.9,0.9-2,2-2.8,2.6c-0.2,0.2-0.4,0.2-0.7,0.2c-0.2-0.2-0.7-0.4-0.9-0.7
	c-0.2-0.2-0.2-0.2-0.4-0.4c-0.2-0.2-0.4-0.4-0.7-0.7c-0.2-0.2-0.4-0.4-0.4-0.4c-0.2-0.2-0.2-0.4-0.2-0.7c0-0.7,0.2-1.5,0.4-2.2v-0.2
	c0-0.4,0.2-0.9,0.2-1.1s0-0.4,0-0.4c0-0.2-0.2-0.4-0.4-0.4c-0.2,0-0.4,0-0.7,0c0,0-0.2,0.2-0.4,0.2c0,0.2-0.2,0.2-0.2,0.2
	c-0.2,0.2-0.2,0.4-0.2,0.7v0.2c-0.2,0-0.2,0.2-0.2,0.4v0.2c-0.2,0.9-0.7,2-0.2,3.3c0.2,0.9,0.7,1.5,1.1,2.4c0.4,0.7,0.7,1.1,0.9,1.8
	c0.2,0.2,0.2,0.4,0.4,0.9c0.2,0.4,0.7,0.4,0.9,0.4c0.2,0,0.2,0,0.4,0c0.2-0.2,0.7-0.2,0.9-0.2c0.4-0.2,0.9-0.2,1.3-0.4
	c0.7-0.2,1.1-0.4,2-0.7c0.9-0.2,1.5-0.7,1.8-1.3v-0.2c0.2-0.7,0.7-1.1,0.9-2v-0.2c0-0.4,0.2-0.9,0.2-1.3c0.2-1.5,0-2.8-0.2-4.4
	c-0.2-0.7,0-1.5,0-2.2c0.4-1.3,0.9-2.6,1.5-3.9l0.4-0.9c0.4-1.1,1.1-2.2,1.8-3.3l0.7-1.1c0.2-0.4,0.4-0.9,0.7-1.3
	c0.4-0.7,0.9-1.5,1.1-2.2l0.2-0.2c0.2-0.2,0.2-0.4,0.4-0.7c0.2-0.2,0.2-0.4,0.2-0.7c0-0.2,0-0.2,0.2-0.2s0.2-0.2,0.2-0.4
	c0-0.4,0.2-0.7,0.4-1.1c0-0.2,0.2-0.2,0.2-0.4c0.9,0.2,1.8,0.7,2.4,0.9L96,120l0,0l0,0v2c0,1.8,0,3.5-0.2,5.3c0,0.9,0,1.8,0,2.4
	c0,1.5,0,3.1-0.2,4.6c0,0.7,0,1.3-0.2,2c0,1.3-0.2,2.4-0.4,3.5c-0.2,0.7-0.4,1.1-0.7,1.5c-0.2,0.2-0.4,0.4-0.7,0.7
	c-0.4,0.4-0.7,0.7-1.1,1.1c-1.1,0.9-1.5,2.2-1.1,3.7c0.4,1.8,1.1,3.1,2,3.9c0.2,0.2,0.4,0.4,0.7,0.7c0.4,0.4,0.9,1.1,1.5,1.3
	l0.2,0.2c0,0.2,0.2,0.2,0.2,0.4c0.2,0.2,0.4,0.2,0.7,0.2c0.2,0,0.4-0.2,0.7-0.2c0-0.2,0.2-0.2,0.4-0.4s0.4-0.2,0.7-0.4l1.1-1.1
	c0.4-0.4,0.9-0.9,1.5-1.3c0.4-0.4,0.7-0.9,0.7-1.3c0.2-0.7,0.2-1.5,0.2-2.2c0-0.2,0-0.4,0-0.7c0-0.9-0.2-2-0.2-2.8v-0.2
	c1.8,0.7,3.5,1.3,5.3,1.8c0.7,0.2,1.3,0.4,2,0.7l0.7,0.2c-0.2,0.2-0.2,0.4-0.4,0.7c-0.2,0.4-0.4,0.9-0.4,1.1c0,0.4,0,0.9-0.2,1.3
	v0.2c0,0.4,0,0.9,0,1.3c0,0.4,0.2,0.9,0.2,1.3c0.2,0.4,0.2,1.1,0.4,1.5c0,0.7,0.2,1.1,0.4,1.5c0.2,0.4,0.2,0.9,0.4,1.5
	c0,0.4,0.2,0.9,0.2,1.1c0,0.2,0.2,0.4,0.2,0.9c0.2,0.9,0.4,1.8,0.7,2.8c0.2,0.7,0.2,1.1,0.4,1.8v0.4v0.2c-0.4,0.2-1.1,0.4-1.5,0.7
	c-0.4,0.2-0.9,0.4-1.3,0.7c-0.4,0.2-0.9,0.4-1.5,0.9c-0.2,0-0.2,0.2-0.4,0.4l-0.2,0.2c-0.4,0-0.9,0.4-0.9,0.7c0,0,0,0-0.2,0.2
	c0,0-0.2,0-0.2,0.2c-0.2,0.2-0.4,0.2-0.7,0.4c-0.4,0.4-0.7,0.7-1.1,1.1c-0.7,0.7-1.5,1.3-2.2,2.2c0,0.2-0.2,0.2-0.4,0.4
	c-0.2,0.2-0.7,0.7-0.9,1.1c-0.9,0.9-1.1,1.3-1.5,2.4c-0.2,0.7-0.2,1.1-0.2,1.5c0,0.4,0,0.7-0.2,1.1v0.2c0,0.4,0.2,0.9,0.7,0.9
	c0.7,0,1.1,0.2,1.8,0.2l1.1,0.2c0.4,0,0.7,0,1.1,0.2l0.9,0.2c0,0,0,0,0.2,0s0.2,0,0.4,0h0.2c0.4,0,0.4-0.4,0.7-0.7l0.2-0.2
	c0.4-0.4,0.7-0.7,1.1-1.1c0.4-0.2,0.7-0.7,0.9-0.9c0.2-0.2,0.2-0.4,0.4-0.7c0.4-0.4,0.7-0.7,1.1-1.1l4.2-3.9c0,0,0.2-0.2,0.4-0.4
	l0,0c0.2,0.4,0.2,0.9,0.2,1.3c0,0.4,0.2,0.7,0.2,1.1l0.2,0.9c0.2,0.7,0.4,1.3,0.7,2l2.8,10.5c0.4,1.3,0.7,2.4,1.1,3.7
	c0.2,0.7,0.7,0.7,0.9,0.7l0,0c0.2,0,0.7,0,0.9,0c0.4,0,1.1,0,1.8,0c0.7,0,2-0.2,2.6-1.3c0.2-0.2,0.4-0.4,0.7-0.7
	c0.9-0.7,0.9-1.5,0.9-2v-0.2c0,0,0-0.2,0-0.4c-0.2-0.4-0.2-0.9-0.2-1.3c0-0.4-0.2-0.7-0.2-1.1c0-0.2,0-0.4-0.2-0.7
	c0-0.4-0.2-0.9-0.2-1.1c0-0.7-0.2-1.1-0.4-1.5l-0.2-0.4c0-0.2-0.2-0.2-0.2-0.4v-0.2c0-0.9-0.2-1.5-0.4-2.2c-0.2-0.4-0.2-0.9-0.4-1.3
	c-0.2-0.7-0.4-1.3-0.7-2c-0.2-0.4-0.2-0.9-0.4-1.3c-0.4-1.3-0.7-2.6-1.3-3.9v-0.2c-0.4-0.9-0.9-2-1.8-2.6l-0.2-0.2h0.2
	c0.4,0.2,1.1,0.4,1.5,0.7c0.2,0.2,0.4,0.2,0.7,0.4c0.2,0.2,0.7,0.2,0.9,0.4c0.2,0.2,0.7,0.4,0.9,0.4s0.4,0.2,0.7,0.2
	c0.2,0.2,0.7,0.4,1.1,0.4c0.2,0,0.4,0.2,0.7,0.2c0.7,0.4,1.5,0.7,2.2,0.9c0.2,0,0.4,0.2,0.9,0.2c0.9,0.2,1.5,0.7,2.6,0.9
	c0.2,0,0.4,0,0.7,0.2c0.7,0.2,1.3,0.4,2,0.4h0.2c1.1,0,2-0.2,2.6-0.9l0.2-0.2c0.2-0.2,0.7-0.7,0.9-0.9c0.7-0.7,0.7-1.8,0-2.4
	c0-0.2-0.2-0.2-0.2-0.4c-0.2-0.2-0.2-0.2-0.4-0.4c0-0.4-0.4-0.9-0.9-0.9l0,0c-0.4-0.4-0.9-0.7-1.1-0.9h-0.2
	c-1.1-0.7-2.2-1.1-3.1-1.3c-0.4-0.2-0.9-0.2-1.1-0.4c-0.4-0.2-0.9-0.2-1.3-0.4c-0.4,0-0.7-0.2-0.9-0.2c-0.9-0.2-1.5-0.4-2.4-0.7
	h-0.2c-0.2,0-0.7-0.2-0.9-0.2c-0.2,0-0.4,0-0.7-0.2c-1.3-0.4-2.4-0.2-3.5,0.2c-0.2,0-0.4,0.2-0.7,0.2c0-0.2-0.2-0.4-0.2-0.7
	c0-0.2-0.2-0.4-0.2-0.7c0-0.2-0.2-0.4-0.2-0.7c-0.2-0.2-0.2-0.4-0.4-0.7l-0.2-0.4c-0.7-0.9-0.9-1.8-0.7-2.8c0.2-0.7,0-1.1,0-1.5
	c-0.4-1.1-0.7-2-0.9-2.8c-0.4-1.5-0.9-2.8-1.3-4.4l-0.2-0.2c-0.2-0.7-0.4-1.1-0.9-1.5c-0.2-0.4-0.7-0.4-0.9-0.7c0,0,0,0,0.2-0.2
	c0.9-0.9,2-1.8,2.8-2.6c0.9-0.7,1.8-1.5,2.6-2.4c0,0,0,0.2,0.2,0.2c0.2,0.2,0.4,0.7,0.7,0.9c0.2,0.4,0.4,0.7,0.7,1.1
	c0,0,0,0.2,0.2,0.2c0,0.2,0.2,0.4,0.4,0.7c0.4,0.4,0.7,0.9,1.1,1.5l0.2,0.4c0.2,0.4,0.4,0.4,0.9,0.4h0.2h0.2
	c0.7-0.2,1.5-0.4,2.4-0.4c0.7,0,1.1-0.2,1.8-0.2c0.4-0.2,1.1-0.2,1.8-0.9c0.2-0.2,0.7-0.7,0.9-1.3c0-0.4,0.2-0.7,0.2-1.1
	c0-0.2,0.2-0.4,0.2-0.7c0.2-1.1,0.2-2.2-0.4-3.1c-0.7-0.9-1.1-1.5-1.5-2c-0.7-0.7-1.5-1.1-2.2-1.3c-0.9-0.4-1.8-0.4-2.6-0.7
	c-0.4,0-0.7,0-1.1,0h-0.4c-0.2,0-0.4,0-0.4-0.2c-0.2-0.2-0.2-0.4-0.4-0.7c0,0,0,0,0-0.2c0-0.2-0.2-0.2-0.2-0.4
	c-0.2-0.2-0.2-0.4-0.4-0.7c-0.2-0.2-0.4-0.7-0.7-0.9c0-0.4-0.4-0.7-0.4-0.9l0,0c0-0.4-0.4-0.7-0.7-1.1l-0.2-0.2c0,0-0.2-0.2-0.2-0.4
	c-0.2-0.2-0.2-0.4-0.4-0.7c-0.4-0.4-0.7-0.9-0.9-1.3l-0.2-0.4c-0.2-0.4-0.4-0.7-0.7-1.1l-0.4-0.9c-0.2-0.2-0.4-0.7-0.7-0.9
	c-0.2-0.4-0.4-0.7-0.7-1.1c-0.2-0.2-0.4-0.7-0.4-0.9c-0.2-0.4-0.7-1.1-0.9-1.5l-0.2-0.4c-0.4-0.7-0.7-1.1-0.9-1.8
	c0-0.2-0.2-0.2-0.2-0.2v-0.2v-0.2c0.2,0,0.4-0.2,0.4-0.2c0.2,0,0.4-0.2,0.7-0.2c0.9,0.4,1.8,0.7,2.4,1.1c1.5,0.7,3.1,1.5,4.4,2.4
	l0.2,0.2c0.9,0.4,1.8,1.1,2.6,1.5c0.2,0,0.4,0.2,0.7,0.2c0.2,0.2,0.7,0.4,0.9,0.7c0.7,0.4,1.5,0.9,2.4,1.3c0.2,0.2,0.7,0.4,0.9,0.4
	c0.2,0.2,0.7,0.4,0.9,0.4c0.2,0.2,0.4,0.2,0.9,0.4l0.4,0.2c0.2,0.2,0.4,0.2,0.7,0.4l0.2,0.2c0.2,0.2,0.7,0.4,0.9,0.4l0,0
	c0,0.2,0,0.2,0.2,0.4c0,0,0,0.2,0,0.4v0.2c0,0.2,0,0.2,0,0.4c0,0.7,0,1.3,0.2,2c0,0.2,0,0.7,0.2,0.9c0.2,1.3,1.1,2,1.8,2.4
	c0.7,0.4,1.3,0.9,2.2,1.1c1.8,0.9,2.8,0.7,4.4-0.4h0.2c0.2,0,0.2-0.2,0.4-0.2s0.2-0.2,0.2-0.2l0,0c0.7-0.2,0.9-0.7,1.3-0.9
	c0.2-0.2,0.2-0.2,0.4-0.4c0.2-0.2,0.4-0.7,0.4-1.1c0-0.4,0-0.9,0-1.3c0-0.4-0.2-0.9-0.2-1.5l-0.2-0.7c-0.2-1.3-1.1-2.4-2.4-3.1
	c-0.7-0.4-1.3-0.7-2-0.9c-0.2-0.2-0.7-0.2-0.9-0.4l5.5-5.3l1.3,0.7c0.9,0.4,1.8,0.7,2.6,1.1c0.2,0,0.4,0.2,0.7,0.2
	c0.2,0,0.2,0,0.4,0.2c0.2,0,0.4,0.2,0.7,0.2c0.2,0.2,0.4,0.2,0.9,0.4c0.4,0.2,0.9,0.2,1.3,0.4c0.9,0.4,1.8,0.7,2.8,0.9
	c0.7,0.2,1.5,0.4,2.2,0.7l1.1,0.4c0.4,0,0.7,0.2,1.1,0.2c0.7,0.2,1.3,0.4,2,0.7c0.7,0.2,1.3,0.4,2.2,0.9c0.9,0.4,1.5,0.7,2,1.3
	c0.2,0.2,0.4,0.4,0.7,0.7c0.2,0.2,0.2,0.2,0.4,0.4c0.2,0.2,0.4,0.7,0.4,1.1c0.4,1.8,0.9,3.3,1.1,5v0.2c0.2,1.3,0.4,2.6,0.4,3.9
	c0,0.4-0.2,0.9-0.7,1.3h-0.2l0,0c-0.2-0.4-0.4-0.9-0.4-1.3c-0.2-0.4-0.4-0.9-0.7-1.3c-0.2-0.4-0.2-1.1-0.4-1.5
	c-0.2-0.7-0.4-1.3-0.7-2c0-0.4-0.2-1.1-0.4-1.5l-0.2-1.3c-0.2-0.7-0.4-1.3-0.4-2c0-0.2-0.2-0.7-0.7-0.7h-0.2c-0.4,0-0.9,0.4-0.9,0.9
	c0,0.2,0,0.4,0,0.7c0.2,0.9,0.4,2,0.4,3.1c0,0.7,0.2,1.3,0.2,2c0,0.4,0.2,1.1,0.2,1.5c0,0.9,0.2,1.5,0.4,2.4
	c0.2,0.7,0.4,1.5,1.1,2.2c0.2,0.2,0.7,0.4,0.9,0.7c0.2,0,0.4,0.2,0.4,0.2c0.4,0.4,0.9,0.7,1.3,0.9s0.9,0.4,1.3,0.9
	c0.7,0.4,1.3,0.2,1.8-0.7l0.2-0.7c0.2-0.4,0.4-0.9,0.7-1.5c0.4-1.1,0.4-2.2,0.4-3.1c-0.2-1.3-0.4-2.6-0.9-3.7v-0.4
	c-0.2-0.4-0.2-0.9-0.4-1.5c0-0.2-0.2-0.7-0.2-0.9v-0.2c0-0.2,0-0.4-0.2-0.7c-0.4-0.9-0.7-1.8-1.1-2.6c-0.2-0.4-0.4-0.9-0.4-1.3
	l-0.4-1.3v-0.2c0,0,0,0,0.2,0c0.2,0,0.2,0.2,0.4,0.2c1.5,1.1,3.1,1.8,4.6,2.2c1.1,0.4,2,0.9,3.3,1.1c1.1,0.2,2.2,0.7,3.5,1.1
	c0.2,0,0.4,0.2,0.7,0.2c0.2,0.2,0.7,0.2,0.9,0.2c0.7,0.2,1.3,0.4,2,0.4l1.3,0.2c0.9,0.2,1.8,0.4,2.8,0.4h0.2c1.1,0,1.8-0.4,2.4-1.1
	c0.2-0.2,0.4-0.7,0.7-0.9l0.2-0.2C188.4,127.6,188.6,126.8,188.1,126.1z M138.7,130.7c0,0,0,0.2-0.2,0.4l0,0
	c-0.7,0.4-1.5,0.9-2.4,0.9c-0.7,0-1.3,0-1.8-0.2c-0.9-0.2-1.1-0.7-1.3-1.5c0-0.4,0-0.7,0-1.1c0-0.2,0-0.7,0-0.9c0-0.7,0-0.9,0.9-1.1
	c0.7-0.2,1.3-0.4,2-0.4c0.2,0,0.2,0,0.4,0c0.4,0,1.3,0.4,1.5,0.7c0,0.4,0.2,0.4,0.4,0.7v0.2c0,0.2,0.2,0.4,0.2,0.7
	c0,0,0,0.2,0.2,0.2v0.2C138.7,129.8,138.9,130.3,138.7,130.7z M109.8,116.9L109.8,116.9L109.8,116.9L109.8,116.9z M114.1,158.3
	c0.2,0.7,0.4,1.5,0.4,2.2c0,0.2,0,0.4,0.2,0.9c0.2,0.9,0.4,1.8,0.2,2.6c0,0.9-0.2,1.5-0.7,1.8c0,0-0.2,0-0.2,0.2l-0.4,0.4
	c-0.2,0.2-0.2,0.4-0.4,0.4c0-0.2,0-0.2-0.2-0.4c-0.2-0.7-0.4-1.3-0.4-2v-0.2l-0.2-1.1c-0.2-0.7-0.4-1.5-0.7-2.2
	c-0.2-0.7-0.4-1.1-0.4-1.8c-0.2-0.7-0.4-1.3-0.4-2l-0.2-0.7c-0.2-0.9-0.4-1.8-0.7-2.6c0-0.7-0.2-1.3-0.4-2c0-0.4-0.2-0.9-0.2-1.3
	c0-0.4,0-0.7,0-0.9c0.2-0.4,0.2-0.7,0.4-0.7c0.4-0.2,0.9-0.2,1.3-0.2c0.2,0,0.2,0,0.4,0c0.4,0.9,0.7,1.8,0.9,2.4
	c0,0.2,0.2,0.4,0.2,0.7c0,0.2,0.2,0.4,0.2,0.7c0,0.4,0.2,0.9,0.2,1.3c0.2,0.7,0.4,1.3,0.4,2.2C113.7,156.7,113.9,157.4,114.1,158.3z
	 M120.5,189.4c-0.2,0.2-0.7,0.4-0.9,0.4c0,0-0.2,0-0.2,0.2c0-0.2-0.2-0.4-0.2-0.4c-0.2-0.7-0.4-1.5-0.7-2.2c-0.2-1.1-0.7-2-0.9-3.1
	s-0.7-2.2-0.9-3.1c-0.2-0.7-0.2-1.1-0.4-1.8c-0.2-0.9-0.4-1.5-0.7-2.4c-0.2-0.7-0.4-1.5-0.7-2.2v-0.2c-0.2-0.7-0.4-1.5-0.4-2.4v-0.4
	c0-0.4-0.2-0.9-0.2-1.3l0,0c0,0,0.2,0,0.2-0.2c0.2-0.2,0.4-0.2,0.9-0.4c0.2,0,0.4,0,0.4-0.2c0.2,0,0.7-0.2,0.9-0.2l0.2,0.2
	c0.4,0.4,0.7,0.9,0.7,1.8c0,0.4,0.2,0.9,0.4,1.1c0,0.2,0.2,0.4,0.2,0.7c0.2,0.7,0.4,1.3,0.7,2c0.2,0.7,0.4,1.3,0.4,1.8
	c0.2,0.4,0.2,0.9,0.4,1.3c0.2,0.9,0.4,1.8,0.7,2.4c0,0.4,0.2,0.7,0.2,1.1c0.2,0.7,0.4,1.3,0.4,2.2c0,0.2,0.2,0.4,0.2,0.7
	s0,0.2,0.2,0.4c0.4,1.3,0.7,2.4,0.9,3.7C121.6,188.7,121.1,189.2,120.5,189.4z M101.9,173.6c0.2-0.2,0.4-0.2,0.4-0.4
	c0.4-0.4,0.9-0.7,1.1-0.9c0.2-0.2,0.4-0.2,0.7-0.4c0.2-0.2,0.2-0.2,0.4-0.4c0.2-0.2,0.4-0.4,0.7-0.4c0.2-0.2,0.2-0.2,0.4-0.2
	c0.4-0.2,0.9-0.4,1.1-0.9c0.2-0.2,0.4-0.2,0.4-0.4c0.4-0.2,0.7-0.7,1.1-0.9c0.2-0.2,0.2-0.2,0.4-0.4c0,0,0.2,0,0.2-0.2
	c0.2,0,0.2-0.2,0.4-0.2l0,0c0,0.4,0,1.1-0.2,1.5c-0.2,0.7-0.4,1.3-0.9,2c-0.4,0.4-0.9,0.9-1.3,1.3c-0.2,0.2-0.2,0.2-0.4,0.4
	c-0.2,0.2-0.4,0.4-0.4,0.4c-0.2,0-0.4,0.2-0.4,0.4c-0.2,0.2-0.2,0.2-0.2,0.4c-0.2,0.2-0.2,0.2-0.2,0.2c-0.4,0-0.9,0.4-1.1,0.7
	l-0.2,0.2l-0.2,0.2c-0.2,0.2-0.4,0.4-0.4,0.4c-0.2,0.2-0.4,0.4-0.9,0.7c-0.4,0.2-0.7,0.4-1.1,0.7c-0.4,0.2-0.9,0.4-1.1,0.7
	c0,0,0,0-0.2,0s-0.2,0-0.2,0s0,0,0-0.2c-0.2-0.4-0.4-0.9-0.4-1.3c0-0.2,0-0.4,0.2-0.7c0.2-0.4,0.7-0.9,0.9-1.1
	c0.2-0.2,0.2-0.2,0.4-0.4c0.2-0.2,0.4-0.4,0.4-0.4C101.4,174,101.7,173.8,101.9,173.6z M117.9,136.6c-0.9,0.9-1.8,1.8-2.6,2.6
	c-0.2,0.4-0.7,0.7-1.1,1.1c-0.4,0.4-0.9,0.9-1.3,1.5c-0.2,0.4-0.7,0.7-1.1,1.1c-0.2,0.2-0.7,0.7-0.9,0.9c-0.2,0.2-0.4,0.7-0.7,0.9
	c-0.4,0-0.7-0.2-1.1-0.2c-0.4-0.2-1.1-0.2-1.5-0.4c-0.4-0.2-1.1-0.2-1.5-0.4c-0.9-0.2-1.8-0.4-2.4-0.7c-0.7-0.2-1.1-0.2-1.8-0.4
	c-0.2,0-0.4-0.2-0.9-0.2l-1.1-0.4c-0.9-0.4-2-0.7-3.1-1.3c0-0.2,0-0.2,0-0.4c0-0.2,0-0.4,0-0.4c0-2.4,0-5,0-7.4c0,0.4,0,0.9,0,1.3
	c0,0.2,0,0.4,0,0.7c0,0.2,0,0.7,0,0.9s0,0.7,0,0.9v0.2c0,0.7,0.2,1.5,0.4,2.2c0.2,0.4,0.7,0.7,0.9,0.9c0.7,0.4,1.5,0.7,2.6,1.1
	c0.9,0.2,1.8,0.4,2.4,0.7l1.8,0.4c0.9,0.2,2,0.4,2.8,0.9c0.9,0.2,1.5,0,2-0.7c0.2-0.4,0.7-0.7,0.9-0.9c0.4-0.2,0.9-0.7,1.3-1.1
	c0.2-0.2,0.7-0.7,0.9-0.9c0.4-0.2,0.9-0.7,1.3-1.1c0.2-0.2,0.4-0.4,0.7-0.7c0.2,0,0.2-0.2,0.4-0.2c0.2-0.2,0.4-0.2,0.4-0.4
	c0.2-0.2,0.4-0.4,0.7-0.7l0.7-0.7c0,0,0,0,0.2,0c0.2-0.2,0.4-0.4,0.7-0.9c0,0,0,0,0-0.2c0.2,0.4,0.4,0.7,0.7,1.1
	C118.5,135.9,118.1,136.2,117.9,136.6z M96.2,150.8c-0.2,0.2-0.4,0.4-0.4,0.7l-0.2,0.2h-0.2c-0.2-0.2-0.4-0.4-0.7-0.4
	c-0.4-0.2-0.7-0.4-0.9-0.7c-0.7-1.1-1.1-1.8-1.1-2.6c0-0.9,0.2-1.5,0.7-2.2v-0.2c0,0,0-0.2,0.2-0.2c0.4-0.4,0.7-0.7,1.1-1.1l0.2-0.2
	c0,0,0,0,0.2,0c0.2,0.2,0.7,0.2,0.7,0.4c0.2,0.2,0.4,0.4,0.7,0.7l0.4,0.7c0.2,0.2,0.4,0.4,0.7,0.7c0.4,0.4,0.4,1.1,0.2,1.5l-0.2,0.4
	c-0.2,0.2-0.2,0.4-0.4,0.9l-0.2,0.2C96.6,150,96.4,150.4,96.2,150.8C96.2,150.6,96.2,150.8,96.2,150.8z M74.3,134.4
	c-0.4,0-0.7-0.2-1.1-0.2c-0.4-0.2-0.9-0.2-1.3-0.4c-0.4,0-0.9-0.2-1.3-0.4c-0.4,0-0.7-0.2-1.1-0.2c-0.2,0-0.4-0.2-0.7-0.2h-0.2
	c-0.2,0-0.2-0.2-0.2-0.2c-0.2-0.7-0.2-1.3-0.4-2c-0.2-0.7-0.4-1.3-0.4-1.8c0-0.4-0.2-0.7-0.2-0.9c0-0.2-0.2-0.2-0.2-0.4
	c-0.2-0.7-0.4-1.5-0.7-2.2c-0.2-0.7-0.2-1.1-0.4-1.8s-0.4-1.3-0.4-1.8c-0.2-0.4-0.2-0.9-0.4-1.3c0-0.2,0-0.4-0.2-0.4
	c0-0.2,0-0.4-0.2-0.7c0.7-0.2,1.3-0.7,2-1.1c0.4-0.2,0.9-0.4,1.3-0.7c0.2,0,0.4-0.2,0.7-0.2c-0.2,0.2-0.4,0.2-0.7,0.4
	c-0.4,0.2-1.1,0.4-1.5,0.9c-0.2,0.2-0.7,0.4-0.4,1.1c0,0.2,0.2,0.4,0.2,0.7c0.2,0.2,0.2,0.7,0.2,0.9c0.2,0.7,0.2,1.3,0.4,1.8
	c0.2,0.7,0.4,1.3,0.4,2c0,0.4,0.2,0.7,0.2,1.1c0,0.2,0.2,0.2,0.2,0.4l0.2,0.7c0.2,1.1,0.7,2,0.9,3.1c0.2,0.4,0.2,1.3,1.5,1.3
	c1.1,0.4,2,0.7,3.1,0.9c0.4,0,0.9,0.2,1.3,0.2c0.4,0,0.7,0.2,1.1,0.2c0.4,0.2,0.9,0.2,1.3,0.4c0.2,0,0.7,0.2,0.9,0.2
	c0.4,0,0.9,0.2,1.3,0.4c0.4,0.2,1.1,0,1.3-0.4c0.2-0.2,0.4-0.7,0.4-0.9c0-0.2,0-0.2,0.2-0.2l0,0c0,0.2-0.2,0.4-0.2,0.7
	c-0.2,0.4-0.4,1.1-0.7,1.5c-0.2,0.4-0.4,1.1-0.7,1.5c-0.9-0.2-1.8-0.4-2.6-0.7c-0.4-0.2-0.9-0.2-1.3-0.4l-0.4-0.2
	C75.2,134.6,74.7,134.4,74.3,134.4z M69.3,119.5c0.4,0,0.7-0.2,0.9-0.4l0.2-0.2c0.2,0,0.2-0.2,0.4-0.2s0.4-0.2,0.4-0.2
	c0.2,0,0.2-0.2,0.4-0.2s0.2-0.2,0.4-0.2c0.7-0.2,1.3-0.7,1.8-0.9c0.4-0.2,1.1-0.7,1.5-0.9c0.4-0.2,0.9-0.4,1.3-0.9
	c0.2-0.2,0.4-0.2,0.7-0.4l2-1.1c0.2-0.2,0.7-0.4,0.9-0.4c0,0,0,0.2,0.2,0.2c0.2,0.4,0.4,0.7,0.4,1.1c0.2,0.2,0.2,0.4,0.4,0.9
	c0,0,0.2,0.2,0.2,0.4v0.2l0,0c-0.2,0.2-0.2,0.2-0.2,0.4c-0.2,0-0.4,0.2-0.4,0.4c-0.4,0.4-0.9,0.9-1.1,1.3c-0.4,0.4-0.7,0.9-1.1,1.1
	l-0.2,0.2c-0.9,0.7-1.8,1.5-2.4,2.4c-0.4,0.4-0.9,0.9-1.3,1.3c-0.2,0.2-0.7,0.7-0.9,0.9l-0.4,0.4c-0.4,0.4-0.7,0.7-1.1,1.1
	c-0.2,0.2-0.4,0.4-0.4,0.7c-0.2,0.2-0.2,0.4-0.4,0.4c-0.2,0.2-0.4,0.4-0.7,0.7l0,0c-0.2-0.4-0.2-1.1-0.4-1.5c0-0.2-0.2-0.7-0.2-0.9
	c-0.2-0.7-0.4-1.5-0.7-2.2c-0.2-0.4-0.4-1.1-0.7-1.5c0-0.2-0.2-0.4-0.2-0.9C69,119.7,69,119.5,69.3,119.5L69.3,119.5L69.3,119.5z
	 M83.9,122.6l-2.6,4.8c-0.7,1.3-1.3,2.4-2,3.7c-0.4-0.2-0.9-0.2-1.1-0.4c-0.4-0.2-1.1-0.2-1.5-0.4c-0.9-0.2-2.2-0.7-3.3-0.9
	c-0.2,0-0.7-0.2-0.9-0.2l4.6-4.4c0.9-0.9,1.5-1.5,2.4-2.4c0.9-0.9,1.8-1.5,2.8-2.4c0.7-0.7,1.5-0.9,2.6-1.1c0.2,0,0.7-0.2,0.9-0.2
	h0.2C85.2,120,84.6,121.3,83.9,122.6z M86.3,116.2c-0.4,0-0.7-0.2-1.1-0.4c-0.2,0-0.4-0.2-0.7-0.2l0,0c0-0.2,0-0.4-0.2-0.7v-0.2
	c-0.2-0.7-0.4-1.3-0.4-2c-0.4-1.3-0.7-2.6-1.1-4.2c-0.2-0.7-0.2-1.1-0.4-1.8c-0.2-0.4-0.2-0.9-0.4-1.3c0-0.4-0.2-0.9-0.4-1.3
	s-0.2-1.1-0.4-1.8s-0.4-1.3-0.4-1.8c-0.2-0.4-0.2-0.9-0.4-1.3c0-0.4-0.2-0.7-0.2-1.1c-0.2-0.7-0.4-1.3-0.4-2l0.2-0.2l0,0l0.2,0.4
	c0,0.2,0,0.4,0.2,0.7c0.4,1.8,0.9,3.5,1.3,5c0.4,1.8,0.9,3.5,1.5,5.3l0.2,0.4c0.2,0.9,0.4,2,0.9,2.8c0.2,0.4,0.2,0.9,0.4,1.3
	c0.2,0.9,0.4,1.5,0.7,2.4c0,0.4,0.2,0.7,0.7,0.7c0.4,0.2,1.1,0.2,1.5,0.4c0.4,0.2,0.9,0.2,1.3,0.4c0.4,0,0.7,0.2,1.1,0.2
	c0.2,0,0.7,0.2,0.9,0.2l0.4,0.2c0.9,0.2,1.8,0.4,2.8,0.9c0.9,0.2,1.5,0.4,2.4,0.7l0.7,0.2c0.2,0,0.7,0.2,0.9,0.2
	c0.7,0.2,1.5,0.4,2.4,0.7c0.2,0,0.4,0.2,0.9,0.2c0.4,0.2,0.7,0.2,1.1,0.2c0.2,0,0.2,0,0.4,0c0.4,0,0.7-0.2,0.9-0.4
	c0.2-0.2,0.7-0.7,0.9-0.9c0.7-0.4,1.1-1.1,1.8-1.8c0.2-0.2,0.4-0.7,0.9-0.9c0.2-0.2,0.4-0.2,0.4-0.4l0.4-0.4
	c0.4-0.4,0.7-0.7,1.1-1.1c0.2-0.2,0.4-0.4,0.7-0.9c0.2-0.2,0.4-0.4,0.7-0.7c0.2-0.2,0.7-0.7,0.9-0.9l0.9-0.9
	c0.4-0.2,0.7-0.7,1.1-0.9c0.2-0.2,0.4-0.4,0.7-0.7c0.2-0.2,0.4-0.4,0.7-0.7c0.4-0.4,0.4-1.1,0.2-1.5c-0.2-0.2-0.2-0.7-0.4-1.1
	c0-0.2,0-0.4-0.2-0.7c-0.2-0.4-0.2-0.9-0.4-1.5c-0.2-0.7-0.4-1.3-0.4-2c-0.2-0.9-0.4-1.5-0.7-2.4c-0.2-0.7-0.4-1.5-0.7-2.2
	c0-0.2-0.2-0.2-0.2-0.4c0-0.2-0.2-0.2-0.2-0.4c-0.2-0.9-0.4-1.8-0.7-2.6c-0.2-0.7-0.2-1.1-0.4-1.8c0-0.4-0.2-0.9-0.4-1.5
	c-0.2-0.7-0.2-1.1-0.4-1.8c0-0.7-0.4-0.9-0.9-1.1c-0.7-0.2-1.3-0.4-2.2-0.7c-0.4-0.2-0.9-0.2-1.3-0.4c-2-0.4-3.5-0.9-5-1.5
	c-0.2,0-0.4-0.2-0.7-0.2c-0.2,0-0.7-0.2-0.9-0.2c-1.3-0.4-2.6-0.7-4.2-1.1C94,83,93.6,83,93.1,83c-0.2,0-0.7,0-0.9,0.2
	c-0.2,0-0.2,0.2-0.4,0.4l-1.1,1.1c-0.7,0.7-1.5,1.3-2.2,2c-0.4,0.2-0.7,0.7-0.9,0.9c-0.7,0.7-1.3,1.3-2.2,1.8
	c-0.4,0.2-0.7,0.7-1.1,0.9c-0.2,0.2-0.4,0.4-0.4,0.4c-0.2,0.2-0.4,0.2-0.7,0.4c-0.2,0.2-0.4,0.2-0.7,0.4l0.2-0.2
	c0.2-0.2,0.4-0.4,0.7-0.4c0.4-0.2,0.7-0.7,1.1-1.1c0.9-1.3,2.2-2.4,3.5-3.5c0.7-0.4,1.1-1.1,1.8-1.5c0.7-0.7,1.3-1.1,2-1.8
	c0.2-0.2,0.2-0.2,0.4-0.2c0.2-0.2,0.7-0.4,0.9-0.7c0.9,0.2,1.8,0.4,2.4,0.7c0.4,0.2,1.1,0.2,1.5,0.4c1.5,0.4,2.8,0.9,4.2,1.3
	c0.4,0.2,1.1,0.2,1.5,0.4c0.9,0.2,1.8,0.7,2.8,0.7c0.4,0,0.7,0.2,1.1,0.4c0.2,0,0.4,0.2,0.9,0.2h0.2c0.7,0.2,1.3,0.4,1.8,0.4
	c0.2,0,0.4,0,0.4,0.2c0.2,0,0.4,0.2,0.7,0.2c0.2,0.9,0.4,1.8,0.7,2.6c0.2,0.7,0.4,1.3,0.4,2c0,0.4,0.2,0.9,0.4,1.5
	c0.2,0.7,0.4,1.5,0.4,2.2c0,0.2,0.2,0.4,0.2,0.7v0.2c0.4,1.3,0.7,2.6,0.9,3.9c0.2,0.7,0.2,1.1,0.4,1.8c0,0.4,0.2,0.7,0.2,1.1
	c0,0.2,0.2,0.7,0.2,0.9c0,0.4,0.2,0.9,0.2,1.3c0.2,0.4,0.2,1.1,0.4,1.8c-0.2,0.2-0.4,0.4-0.9,0.7l-0.2,0.2l-0.2,0.2
	c-0.2,0.2-0.4,0.4-0.7,0.7c-0.4,0.4-0.9,0.9-1.3,1.3c-0.4,0.4-0.9,0.9-1.3,1.3c-0.4,0.4-0.9,0.9-1.3,1.3s-0.9,0.9-1.3,1.3
	c-0.4,0.4-0.9,0.9-1.3,1.3c-0.4,0.4-0.9,0.9-1.3,1.3c-0.4,0.7-1.1,1.1-1.5,1.8c-0.4,0.2-0.7,0.7-1.1,1.1l-0.2,0.2c0,0,0,0,0,0.2
	h-0.2c-0.2-0.2-0.7-0.2-0.9-0.2s-0.4,0-0.7-0.2c-0.4-0.2-0.9-0.2-1.1-0.4c-0.2,0-0.4-0.2-0.7-0.2c-0.9-0.2-1.8-0.7-2.8-0.9
	c-0.7-0.2-1.1-0.4-1.8-0.4c-0.2,0-0.4-0.2-0.7-0.2c-0.4-0.2-0.9-0.2-1.5-0.4c-0.2,0-0.7-0.2-0.9-0.2c-0.4-0.2-0.7-0.2-1.1-0.4
	c-0.7-0.2-1.3-0.2-2-0.4C87.9,116.7,87.2,116.5,86.3,116.2z M57.6,76.8L57.6,76.8c0.4-0.2,0.9-0.7,1.1-0.9c0.4-0.2,0.9-0.7,1.3-0.7
	h0.2c0.2,0,0.2-0.2,0.4-0.2l0,0c0.2,0,0.4,0.2,0.7,0.2c0.2,0.2,0.4,0.4,0.7,0.9l0.7,0.7c0.2,0.2,0.4,0.4,0.7,0.7
	c0.2,0.2,0.4,0.7,0.7,0.9v0.2c-0.2,0.2-0.4,0.7-0.4,0.9c-0.4,0.4-1.3,0.9-2.2,0.9c-0.4,0-1.1,0-1.8,0c-0.2,0-0.4,0-0.4,0H59
	c0,0-0.2-0.2-0.4-0.4c-0.2-0.4-0.4-0.9-0.7-1.5c0-0.2-0.2-0.7-0.2-0.9C57.4,77.3,57.4,77.1,57.6,76.8z M105.8,93
	c-0.2,0.2-0.4,0.4-0.7,0.4l-0.9,0.9c-0.2,0.2-1.1,0.4-1.3,0.4h-0.2c0,0,0,0-0.2,0c0.7-0.4,1.1-1.1,1.5-1.8c0.2-0.4,0.7-0.7,1.1-0.9
	c0.2,0,0.4-0.2,0.4,0l0.2,0.2C106.3,92.6,106,92.8,105.8,93z M104.3,90.6c-0.2,0.2-0.7,0.4-0.9,0.9c-0.2,0.2-0.7,0.4-0.9,0.7
	c-0.4,0.2-0.7,0.4-0.9,0.7c-0.2,0.2-0.2,0.2-0.4,0.2c-0.4,0.2-0.7,0.4-0.9,0.7c-0.2,0.2-0.2,0.2-0.4,0.2c-0.4,0.2-0.7,0.4-0.9,0.7
	l0,0c-0.2-0.4-0.4-1.1-0.7-2c-0.7-2.2-1.3-3.9-1.5-4.8l0.7,0.2c0.9,0.4,2,0.7,2.8,0.9c0.4,0,0.7,0.2,1.1,0.4
	c0.7,0.2,1.5,0.4,2.2,0.7c0.4,0,0.7,0.2,1.1,0.4C104.5,90.4,104.3,90.6,104.3,90.6z M94.9,96.5c0.2,0,0.4-0.2,0.7-0.4
	c0.2,0,0.2,0.2,0.7,0c0,0,0.2,0,0.4,0.2c0.2,0,0.2,0,0.4,0.2l1.1,0.2c0,0,0.2,0.2,0.4,0.2c0.4,0,1.1,0.2,1.5,0.4
	c0.4,0.2,0.9,0.4,1.3,0.4c0.2,1.1,0.7,2.2,1.1,3.3c0,0.2,0.2,0.4,0.2,0.7c0.2,0.4,0.2,0.9,0.4,1.1c0.2,0.9,0,1.3-0.4,2
	c-0.2,0.2-0.2,0.4-0.4,0.7l-0.2,0.2l0,0c-0.2,0.2-0.4,0.4-0.4,0.7l-0.2,0.2c-0.4,0.4-0.9,0.9-1.5,1.3h-0.2c-0.4,0.2-0.7,0.2-1.1,0.2
	c-0.9,0-1.8-0.2-2.6-0.4c-0.7-0.2-1.3-0.4-2-0.4h-0.2c-0.2,0-0.2,0-0.4-0.2c-0.2-0.4-0.2-0.7-0.4-1.1c-0.2-0.4-0.2-0.7-0.4-1.1
	c-0.4-0.9-0.7-2-0.9-2.8l-0.4-1.1v-0.2c1.1-0.9,2-2,3.1-3.1L94.9,96.5L94.9,96.5z M88.3,111.2c0.2-0.2,0.4-0.4,0.7-0.7
	c0.2-0.4,0.7-0.7,0.9-0.9c0,0,0.2,0,0.2-0.2c0.2,0,0.2-0.2,0.4-0.2s0.2-0.2,0.2-0.2l0,0c0,0,0,0,0.2,0c0,0.2,0,0.2-0.2,0.4
	c-0.2,0.7-0.7,1.1-1.3,1.5l-0.4,0.4c-0.2,0.2-0.4,0.4-0.4,0.4c-0.2,0.2-0.2,0-0.4-0.2C88.1,111.4,88.3,111.4,88.3,111.2z
	 M99.9,111.2c0,0,0,0.2,0.2,0.2c0.2,0.2,0.2,0.4,0.4,0.7c0.4,1.1,0.7,2.2,0.4,3.5l0,0v-0.2l-0.2-0.7c-0.2-0.4-0.2-0.9-0.4-1.3
	c-0.2-0.7-0.4-1.3-0.7-2v-0.2c0,0,0,0,0-0.2C99.5,111,99.7,111,99.9,111.2z M83,97.6c0.2,0,0.7,0,0.9,0s0.4,0,0.7,0h0.2
	c0.4,0,1.1,0.2,1.5,0.2h0.4c0.4,0,0.9,0.2,1.3,0.4c0.2,0,0.4,0.2,0.9,0.4c0,0,0,0,0,0.2c-0.2,0-0.4,0.2-0.7,0.2h-0.2
	c-1.1,0-2.2-0.2-3.3-0.4c-0.2,0-0.2,0-0.4,0c-0.4,0-0.7,0.2-0.9,0.7C83.5,98.7,83.3,98.1,83,97.6z M84.4,100.5L84.4,100.5
	c1.1,0.4,1.8,0.7,2.4,1.1c0.2,0,0.2,0.2,0.4,0.2l0.2,0.2c0,0,0.2,0.2,0.4,0.2c0,0,0,0,0.2,0l0.2,0.2c0.7,0.7,1.3,1.3,1.5,2.2
	c0,0.2,0,0.2,0.2,0.2c0.2,0.2,0.2,0.2,0.2,0.7v0.2c0,0.2,0,0.2-0.2,0.7c-0.7,0.7-1.1,1.3-1.8,2l-0.4,0.7c0,0-0.2,0-0.2,0.2l-1.1,1.1
	c0-0.2,0-0.4-0.2-0.7v-0.4c0-0.4-0.2-0.7-0.2-1.1c-0.2-0.4-0.2-0.9-0.2-1.3c-0.2-0.9-0.4-1.8-0.7-2.4c-0.2-0.9-0.4-1.8-0.7-2.6
	c0-0.2-0.2-0.4-0.2-0.7v-0.2c0-0.2-0.2-0.4-0.2-0.9C83.9,100.3,84.1,100.5,84.4,100.5z M90.1,113.4l0.4-0.4c0.4-0.4,0.9-0.7,1.3-1.1
	H92c0.2,0,0.4-0.2,0.9-0.7l0.2-0.2c0.2,0,0.4,0,0.7-0.2c0.2-0.2,0.7-0.4,1.1-0.7c0.2,0,0.2-0.2,0.4-0.2s0.2-0.2,0.4-0.2
	c0.2,0,0.2,0,0.2,0s0.2,0,0.4,0.2l0.4,0.4c0.7,0.7,1.1,1.5,1.5,2.4l0.2,0.4c0.2,0.7,0.7,1.5,0.9,2.2c0.2,0.4,0.4,0.7,0.4,1.1
	c-0.2,0-0.7,0-1.1-0.2c-0.2,0-0.2,0-0.4-0.2c-0.9-0.2-1.8-0.7-2.6-0.9l-2.4-0.9c-0.7-0.2-1.3-0.4-2-0.7c-0.4-0.2-0.7-0.2-1.1-0.2
	C89.8,113.6,90.1,113.4,90.1,113.4z M103.6,113.2c-0.2-0.9-0.4-1.5-0.4-2.4c0-0.4,0-1.1,0-1.5v-0.4c0-0.2,0-0.2,0-0.4v-0.2
	c0-0.4,0.4-0.9,0.9-0.9c0,0,0,0,0.2,0s0.7,0.2,1.1,0.2l0.4,0.2c0.4,0.2,1.1,0.4,1.5,0.7c0.4,0.2,0.9,0.2,1.1,0.4
	c0.2,0,0.4,0,0.7,0.2c0.2,0,0.2,0,0.4,0l-0.2,0.2c-0.4,0.2-0.7,0.7-1.1,1.1c-0.2,0.4-0.7,0.9-1.1,1.3c-0.2,0.2-0.7,0.4-0.9,0.9
	l-0.4,0.4c-0.2,0.4-0.7,0.7-0.9,1.1c-0.2,0.2-0.7,0.7-0.9,0.9l0,0C103.8,114.5,103.6,113.8,103.6,113.2z M107.8,102.7
	c-0.4-0.2-0.7-0.4-0.9-0.7c-0.2-0.2-0.4-0.4-0.7-0.7c-0.2,0-0.2-0.2-0.4-0.2c-0.2-0.2-0.4-0.4-0.7-0.7l-0.2-0.2
	c-0.2-0.2-0.4-0.7-0.4-0.9c0-0.4,0.2-0.7,0.4-1.1l0,0c0.2-0.2,0.4-0.4,0.4-1.1c0.4-0.2,0.7-0.7,0.7-0.9c0,0,0-0.2,0.2-0.2
	c0.2-0.2,0.4-0.4,0.7-0.9c0.2-0.2,0.4-0.7,0.7-0.9c0.4,1.1,0.7,2.2,1.1,3.3c0.2,0.7,0.4,1.3,0.7,2l0.2,0.4c0.2,0.7,0.4,1.1,0.4,1.5
	c0.2,0.7,0.2,1.1,0.4,1.8c0,0.2,0.2,0.4,0.2,0.7C110,103.8,108.9,103.3,107.8,102.7z M92,92.6c0.2,1.1,0.2,2.2,0.2,3.1
	c0,0.2,0,0.2,0,0.4c0,0.2,0,0.2,0,0.4h-0.4c-0.7,0-1.1,0-1.8-0.2c-0.4-0.2-1.1-0.2-1.5-0.4c-0.2,0-0.4,0-0.7-0.2
	c-0.4-0.2-1.1-0.2-1.8-0.2c-0.4,0-1.1,0-1.8,0.2c-0.4,0-0.9,0.2-1.3,0.2l0.4-0.2c0.2-0.2,0.4-0.4,0.9-0.7c0.2-0.2,0.4-0.2,0.4-0.4
	c0.2-0.2,0.7-0.4,0.9-0.9c0.4-0.4,0.7-0.9,1.1-0.9c0.4-0.2,0.9-0.7,1.3-1.1c0.2-0.2,0.4-0.4,0.9-0.7c0.7-0.4,1.1-0.9,1.8-1.3
	c0.4-0.2,0.7-0.7,1.1-0.9l0,0c0,0.4,0.2,1.1,0.2,1.5C91.8,90.8,91.8,91.7,92,92.6z M76,93.5h-0.2c-1.5,0-2.8-0.4-4.4-1.1
	c-0.4-0.2-0.7-0.2-1.1-0.4c-0.7-0.2-1.3-0.4-2-0.7c-0.9-0.2-1.5-0.7-2.4-0.9s-1.8-0.7-2.6-0.9h-0.2l3.7-3.5l0,0
	c0.4,0.4,1.1,0.7,1.5,0.9c0.2,0.2,0.4,0.2,0.7,0.4c0.2,0.2,0.7,0.4,1.1,0.4c0.4,0.2,0.7,0.4,1.1,0.7c0.4,0.2,0.9,0.4,1.3,0.7
	c0.4,0.2,0.9,0.4,1.3,0.7c0.7,0.4,1.5,0.9,2.2,1.1l0.7,0.4c0.4,0.2,0.9,0.4,1.1,0.7c0.4,0.2,0.7,0.4,1.1,0.7c-0.2,0-0.4,0.2-0.7,0.2
	C77.4,93.5,76.7,93.7,76,93.5z M63.6,93.5c0.7,0.2,1.1,0.2,1.8,0.4c0.7,0.2,1.3,0.4,2,0.4l1.5,0.4c0.4,0.2,0.9,0.2,1.3,0.4
	c0.4,0.2,1.1,0.4,1.8,0.4c0.9,0.2,1.5,0.4,2.2,0.7c0.4,0.2,0.9,0.4,1.3,0.7c0.2,0.2,0.7,0.2,0.9,0.4l0.2,0.2l0.2,0.2c0,0,0,0,0.2,0
	l0.2,0.2c0.2,0.2,0.4,0.4,0.4,0.9c-0.4,0-1.1,0-1.5,0c-0.9,0-1.8,0-2.6,0c-0.7,0-1.3,0-2,0c-0.7,0-1.1,0-1.8,0c-0.7,0-1.5,0-2.2,0
	c-0.7,0-1.5,0-2.2,0c-0.4,0-0.9,0-1.1,0H64c-0.2-1.1-0.7-2.4-1.1-3.5l-0.4-1.8c-0.2-0.4-0.2-0.9-0.4-1.3
	C62.2,93,62.9,93.3,63.6,93.5z M52.8,100.5c0.2,0,0.4,0.2,0.7,0.2c0.7,0.4,1.3,0.9,2,1.3c0.2,0,0.2,0.2,0.4,0.2
	c0.2,0.2,0.4,0.2,0.4,0.4l0,0c0,0,0,0,0,0.2l-0.2,0.2c-0.2,0.2-0.2,0.2-0.4,0.4c-0.7,0.9-1.5,1.3-2.6,1.5c-0.7,0.2-1.1,0.2-1.5,0.2
	c-0.2,0-0.2,0-0.7-0.4c-0.4-0.4-0.7-1.1-1.1-1.8c-0.2-0.4-0.2-0.7-0.4-1.1v-0.2l0.2-0.2C50.6,101.1,51.5,100.7,52.8,100.5
	L52.8,100.5z M59.4,98.3c-0.2-0.4-0.2-0.9-0.4-1.5l-0.2-0.9c-0.2-0.7-0.4-1.5-0.4-2.2c0-0.2-0.2-0.4-0.2-0.7c0-0.4-0.2-0.7-0.2-1.1
	c0-0.2-0.2-0.7-0.2-0.9c0-0.2-0.2-0.4-0.2-0.4l0,0c1.1-0.9,2-2,3.1-2.8l4.8-4.6c0.2,0,0.4,0.2,0.4,0.2c0.2,0,0.4,0.2,0.7,0.2
	c0,0-0.2,0-0.2,0.2L66,84.1c-0.2,0-0.4,0.2-0.4,0.2c-0.2,0.2-0.4,0.2-0.4,0.4l-0.2,0.2c-1.3,0.9-2.4,2-3.5,3.1
	c-0.7,0.7-1.1,1.1-1.8,1.8c-0.2,0.2-0.2,0.2-0.4,0.4C59,90.4,59,90.8,59,91.1c0,0.4,0.2,0.9,0.2,1.3c0.2,0.7,0.2,1.3,0.4,1.8
	c0.2,0.7,0.4,1.5,0.7,2.2l0.2,1.1c0.2,0.9,0.4,1.8,0.7,2.6c0,0.2,0,0.2,0,0.4c0,0.2,0,0.4,0,0.7c0,0.2,0,0.4-0.4,0.7l0,0l0,0
	l-0.2-0.9C59.8,99.8,59.6,99.2,59.4,98.3z M79.3,72.7c-0.2-0.2-0.2-0.2-0.2-0.2c0-0.2,0-0.2-0.2-0.4c-0.2-0.2-0.4-0.7-0.7-1.1
	c-0.2-0.2-0.2-0.4-0.4-0.7l2.6-2.6c2.4-2.4,4.8-4.6,7.2-7c0.4-0.4,0.7-0.4,0.9-0.2c0.7,0.2,1.5,0.4,2.2,0.7l1.3,0.2
	c0.9,0.2,1.5,0.4,2.4,0.7c0.4,0.2,0.9,0.2,1.5,0.4c0.7,0.2,1.3,0.4,2,0.7c0,0.7,0,1.3,0,2c-0.2-0.2-0.4-0.2-0.7-0.2
	c-0.4-0.2-0.9-0.2-1.3-0.4c-0.9-0.2-1.8-0.7-2.6-0.9c-0.4-0.2-1.1-0.2-1.5-0.4c-0.7-0.2-1.5-0.4-2.2-0.7c0,0-0.2,0-0.2-0.2
	c-0.2,0-0.2-0.2-0.4-0.2c-0.7-0.2-1.3,0-1.8,0.4c-0.4,0.4-0.9,0.9-1.3,1.1L85,64.1c-0.2,0.2-0.4,0.4-0.7,0.7
	c-0.2,0.2-0.7,0.7-0.9,0.9c-0.9,1.1-2,2-2.8,2.8l-0.2,0.2c-0.2,0.4-0.7,0.7-0.9,1.1c-0.2,0.2-0.4,0.2-0.4,0.4
	c-0.2,0.2-0.2,0.9,0,1.1C79.1,72.2,79.1,72.5,79.3,72.7c0.2,0,0.2,0.2,0.2,0.4C79.5,72.9,79.3,72.7,79.3,72.7z M82.4,47.9
	c-0.2-0.7-0.4-1.5-0.7-2.2c-0.2-0.4-0.2-1.1-0.4-1.5c-0.2-0.7-0.2-1.3-0.4-2c0-0.2-0.2-0.7-0.2-0.9s-0.2-0.4-0.2-0.7
	c-0.2-0.4-0.2-0.9-0.2-1.3S80,38.5,80,38.3s0-0.4-0.2-0.7c0,0,0,0,0-0.2c0,0,0-0.2,0.2-0.2l0,0c0,0,0.2,0,0.2-0.2
	c0.4-0.2,0.9-0.2,1.5-0.2c0.2,0,0.2,0,0.2,0V37c0.7,1.1,1.1,2.2,1.3,3.7c0,0.4,0.2,0.9,0.2,1.3c0.2,0.7,0.4,1.3,0.4,2
	c0,0.2,0.2,0.4,0.2,0.7c0,0.2,0,0.2,0.2,0.4c0.2,0.7,0.4,1.5,0.4,2.2c0.2,1.1,0.4,2,0.7,3.1c0,0.4,0.2,1.1,0.4,1.5
	c0.2,0.9,0.4,1.8,0.7,2.8c0,0.7,0.2,1.3,0.2,2c0,0.2-0.2,0.4-0.4,0.7c0,0,0,0-0.2,0c-0.4,0-1.1-0.2-1.5-0.7
	c-0.2-0.2-0.4-0.7-0.7-1.5c-0.4-1.1-0.7-2.4-1.1-3.5c0-0.4-0.2-0.7-0.2-1.1c-0.2-0.7-0.4-1.3-0.4-2C82.6,47.9,82.4,47.9,82.4,47.9z
	 M75.2,15.5L75.2,15.5c0-0.2,0.2-0.4,0.4-0.4h0.2H76c0.2,0,0.4,0.2,0.7,0.4l0.2,0.2c0.2,0.2,0.4,0.7,0.7,1.1c0,0.2,0.2,0.4,0.2,0.7
	v0.2c0,0.2,0.2,0.7,0.4,0.9c0,0,0,0,0,0.2s0,0.2,0,0.4c0.2,0.4,0.2,0.9,0.4,1.3c0.2,1.1,0.7,2,0.9,3.1c0.4,1.5,0.9,3.1,1.1,4.8
	c0.2,1.1,0.4,2,0.2,2.8c0,0.7-0.4,1.3-0.9,1.8c0,0-0.2,0-0.2-0.2c-0.4-0.4-0.7-0.9-1.1-1.5v-0.2c-0.2-0.7-0.7-1.3-0.7-2
	c-0.2-0.7-0.4-1.3-0.4-1.8c-0.2-0.7-0.2-1.3-0.4-2c-0.2-1.1-0.7-2.2-0.9-3.3c-0.2-0.7-0.2-1.3-0.4-2c-0.2-0.9-0.4-1.8-0.7-2.8
	C74.9,16.8,75.2,16.2,75.2,15.5z M87.6,67.9c0,0.2,0.2,0.4,0.2,0.9c0.2,0.4,0.2,0.7,0.2,1.1s0.2,0.7,0.2,1.1c0,0.2,0.2,0.2,0.2,0.4
	c0.4,1.3,0.9,2.8,1.1,4.2l0.2,0.9c0.2,1.1,0.7,2.4,0.9,3.7c0,0.4,0,0.7,0,1.1c0,0,0,0.2-0.2,0.2l-0.2,0.2c-0.2,0.2-0.4,0.4-0.7,0.4
	c-0.2,0.2-0.4,0.2-0.7,0.4l0,0c0-0.2-0.2-0.2-0.2-0.4c-0.2-0.4-0.4-0.9-0.9-1.3c0-0.2-0.2-0.2-0.2-0.4c-0.2-0.2-0.2-0.7-0.7-0.9
	c0-0.4-0.2-0.7-0.4-0.9l-0.2-0.2c0-0.4-0.2-0.7-0.4-0.9l-0.2-0.2c-0.2-0.4-0.7-1.1-0.9-1.5c-0.2-0.2-0.2-0.4-0.4-0.7l-0.4-0.7
	c-0.2-0.4-0.4-0.9-0.7-1.3c-0.2-0.4-0.4-0.7-0.7-1.1l-0.2-0.7l0,0c0.7-0.7,1.3-1.3,2-1.8l3.1-2.8C87.4,67.2,87.4,67.4,87.6,67.9z
	 M94.6,80.1c0,0,0-0.2-0.2-0.2c0-0.2-0.2-0.2-0.2-0.4c0,0,0-0.2-0.2-0.2c0-0.2,0-0.4-0.2-0.4c-0.4-0.9-0.9-2-1.1-3.1
	c-0.2-0.4-0.2-0.7-0.4-1.1c-0.4-1.1-0.9-2.4-1.1-3.7c0-0.4-0.2-0.7-0.2-1.1c-0.2-0.7-0.4-1.3-0.4-2c0-0.2,0-0.4-0.2-0.4
	c-0.2-0.4-0.2-1.1,0-1.5c0.2,0,0.7,0,0.9,0.2c0.2,0,0.2,0,0.4,0.2c0.9,0.2,1.8,0.7,2.8,0.9l1.1,0.4h0.2l0,0c0,0.2,0,0.2,0,0.4
	c0,0.2,0,0.4,0,0.4c0,0.2,0,0.4,0,0.7V70c0,0.7,0,1.5,0,2.4c0,0.4,0,0.9,0,1.3s0,0.9,0,1.3c0,0.9,0,1.5,0,2.4c0,0.4,0,0.9,0,1.3
	c0,0.9,0,1.8,0,2.6C95.7,80.8,95.3,80.6,94.6,80.1L94.6,80.1z M102.3,56.3c0,0.2,0,0.4,0,0.7c0,0.2,0,0.7,0.2,0.9l0,0
	c0,0-0.2,0-0.2,0.2c-0.9,0.7-1.8,0.9-2.8,1.3l-0.9,0.4c-0.2,0-0.4,0.2-0.7,0.4l0,0c-0.2-0.7-0.4-1.3-0.7-2.2l-0.2-0.4
	c-0.2-0.7-0.2-1.1-0.4-1.8c0-0.4,0-0.9,0.2-1.3l0.2-0.2l0.2-0.2c0.7-0.7,1.5-1.1,3.1-1.3l1.1-0.2c0,0.4,0.2,1.1,0.2,1.5
	C102.1,54.7,102.3,55.4,102.3,56.3z M115,60.2c0.2-0.2,0.4-0.4,0.7-0.7c0.2,0,0.4-0.2,0.7-0.2c0.4-0.2,0.7-0.4,1.1-0.4
	c0.2,0,0.2,0,0.4-0.2h0.2h0.2l0,0c0.4,0.4,0.7,0.9,1.1,1.5c0,0.2,0.2,0.4,0.2,0.4c0,0.2,0.2,0.2,0.2,0.4s0,0.2,0.2,0.4l0.2,0.4
	c0,0.2-0.2,0.7-0.2,0.9c-0.2,0.2-0.4,0.4-0.7,0.7c-0.2,0.2-0.2,0.2-0.4,0.4c-0.2,0.2-0.4,0.7-0.7,0.9l-0.2,0.2l-0.2,0.2l-0.2,0.2
	c-0.2,0-0.4-0.2-0.7-0.2h-0.2c-0.2-0.2-0.7-0.4-0.9-0.7c-0.2-0.2-0.7-0.4-0.9-0.7c-0.2-0.2-0.2-0.4-0.2-0.7
	C114.4,61.9,114.6,61.1,115,60.2z M133.2,67.4c0.2-0.2,0.4-0.4,0.7-0.9l0.4-0.4c0.2-0.4,0.7-0.7,0.9-1.1c1.1-1.3,2.4-2.6,3.7-3.7
	c0.7-0.7,1.5-1.3,2.2-2.2c0,0,0,0,0-0.2c0.4-0.7,1.1-1.3,1.8-1.8c0.2-0.2,0.7-0.7,0.9-0.9l0.2-0.2c0.2-0.2,0.2-0.2,0.2-0.2
	c0.2,0,0.2,0,0.4-0.2c0.4,0.4,0.9,0.7,1.1,1.1l0.4,0.4l0,0c0,0,0.2,0,0.2,0.2l-0.2,0.2l0,0c0,0-0.2,0-0.2,0.2l-0.4,0.7
	c-0.4,0.4-0.7,0.9-1.1,1.3c-0.2,0.2-0.4,0.4-0.7,0.7c-0.4,0.4-0.9,0.9-1.3,1.3c-0.7,0.9-1.5,1.5-2.4,2.4c-0.4,0.4-0.9,0.9-1.3,1.1
	c-1.1,1.1-2.4,2.4-3.7,3.5c-0.7,0.7-1.3,0.9-2.2,0.9c-0.2,0-0.7,0-0.9,0h-0.4l0,0l0,0c0-0.2,0.2-0.4,0.4-0.7l0.2-0.4
	c0.2-0.2,0.4-0.7,0.7-0.9C133.2,67.6,133.2,67.6,133.2,67.4z M160.8,42c0.2,0,0.4,0,0.9,0c0.2,0,0.4,0,0.7,0.2l-0.2,0.2
	c-0.2,0.2-0.4,0.4-0.4,0.7c-0.2,0.2-0.4,0.4-0.7,0.7c-0.2,0.2-0.2,0.2-0.4,0.4s-0.7,0.7-0.9,0.9c-0.2,0.4-0.7,0.9-1.1,1.1
	c-0.2,0.2-0.4,0.4-0.7,0.7c-0.2,0.2-0.4,0.4-0.4,0.7c-0.2,0.2-0.4,0.4-0.7,0.7c-0.4,0.4-1.1,0.9-1.5,1.5c-0.4,0.4-0.9,0.9-1.3,1.3
	s-0.9,0.9-1.3,1.3c-0.7,0.7-1.3,1.3-2,2l0,0l0,0h-0.2c-0.2,0-0.7-0.2-0.9-0.4s-0.7-0.2-1.1-0.4l0,0l0,0c0,0,0,0,0-0.2
	c0.2-0.4,0.4-0.7,0.7-0.9c1.1-1.1,2.4-2.2,3.5-3.3l2.8-2.6c1.1-1.1,2.2-2.2,3.5-3.3C159.2,42.7,159.9,42.2,160.8,42z M129.5,72.5
	C129.5,72.5,129.7,72.5,129.5,72.5C129.7,72.5,129.7,72.5,129.5,72.5l0.4,1.3c0.2,0.9,0.4,1.5,0.7,2.4c0.2,0.4,0.2,0.9,0.4,1.3
	s0.2,0.7,0.4,1.1s0.2,0.9,0.4,1.5c0,0.4,0.2,0.7,0.2,1.1c0,0.2,0.2,0.4,0.2,0.7v0.2c-0.4,0.2-0.7,0.4-1.1,0.7c0,0,0,0-0.2,0
	c0-0.2,0-0.2,0-0.2c-0.2-0.7-0.2-1.3-0.4-2l-0.2-0.7c0-0.2,0-0.2,0-0.4c0-0.4,0-0.7-0.2-1.1s-0.2-0.7-0.4-1.1
	c-0.2-0.7-0.4-1.3-0.7-2c-0.4-0.9-1.1-1.5-1.8-1.8c-0.2,0-0.7-0.2-0.9-0.4c-0.7-0.4-1.5-0.7-2.4-0.9c-0.9-0.4-1.8-0.7-2.6-0.9
	c-0.4,0-0.9-0.2-1.3-0.4l-0.9-0.2c-0.9-0.2-1.8-0.4-2.6-0.9c-0.4-0.2-0.9-0.2-1.1-0.4l0,0v-0.2l0.2-0.2c0.4-0.4,0.7-0.4,1.1-0.2
	c0.2,0,0.7,0.2,0.9,0.2s0.7,0,0.9,0.2l1.1,0.2c0.7,0.2,1.1,0.4,1.8,0.4c0.4,0.2,0.9,0.2,1.3,0.4c0.7,0.2,1.3,0.4,2,0.7
	c0.2,0,0.4,0.2,0.7,0.2c0.2,0,0.4,0.2,0.7,0.2c0.7,0.2,1.3,0.4,2,0.7L129.5,72.5z M141.1,97c0.4,0,0.7-0.2,0.9-0.4l0,0l0.2-0.2
	c0.2-0.2,0.4-0.2,0.7-0.4c0.4-0.2,0.9-0.2,1.5,0.2c0.7,0.4,1.5,0.9,2,1.3c0.9,0.4,0.9,1.1,0.9,1.3c0,0.2,0,0.7,0,0.9
	c0,0.2,0,0.4,0,0.7c-0.2,0.7-0.2,0.9-0.9,0.9c-0.2,0-0.4,0.2-0.4,0.2c-0.4,0.2-1.1,0.4-1.5,0.4c-0.4,0-0.9,0-1.5-0.4
	c-0.7-0.4-1.1-0.9-1.5-1.3l-0.4-0.4c-0.2-0.2-0.4-0.4-0.4-0.7c-0.2-0.2-0.2-0.9,0-1.1l0,0C140.6,97.9,141.1,97.6,141.1,97
	C141.1,97.2,141.1,97,141.1,97L141.1,97z M140.6,114.7c-0.2,0.2-0.4,0.7-0.9,0.9c-0.4,0.4-0.9,0.9-1.3,1.3l-3.5,3.3
	c-0.9,0.9-1.8,1.8-2.6,2.6c-0.2,0.2-0.7,0.4-1.1,0.7l-0.2,0.2c-0.2,0.2-0.7,0.2-1.1,0.2l0,0c1.1-1.1,2.2-2.2,3.3-3.3
	c1.1-1.1,2.2-2.4,3.5-3.5c0.4-0.4,0.9-0.9,1.3-1.3c0.2-0.2,0.7-0.7,0.9-0.9c0.4-0.4,0.4-0.9,0.2-1.1c-0.2-0.9-0.4-1.5-0.4-2.4
	c0-0.4-0.2-0.9-0.2-1.3s-0.2-0.9-0.2-1.1c0-0.4-0.2-0.7-0.2-1.1c-0.2-0.7-0.2-1.1-0.4-1.8s-0.2-1.3-0.4-2c0-0.2-0.2-0.4-0.2-0.9
	c0-0.2-0.2-0.7-0.2-0.9c0-0.2-0.2-0.9-1.1-0.9c-0.2,0-0.4,0-0.7,0c0.7,0,1.3,0,2.2,0h0.2c0,0,0,0,0,0.2c0.4,1.5,0.9,2.8,1.3,4.2
	c0.4,1.1,0.7,2.4,1.1,3.5c0.2,0.7,0.4,1.5,0.7,2.2c0.2,0.9,0.4,1.8,0.7,2.6C141.1,114.1,140.8,114.5,140.6,114.7z M99.5,133.1
	c0-1.3,0-2.4,0-3.7c0-0.9,0-1.5,0-2.4c0-0.7,0-1.3,0-2s0-1.1,0-1.8c0,0,0,0,0-0.2h1.5c0.2,0,0.2,0,0.4,0c0.2,0,0.2,0,0.4,0h0.2
	c0.2,0,0.4,0,0.7,0c0,0,0,0,0.2,0v0.2l0.4,1.5c0.2,1.1,0.4,2,0.9,3.1c0.2,1.1,0.7,2.4,0.9,3.5l0.4,1.8c0.2,0.7,0.4,1.3,0.4,2
	c0.2,1.1,0.4,2,0.9,3.1l0.2,0.7v0.2h-0.2c-0.7-0.2-1.1-0.2-1.8-0.4c-0.2,0-0.7-0.2-0.9-0.2c-0.9-0.2-1.5-0.4-2.4-0.7
	c-0.7-0.2-1.3-0.4-2-0.4c0-0.7,0-1.3,0-2C99.5,134.4,99.5,133.8,99.5,133.1z M106.3,127.6L106.3,127.6c-0.2-1.1-0.4-2-0.7-3.1v-0.4
	c0-0.7-0.2-1.1,0-1.8v-0.2v-0.2c0.2-0.2,0.4-0.4,0.7-0.7l0,0l0.2,0.2c0,0,0.2,0.2,0.2,0c0,0.2,0,0.4,0.2,0.4
	c0.4,0.4,0.9,1.1,1.1,1.8c0.2,0.2,0.2,0.4,0.4,0.9c0.2,0.2,0.2,0.4,0.4,0.7c0.4,0.7,0.7,1.1,0.9,1.8c0,0.2,0,0.2,0.2,0.2
	c0.4,0.2,0.7,0.7,0.9,1.3c0,0.2,0.2,0.4,0.2,0.4c0.2,0.2,0.2,0.4,0.4,0.7c0.2,0.4,0.4,0.7,0.7,1.1c0.2,0.4,0.4,0.7,0.7,1.1
	c0.2,0.2,0.2,0.4,0.4,0.7c0.2,0.2,0.2,0.4,0.4,0.7c0.2,0.2,0.2,0.4,0.4,0.4c-0.2,0.2-0.2,0.2-0.4,0.2h-0.2c0,0-0.2,0-0.2,0.2
	l-0.4,0.7c-0.4,0.4-0.9,0.9-1.1,1.3c-0.2,0.2-0.4,0.4-0.7,0.7c-0.4,0.4-0.9,0.7-1.3,1.3c-0.2,0.2-0.4,0.7-0.7,0.9
	c0-0.2-0.2-0.4-0.2-0.7c-0.2-0.9-0.7-2-0.9-2.8c-0.2-0.4-0.2-0.9-0.4-1.5c-0.2-0.4-0.2-0.9-0.4-1.3c-0.2-1.1-0.7-2.2-0.9-3.3
	C106.7,128.9,106.5,128.3,106.3,127.6z M114.4,89.5L114.4,89.5c-0.2-0.2-0.2-0.4-0.4-0.7l0,0c0-0.2,0-0.7,0-0.9v-0.2
	c0.4-0.2,0.7-0.4,0.7-0.7c0,0,0-0.2,0.2-0.2c3.3-3.1,6.3-6.1,9.6-9.2l2.2-2V76l0.2,0.4c0,0.2,0,0.2,0.2,0.4c0.2,0.4,0.2,0.9,0.4,1.3
	c0,0,0,0.2,0.2,0.4c0,0.2,0.2,0.7,0.4,0.9c0,0.4,0.2,0.9,0.4,1.3c0,0.2,0.2,0.4,0.2,0.7c-0.4,0.2-0.9,0.4-1.3,0.9
	c-0.4,0.2-0.7,0.4-1.1,0.7c-0.7,0.4-1.3,0.7-1.8,1.1c-0.2,0-0.2,0.2-0.4,0.2l-1.1,0.7c-0.7,0.4-1.1,0.7-1.8,1.1l-0.9,0.7
	c-1.1,0.7-2.4,1.3-3.5,2c-0.2,0.2-0.4,0.2-0.7,0.4c-0.4,0.2-0.9,0.4-1.1,0.7C114.8,89.5,114.6,89.5,114.4,89.5L114.4,89.5z
	 M115,74.2c0.2-0.2,0.2-0.4,0.4-0.7c0.4,0,0.9,0.2,1.3,0.2c0.9,0.2,2,0.4,2.8,0.4h0.2c0.4,0,0.9,0.2,1.3,0.2c0.4,0,0.9,0.2,1.3,0.2
	c0.2,0,0.4,0,0.4,0c-0.2,0.2-0.2,0.2-0.4,0.4l-0.2,0.2c-0.4,0.4-0.7,0.7-1.1,1.1c-0.7,0.7-1.1,1.3-1.8,1.8l-0.2,0.2
	c-0.2,0.4-0.7,0.9-1.1,1.3c-0.2,0.2-0.4,0.4-0.7,0.7c-0.2,0.2-0.4,0.4-0.4,0.7c-0.2,0.2-0.2,0.4-0.4,0.7c-0.4,0.4-0.9,0.7-1.3,1.3
	c-0.2,0.4-0.7,0.9-1.1,1.1c-0.2,0.2-0.4,0.4-0.9,0.9c-0.2,0.2-0.4,0.4-0.7,0.7c-0.2,0.2-0.2,0.2-0.4,0.4l0,0l-0.9-0.2
	c-0.7-0.2-1.5-0.7-2.2-0.9c0.2-0.4,0.4-0.9,0.7-1.3c0.2-0.4,0.4-0.9,0.9-1.5c0.2-0.7,0.7-1.1,0.9-1.8c0.2-0.4,0.4-0.9,0.7-1.1
	c0.2-0.4,0.4-0.7,0.4-1.1c0.7-1.3,1.3-2.4,2-3.7C114.8,74.4,115,74.4,115,74.2z M123.8,103.8c0.4,0,0.9,0,1.3,0h0.4
	c1.5,0,2.8,0,4.4,0c0.2,0,0.4,0,0.7,0c0.2,0,0.2,0,0.4,0c0.4,0.2,1.1,0.2,1.5,0.2c0.7,0,1.1,0,1.8,0l0,0c0.2,0.7,0.4,1.3,0.4,2
	c0,0.2,0.2,0.7,0.2,0.9c0.4,1.8,1.1,3.3,1.5,5c-0.7-0.2-1.5-0.4-2.2-0.7c-0.7-0.2-1.3-0.4-2-0.4c-0.7-0.2-1.3-0.4-2-0.4
	c-0.4,0-0.7-0.2-1.1-0.2c-0.7-0.2-1.1-0.2-1.8-0.4l-2-0.7c-1.1-0.2-2.2-0.7-3.1-0.9c-0.2,0-0.7-0.2-0.9-0.2c-0.4,0-0.7-0.2-1.1-0.2
	c-0.2,0-0.7-0.2-0.9-0.4c-0.4-0.2-0.9-0.4-1.3-0.4l0,0l-0.2-0.2c-0.2-0.2-0.4-0.7-0.7-1.1c0-0.2,0-0.2-0.2-0.4
	c1.3-0.4,2.4-0.7,3.7-0.7C122,103.8,122.9,103.8,123.8,103.8z M123.8,116.9c-0.9-0.4-1.8-0.9-2.4-1.5c-0.2-0.2-0.4-0.2-0.7-0.4
	c-0.2,0-0.2-0.2-0.4-0.2l-0.7-0.4c-0.9-0.7-2-1.1-2.8-1.5c-0.2,0-0.4-0.2-0.7-0.4c-0.2-0.2-0.4-0.2-0.7-0.4l0.2-0.2
	c0.4-0.4,0.9-0.9,1.3-1.1c0.9-0.7,1.5-0.9,2.2-0.7c0.4,0.2,0.9,0.2,1.5,0.2c0.2,0,0.7,0,0.9,0.2c1.1,0.2,2.2,0.4,3.1,0.9
	c1.1,0.2,2.2,0.7,3.3,0.9l1.5,0.4c1.1,0.2,2.4,0.7,3.5,0.9l0.7,0.2c0.7,0.2,1.1,0.2,1.8,0.4l-1.8,1.5c-0.4,0.2-0.7,0.7-1.1,0.9
	c-0.2,0.2-0.7,0.7-0.7,0.9c-0.2,0.2-0.4,0.4-0.7,0.7c-0.4,0.4-0.9,0.7-1.1,1.1c-0.2,0.2-0.2,0.2-0.4,0.4l-0.2,0.2l0,0
	c-0.4-0.2-1.1-0.7-1.5-0.9c-0.4-0.2-0.9-0.4-1.1-0.7c-0.7-0.4-1.5-0.9-2.2-1.3L123.8,116.9z M167.6,111.2c0.2,0,0.4-0.2,0.4-0.2
	c0.2-0.2,0.4-0.4,0.7-0.7c0.4-0.4,1.1-0.9,1.5-1.3l0.2-0.2c0.4-0.4,0.9-0.7,1.5-0.9c0.2-0.2,0.7-0.2,0.9-0.4s0.7-0.2,0.9-0.4
	c0.2,0,0.4-0.2,0.7-0.2l0,0c-0.2,0.4-0.4,0.9-0.7,1.3c-0.2,0.2-0.4,0.4-0.7,0.9l0,0c0,0-0.2,0-0.2,0.2l-0.4,0.4
	c-0.2,0.2-0.4,0.7-0.7,0.9c-0.2,0.2-0.4,0.4-0.7,0.7c-0.2,0.2-0.4,0.4-0.7,0.7c-0.2,0.2-0.2,0.4-0.4,0.4c0,0.2-0.2,0.2-0.2,0.2
	c-0.2,0-0.2,0.2-0.4,0.2c-0.4,0-0.7,0.2-0.7,0.7c-0.2,0.4-0.7,0.9-1.1,1.1c-0.2,0.2-0.4,0.4-0.9,0.7l-0.2,0.2c0-0.7-0.2-1.3-0.2-2
	s0-1.1,0.4-1.5l0.2-0.2C167.1,111.4,167.3,111.2,167.6,111.2z M163.4,118.9h0.2c0,0.2-0.2,0.2-0.2,0.4l-0.2,0.2
	c-0.2,0.2-0.2,0.4-0.2,0.7c-0.2,0.2-0.2,0.4-0.4,0.7c-0.2,0.2-0.2,0.2-0.2,0.4l0,0l-0.2,0.2c-1.1-0.4-2-0.7-3.1-0.9
	c-0.4-0.2-0.9-0.2-1.3-0.4c-0.4-0.2-0.9-0.2-1.5-0.4c0,0-0.2,0-0.2-0.2c-0.2-0.2-0.7-0.2-1.1-0.2c-0.4-0.2-0.9-0.2-1.3-0.4
	c-0.2,0-0.4-0.2-0.7-0.2c-0.4-0.2-0.9-0.2-1.3-0.4c-0.4-0.2-0.9-0.2-1.5-0.4c-1.1-0.4-2.2-0.9-3.3-1.3l-0.9-0.4
	c-0.2,0-0.4-0.2-0.7-0.4l-0.2-0.2c0,0,0,0,0-0.2l-0.2-0.2l-0.2-0.2l0,0c0.4,0,0.7,0,1.1,0s0.9,0,1.3,0s0.9,0.2,1.3,0.2
	c0.7,0.2,1.3,0.2,2,0.2s1.3,0.2,1.8,0.4c0.7,0.2,1.3,0.4,2,0.4c0.4,0,0.9,0.2,1.3,0.2c0.9,0.2,1.8,0.4,2.4,0.7l2,0.4
	C161.2,118.2,162.3,118.4,163.4,118.9z M168.2,122.6C168.2,122.4,168.2,122.4,168.2,122.6c-0.2-0.4-0.4-0.4-0.4-0.7
	c0-0.2-0.2-0.2-0.2-0.4c-0.2-0.2-0.2-0.4-0.2-0.7c0.2,0,0.4,0,0.7,0c0.7,0.2,1.1,0.2,1.8,0.4c0.4,0,1.1,0.2,1.5,0.2
	c0.2,0,0.4,0.2,0.9,0.2c0.2,0,0.7,0.2,0.9,0.2c0.4,0.2,0.9,0.2,1.5,0.4c0.4,0,0.9,0.2,1.3,0.2c0.2,0,0.7,0.2,0.9,0.2
	c0.2,0,0.4,0.2,0.7,0.2c1.1,0.2,2.2,0.7,3.3,0.9h0.2c1.1,0.2,2.2,0.7,3.5,1.1l0.4,0.2c0.2,0,0.2,0,0.4,0.2c0,0.2-0.2,0.4-0.2,0.9
	c0,0.2,0,0.4-0.2,0.7c0,0.2-0.2,0.2-0.2,0.2s0,0-0.2,0h-0.2c-0.4,0-1.1,0-1.5-0.2c-0.9-0.2-2-0.4-2.8-0.9c-1.1-0.2-2-0.4-3.1-0.9
	c-0.7-0.2-1.3-0.4-2-0.4c-0.9-0.2-2-0.4-2.8-0.9c-0.2,0-0.2-0.2-0.4-0.2c-0.4,0-1.1-0.2-1.5-0.7l-0.4-0.2
	C169.1,123,168.7,122.8,168.2,122.6L168.2,122.6z M138.9,77.7c1.1,0.2,2,0.7,2.8,1.1l0.4,0.2c0.2,0.2,0.4,0.4,0.7,0.7
	c0,0.2-0.2,0.2-0.2,0.4c-0.2,0.4-0.7,0.7-0.9,0.9l-0.9,0.7c-0.2,0.2-0.4,0.4-0.7,0.7l0,0c-0.2,0.2-0.7,0.4-0.9,0.7
	c-0.2,0-0.4,0-0.7,0c-0.2,0-0.4,0-0.7-0.2c-0.7-0.2-1.3-0.2-1.8-0.7c-0.4-0.2-0.4-0.4-0.4-0.4v-0.2c0-0.9,0-1.5,0.4-2.2
	c0.2-0.4,0.4-0.9,0.7-1.1c0.4-0.4,1.1-0.7,1.5-0.7C138.7,77.7,138.9,77.7,138.9,77.7z M72.5,36.8c-0.4,0-0.9-0.2-1.3-0.4
	c-0.4-0.2-0.9-0.2-1.5-0.4c-0.2-0.2-0.7-0.2-0.9-0.4c-0.2,0-0.2,0-0.4-0.2s-0.7-0.2-0.9-0.4c-0.2,0-0.4,0-0.4-0.2
	c-0.4-0.2-0.9-0.4-1.1-0.7c-0.2-0.2-0.7-0.2-0.9-0.4c-0.4-0.2-0.7-0.4-1.1-0.7c0.2,0,0.7,0,0.9,0s0.4,0,0.4,0c0.2,0,0.7,0,0.9,0.2
	c0.2,0,0.7,0,0.9,0.2c0.9,0,1.8,0.2,2.6,0.4c0.4,0,0.9,0.2,1.1,0.2c0.9,0.2,1.5,0.4,2.2,0.4c0.7,0.2,1.1,0.2,1.8,0.4l-0.4,0.4
	c-0.2,0.2-0.4,0.4-0.7,0.7c-0.4,0.2-0.7,0.4-1.1,0.4C72.8,36.8,72.8,36.8,72.5,36.8z M70.3,64.8c0.2-0.7,0.4-1.1,0.9-1.8l0.2-0.2
	c0.2-0.2,0.4-0.4,0.9-0.4h0.2l0,0c0.2,0,0.4,0.2,0.7,0.2h0.2c0.4,0.2,0.9,0.4,1.3,0.9c0.2,0.2,0.4,0.4,0.9,0.4
	c0.4,0.2,0.4,0.4,0.2,1.3c0,0.2-0.2,0.4-0.2,0.9v0.2c0,0.2-0.2,0.7-0.2,0.9c-0.2,0.4-0.4,1.1-0.4,1.5c-0.2,0-0.2-0.2-0.4-0.2
	s-0.4-0.2-0.7-0.2c-0.4-0.2-0.9-0.4-1.3-0.4c-0.4-0.2-1.1-0.4-1.3-0.9C70.3,66.3,70.1,65.7,70.3,64.8z M85.9,86.2l0.4,0.4l0,0
	L85.9,86.2L85.9,86.2z M27.2,90.4c-0.2,0.2-0.7,0.7-0.9,0.9c-0.2,0.2-0.4,0.4-0.7,0.7c-0.2,0.2-0.4,0.4-0.7,0.4
	c-0.4,0.2-0.7,0.4-1.1,0.7c-0.7,0.4-1.1,0.9-1.8,1.1H22c-0.9,0.7-1.8,1.1-2.6,1.3c0,0,0,0,0.2-0.2c0.2-0.2,0.4-0.4,0.7-0.9
	c0,0,0,0,0.2-0.2c0.2-0.2,0.7-0.7,0.9-1.1c0.4-0.4,0.9-0.9,1.3-1.5c0.4-0.7,1.1-1.1,1.5-1.8c0.2,0,0.2-0.2,0.4-0.2
	c0.2-0.2,0.4-0.2,0.4-0.4c0.2-0.2,0.2-0.2,0.4-0.4c0.2-0.2,0.2-0.2,0.4-0.2c0.4-0.2,0.7-0.4,1.1-0.7c0.2-0.2,0.7-0.4,0.9-0.7
	c0.2,0,0.2-0.2,0.4-0.2c0.4-0.2,0.9-0.4,1.1-0.4l0,0c0.4,0,0.9,0.2,1.1,0.4c-0.2,0.2-0.4,0.4-0.7,0.7l-0.2,0.2L29,88.2
	c-0.4,0.4-0.9,0.7-1.3,0.9C27.7,90,27.4,90.2,27.2,90.4z M14.1,77.9c-0.2,0-0.2,0-0.2-0.2c-0.2-0.2-0.4-0.2-0.7-0.4
	c0,0-0.2,0-0.2-0.2l-0.2-0.2l-0.2-0.2c-0.4-0.4-0.7-0.9-0.7-1.5h0.7c0.7,0,1.3,0,2,0c0.9,0,1.8,0.2,2.6,0.4c0.9,0.2,1.5,0.4,2.4,0.7
	l0.9,0.2h0.2l0.9,0.2c0.7,0.2,1.1,0.4,1.8,0.7h0.2c0.4,0.2,1.1,0.4,1.5,0.7c0.2,0.2,0.7,0.2,0.9,0.4c0.2,0,0.7,0.2,0.9,0.4
	c0.4,0.2,0.9,0.4,1.3,0.7c0.2,0,0.4,0.2,0.7,0.2c0.2,0.2,0.7,0.2,0.9,0.4l0,0c0,0.2-0.2,0.2-0.4,0.4c-0.2,0-0.2,0.2-0.4,0.2
	c-0.2,0.2-0.2,0.2-0.2,0.4c-0.2,0.4-0.7,0.7-1.1,0.7h-0.2c-0.9,0-1.8-0.2-2.6-0.4c-0.7-0.2-1.5-0.4-2.2-0.7
	c-0.4-0.2-1.1-0.4-1.5-0.4c-2-0.7-3.7-1.1-5.5-1.8c-0.2,0-0.4-0.2-0.7-0.4C14.5,78.1,14.3,78.1,14.1,77.9z M31.8,70
	c0.2,0.9,0.4,2,0.4,2.8l0.2,2.6c0,0.2,0,0.4,0,0.4c0,0.2,0,0.7-0.2,1.1l0,0c-0.2,0-0.2-0.2-0.4-0.2c-0.2-0.2-0.4-0.4-0.7-0.7
	L30.9,76c-0.4-0.4-0.7-1.1-0.9-1.5l-0.2-0.2c-0.2-0.7-0.4-1.5-0.9-2.4l-0.2-0.4c0-0.2-0.2-0.7-0.2-0.9c0-0.4-0.2-0.7-0.2-1.1
	c-0.2-0.4-0.2-1.1-0.4-1.8c0-0.4-0.2-1.1-0.2-1.5c-0.2-0.4-0.2-1.1-0.2-1.5c0,0,0-0.2,0.2-0.4l0,0c0.2,0,0.2,0,0.4-0.2
	c0.2,0,0.4-0.2,0.9-0.2c0.4,0,0.7-0.2,1.1-0.2l0,0c0.2,0.7,0.2,1.3,0.4,2v0.2c0,0.2,0,0.7,0.2,0.9c0,0.2,0,0.4,0.2,0.7v0.2l0.2,1.5
	C31.6,69.6,31.6,69.8,31.8,70z M38.2,85.6c-1.3-0.2-2.6-0.9-3.9-1.3l-0.4-0.2c-0.4-0.2-0.9-0.4-1.1-0.7c0-0.2-0.2-0.2-0.2-0.2V83
	c0-0.2,0-0.2,0-0.4c0-0.4,0-0.9,0.2-1.3h0.2v-0.7l0,0v0.7c0.9,0,1.5,0.2,2.6,0.4c0.9,0.2,1.8,0.4,2.6,0.7c0.4,0,0.9,0.2,1.1,0.2
	c0.7,0.2,1.3,0.2,1.8,0.4c0.7,0.2,1.1,0.2,1.8,0.4c0.4,0.2,1.1,0.2,1.8,0.4c0,0,0.2,0.2,0.4,0.2c0.4,0.2,0.9,0.2,1.3,0.4
	c0.7,0.2,1.1,0.4,1.8,0.7c0.4,0.2,0.9,0.2,1.1,0.4l0.4,0.2c0.7,0.2,1.5,0.7,2.2,1.1c0.4,0.2,0.9,0.7,1.5,0.9c0.2,0,0.2,0.2,0.4,0.2
	c0.2,0.2,0.4,0.2,0.7,0.4l0,0c-0.2,0.2-0.4,0.4-0.7,0.9c0,0.2-0.2,0.2-0.9,0.4c-0.4,0-1.1,0-1.8-0.2l-0.4-0.2
	c-0.9-0.2-2-0.4-2.8-0.9l-1.1-0.2c-0.7-0.2-1.5-0.4-2.2-0.7c-0.7-0.2-1.5-0.4-2.2-0.7c-0.4-0.2-1.1-0.2-1.5-0.4
	C39.9,86,39,85.8,38.2,85.6z M54.8,119.7c0.2-0.2,0.2-0.2,0.2-0.4c0.2,0,0.4-0.2,0.7-0.2c0.2,0,0.4-0.2,0.4-0.2c0.2,0,0.4,0,0.7,0
	h0.4c1.1,0,2.2,0.4,3.1,1.5v0.2c-0.2,0.4-0.2,1.1-0.4,1.5c-0.2,0.2-0.4,0.4-0.7,0.9l-0.2,0.2c-0.2,0-0.2,0.2-0.2,0.2
	c-0.2,0.2-0.4,0.4-0.7,0.4c-0.9,0.2-1.5,0-2.2-0.4c-0.7-0.4-1.1-0.9-1.3-1.8C54.4,121.1,54.4,120.2,54.8,119.7z M53.5,148.4
	c-0.2,0.2-0.4,0.4-0.7,0.7c-0.4-0.2-0.9-0.4-1.5-0.7c-0.2-0.2-0.7-0.2-0.9-0.4c0,0,0,0,0-0.2c0-0.2,0.2-0.2,0.2-0.4l0.2-0.2
	c0.2-0.2,0.4-0.4,0.7-0.7c0.2-0.2,0.4-0.4,0.7-0.9c0.2-0.4,0.7-0.9,1.1-1.3c0.2-0.2,0.4-0.4,0.7-0.7c0.4-0.4,0.7-0.9,1.1-1.1
	c0.4-0.2,0.7-0.7,0.7-0.9c0.2-0.2,0.2-0.4,0.4-0.4l1.1-1.1c0.2-0.2,0.2-0.2,0.4-0.4c0.2-0.2,0.7-0.7,0.9-0.9
	c0.4-0.7,0.9-1.1,1.5-1.5c0.4-0.4,0.9-0.9,1.3-1.3c0.2-0.4,0.7-0.7,0.9-0.9l0.2-0.4l0,0c1.1,0.2,2.2,0.4,3.1,0.7H66
	c-0.4,0.4-0.7,0.9-1.1,1.1c-0.4,0.4-0.9,0.9-1.3,1.3l-1.1,1.1c-0.4,0.4-0.9,0.9-1.3,1.3c-0.2,0.2-0.7,0.7-0.9,0.9
	c-0.4,0.4-0.9,0.9-1.3,1.3l-0.2,0.2c-0.7,0.7-1.5,1.3-2.2,2.2c-0.4,0.7-0.9,1.1-1.5,1.5l-0.4,0.4C54.4,147.6,53.9,148,53.5,148.4z
	 M40.8,160.7c0,0-0.4,0.2-0.4,0.7c0,0,0,0-0.2,0c-0.2,0.2-0.7,0.2-0.9,0.9l-0.2,0.2l-0.2,0.2l-0.2,0.2c-0.2,0.2-0.4,0.4-0.7,0.7
	c-0.2,0.2-0.4,0.7-0.7,0.9l-0.2,0.2c-0.2-0.2-0.7-0.4-0.9-0.7c-0.7-0.4-1.1-0.7-1.8-1.1h-0.2c0.2-0.4,0.7-0.7,0.9-0.9
	c0.2-0.2,0.4-0.4,0.7-0.7c0.2-0.2,0.2-0.4,0.4-0.7c0,0,0-0.2,0.2-0.2c0.2-0.2,0.4-0.4,0.4-0.7c0,0,0.2,0,0.2-0.2
	c0.2-0.2,0.4-0.2,0.4-0.4c0.4-0.4,0.9-0.7,1.3-1.3c0.7-1.1,1.8-1.8,2.6-2.6c0.4-0.4,0.9-0.9,1.3-1.3c0.9-0.9,2-1.8,2.8-2.6l1.3-1.3
	c0.2,0.2,0.4,0.2,0.4,0.4c0.2,0.2,0.4,0.4,0.7,0.7c0.2,0,0.2,0.2,0.4,0.2v0.2c0.2,0.2,0.2,0.4,0.4,0.4c-0.2,0.2-0.7,0.7-0.9,0.9
	c-0.4,0.4-0.9,1.1-1.3,1.3c-0.2,0.2-0.4,0.4-0.4,0.7c0,0,0,0.2-0.2,0.2c-0.2,0.2-0.2,0.2-0.4,0.4l-0.2,0.2c-0.4,0.4-0.7,0.9-1.1,1.1
	c-0.4,0.7-1.1,1.1-1.5,1.5l-0.2,0.2c-0.2,0.4-0.7,0.9-1.1,1.3C41.2,160.3,41,160.5,40.8,160.7z M35.8,142.7v-0.7l0,0V142.7
	c1.3,0,2.6,0.2,4.2,0.7c1.3,0.2,2.4,0.7,3.3,0.9c0.9,0.2,1.8,0.4,2.6,0.7c0.2,0,0.4,0.2,0.7,0.2c-0.7,0.4-1.1,0.4-1.5,0.7
	c-1.1,0.2-2.6,0-3.7-0.2c-1.8-0.4-3.1-0.9-4.4-1.5c-0.7-0.2-1.3-0.7-1.8-1.1C35.1,142.7,35.5,142.7,35.8,142.7z M132.7,169.7
	l-0.4,0.4c-0.2,0-0.2,0.2-0.2,0.2c-0.2,0.4-0.7,0.4-1.3,0.2c-1.1-0.2-2.2-0.7-3.3-1.1l-0.4-0.2c-0.9-0.4-1.5-0.7-2.4-1.1
	c-0.9-0.2-1.5-0.7-2.2-1.1l-0.4-0.2c-0.4-0.2-0.7-0.7-1.1-0.9c0-0.2-0.2-0.2-0.4-0.4c0.2-0.2,0.7-0.2,0.9-0.2h0.2c0.2,0,0.2,0,0.7,0
	h0.2c0.4,0,0.9,0.2,1.1,0.2s0.4,0.2,0.7,0.2c0.4,0,1.1,0.2,1.5,0.4c0.2,0,0.4,0.2,0.7,0.2c0.4,0.2,0.7,0.2,1.1,0.4
	c1.3,0.4,2.6,0.9,3.9,1.5c0.2,0,0.4,0.2,0.7,0.2c0.2,0.2,0.7,0.2,0.9,0.4C133.2,169.2,133,169.4,132.7,169.7z M125.5,138.4
	c0.2,0.4,0.7,0.7,0.9,1.1s0,0.9,0,1.1c-0.2,0.4-0.4,1.1-0.7,1.5c0,0.2-0.2,0.4-0.4,0.7c-0.2,0.2-0.4,0.7-0.4,1.1
	c-0.9-0.2-1.5-0.7-2.4-0.9c-0.2,0-0.2-0.2-0.4-0.2c-0.2-0.2-0.4-0.2-0.7-0.2c-0.2,0-0.2-0.2-0.2-0.4c0-1.1,0-2,0.2-3.1
	c0.2-0.4,0.4-0.7,0.9-0.9c0.2-0.2,0.7-0.2,0.9-0.4l0.4-0.2c0.2-0.2,0.4-0.2,0.4-0.2s0.2,0,0.7,0.4l0.4,0.4c0,0,0,0,0.2,0.2
	C125.3,138.1,125.5,138.1,125.5,138.4z M145.2,104L145.2,104L145.2,104L145.2,104z M117.9,191.8L117.9,191.8L117.9,191.8
	L117.9,191.8z M93.8,102.7c0,0,0,0.2,0,0.4c0,0.2,0,0.4,0.2,0.9c0.2,0.4,0.2,0.7,0.7,1.1c0.4,0.4,1.1,0.4,1.3,0.4
	c0.4,0,0.9,0,1.3,0.2c0.2,0,0.2,0,0.4,0c0.9,0,1.8-0.4,2.2-1.1c0,0,0-0.2,0.2-0.2c0,0,0-0.2,0.2-0.2c0-0.2,0.2-0.2,0.2-0.4
	c0.2-0.4,0.4-0.9,0.7-1.3c0.4-1.1,0-2-0.9-2.6c-0.4-0.2-0.7-0.4-0.9-0.7c-0.2-0.2-0.4-0.2-0.7-0.4c-0.9-0.7-1.8-0.9-2.8-0.2
	c-0.2,0.2-0.4,0.2-0.7,0.4c-0.2,0.2-0.4,0.2-0.4,0.4l-0.4,0.4c-0.2,0.2-0.2,0.2-0.4,0.4c-0.4,0.2-0.4,0.7-0.4,0.9v0.2
	C93.8,101.6,93.6,102,93.8,102.7z M98.6,102.5c-0.2,0.4-0.2,0.7-0.4,1.1l0,0l-0.2-0.2c-0.2-0.2-0.4-0.4-0.7-0.9c0-0.2-0.2-0.7,0-0.9
	l0.2-0.2l0,0h0.2h0.2c0.2,0,0.2,0,0.4,0C98.8,102,98.8,102.2,98.6,102.5z"/>
</svg>
